<svg width="55" height="55" viewBox="0 0 55 55" fill="none" xmlns="http://www.w3.org/2000/svg">
<g clip-path="url(#clip0)">
<rect width="55" height="55" rx="23.5" fill="#A23E81"/>
<rect x="0.25" y="0.25" width="54.5" height="54.5" rx="23.25" stroke="white" stroke-opacity="0.3" stroke-width="0.5"/>
<g filter="url(#filter0_dddddd)">
<path d="M35.3 31.1995H28.7V26.9995C28.7 26.6695 28.43 26.3995 28.1 26.3995H19.7C19.37 26.3995 19.1 26.6695 19.1 26.9995V36.5995C19.1 36.9295 19.37 37.1995 19.7 37.1995H35.3C35.63 37.1995 35.9 36.9295 35.9 36.5995V31.7995C35.9 31.4695 35.63 31.1995 35.3 31.1995ZM26.9 35.3995H20.9V32.9995H26.9V35.3995ZM26.9 30.5995H20.9V28.1995H26.9V30.5995ZM34.1 35.3995H28.7V32.9995H34.1V35.3995ZM37.9213 22.1283L28.4863 18.1983C27.8488 17.9358 27.1475 17.932 26.5138 18.1983L17.0788 22.1283C16.1187 22.5258 15.5 23.4558 15.5 24.4945V36.5995C15.5 36.9295 15.77 37.1995 16.1 37.1995H16.7C17.03 37.1995 17.3 36.9295 17.3 36.5995V24.4945C17.3 24.1833 17.4838 23.9058 17.7688 23.7895L27.2075 19.8595C27.3988 19.7808 27.605 19.7808 27.7963 19.8595L37.2313 23.7895C37.5163 23.9095 37.7 24.187 37.7 24.4945V36.5995C37.7 36.9295 37.97 37.1995 38.3 37.1995H38.9C39.23 37.1995 39.5 36.9295 39.5 36.5995V24.4945C39.5 23.4558 38.8813 22.5258 37.9213 22.1283V22.1283Z" fill="white"/>
</g>
</g>
<defs>
<filter id="filter0_dddddd" x="-64.5" y="16" width="184" height="204" filterUnits="userSpaceOnUse" color-interpolation-filters="sRGB">
<feFlood flood-opacity="0" result="BackgroundImageFix"/>
<feColorMatrix in="SourceAlpha" type="matrix" values="0 0 0 0 0 0 0 0 0 0 0 0 0 0 0 0 0 0 127 0"/>
<feOffset dy="2.76726"/>
<feGaussianBlur stdDeviation="1.1069"/>
<feColorMatrix type="matrix" values="0 0 0 0 0.462745 0 0 0 0 0.176471 0 0 0 0 0.368627 0 0 0 0.137761 0"/>
<feBlend mode="normal" in2="BackgroundImageFix" result="effect1_dropShadow"/>
<feColorMatrix in="SourceAlpha" type="matrix" values="0 0 0 0 0 0 0 0 0 0 0 0 0 0 0 0 0 0 127 0"/>
<feOffset dy="6.6501"/>
<feGaussianBlur stdDeviation="2.66004"/>
<feColorMatrix type="matrix" values="0 0 0 0 0.462745 0 0 0 0 0.176471 0 0 0 0 0.368627 0 0 0 0.197907 0"/>
<feBlend mode="normal" in2="effect1_dropShadow" result="effect2_dropShadow"/>
<feColorMatrix in="SourceAlpha" type="matrix" values="0 0 0 0 0 0 0 0 0 0 0 0 0 0 0 0 0 0 127 0"/>
<feOffset dy="12.5216"/>
<feGaussianBlur stdDeviation="5.00862"/>
<feColorMatrix type="matrix" values="0 0 0 0 0.462745 0 0 0 0 0.176471 0 0 0 0 0.368627 0 0 0 0.245 0"/>
<feBlend mode="normal" in2="effect2_dropShadow" result="effect3_dropShadow"/>
<feColorMatrix in="SourceAlpha" type="matrix" values="0 0 0 0 0 0 0 0 0 0 0 0 0 0 0 0 0 0 127 0"/>
<feOffset dy="22.3363"/>
<feGaussianBlur stdDeviation="8.93452"/>
<feColorMatrix type="matrix" values="0 0 0 0 0.462745 0 0 0 0 0.176471 0 0 0 0 0.368627 0 0 0 0.292093 0"/>
<feBlend mode="normal" in2="effect3_dropShadow" result="effect4_dropShadow"/>
<feColorMatrix in="SourceAlpha" type="matrix" values="0 0 0 0 0 0 0 0 0 0 0 0 0 0 0 0 0 0 127 0"/>
<feOffset dy="41.7776"/>
<feGaussianBlur stdDeviation="16.711"/>
<feColorMatrix type="matrix" values="0 0 0 0 0.462745 0 0 0 0 0.176471 0 0 0 0 0.368627 0 0 0 0.352239 0"/>
<feBlend mode="normal" in2="effect4_dropShadow" result="effect5_dropShadow"/>
<feColorMatrix in="SourceAlpha" type="matrix" values="0 0 0 0 0 0 0 0 0 0 0 0 0 0 0 0 0 0 127 0"/>
<feOffset dy="100"/>
<feGaussianBlur stdDeviation="40"/>
<feColorMatrix type="matrix" values="0 0 0 0 0.462745 0 0 0 0 0.176471 0 0 0 0 0.368627 0 0 0 0.49 0"/>
<feBlend mode="normal" in2="effect5_dropShadow" result="effect6_dropShadow"/>
<feBlend mode="normal" in="SourceGraphic" in2="effect6_dropShadow" result="shape"/>
</filter>
<clipPath id="clip0">
<path d="M0 23.5C0 10.5213 10.5213 0 23.5 0H31.5C44.4787 0 55 10.5213 55 23.5V31.5C55 44.4787 44.4787 55 31.5 55H23.5C10.5213 55 0 44.4787 0 31.5V23.5Z" fill="white"/>
</clipPath>
</defs>
</svg>
