<svg width="55" height="55" viewBox="0 0 55 55" fill="none" xmlns="http://www.w3.org/2000/svg">
<g clip-path="url(#clip0)">
<rect width="55" height="55" rx="23.5" fill="#FFA12E"/>
<rect x="0.25" y="0.25" width="54.5" height="54.5" rx="23.25" stroke="white" stroke-opacity="0.3" stroke-width="0.5"/>
<g filter="url(#filter0_dddddd)">
<path d="M20.9912 20.368C20.6288 19.2304 19.5752 18.4 18.3176 18.4C16.7648 18.4 15.5 19.6648 15.5 21.2176V34.8832C15.5 34.8976 15.5048 34.912 15.5048 34.9264C15.5048 34.9408 15.5 34.9552 15.5 34.9696C15.5 36.5272 16.7648 37.792 18.3176 37.792H39.5V20.368H20.9912ZM18.3176 36.6688C17.3816 36.6688 16.6208 35.908 16.6208 34.972C16.6208 34.0384 17.3816 33.2776 18.3176 33.2776C19.2536 33.2776 20.0144 34.0384 20.0144 34.972C20.0144 35.908 19.2536 36.6688 18.3176 36.6688ZM20.2832 32.9584C19.7744 32.464 19.0832 32.1544 18.3176 32.1544C17.5544 32.1544 16.8608 32.4616 16.3544 32.9584V21.2176C16.3544 20.1352 17.2352 19.2544 18.3176 19.2544C19.4 19.2544 20.2832 20.1352 20.2832 21.2176V32.9584ZM35.96 33.3664C35.864 33.4624 35.7344 33.5176 35.5976 33.5176H24.6656C24.5288 33.5176 24.3992 33.4624 24.3032 33.3664C24.2072 33.2704 24.152 33.1408 24.152 33.004C24.152 32.8672 24.2072 32.7376 24.3032 32.6416C24.3992 32.5456 24.5288 32.4904 24.6656 32.4904H35.5976C35.7344 32.4904 35.864 32.5432 35.96 32.6416C36.056 32.7376 36.1112 32.8672 36.1112 33.004C36.1112 33.1408 36.056 33.2704 35.96 33.3664ZM36.1112 27.2512C36.1112 27.3184 36.092 27.3856 36.0536 27.4432C36.0152 27.5008 35.9624 27.544 35.9 27.5704C35.8376 27.5968 35.768 27.604 35.7008 27.5896C35.6336 27.5752 35.5736 27.544 35.5256 27.496L34.3952 26.3656L31.3208 29.4376C31.2728 29.4856 31.2176 29.524 31.1552 29.5504C31.0928 29.5768 31.0256 29.5888 30.9584 29.5888C30.8912 29.5888 30.824 29.5744 30.7616 29.5504C30.6992 29.524 30.644 29.4856 30.596 29.4376L28.2056 27.0472L25.1312 29.7976C25.0808 29.8432 25.0232 29.8768 24.9584 29.8984C24.896 29.92 24.8264 29.9296 24.7592 29.9272C24.692 29.9224 24.6272 29.9056 24.5648 29.8768C24.5048 29.848 24.4496 29.8072 24.404 29.7568C24.3584 29.7064 24.3248 29.6488 24.3032 29.584C24.2816 29.5192 24.272 29.452 24.2744 29.3848C24.2792 29.3176 24.296 29.2528 24.3248 29.1904C24.3536 29.1304 24.3944 29.0752 24.4448 29.0296L27.86 25.9552C27.9536 25.864 28.0808 25.8136 28.2128 25.8136C28.3448 25.8136 28.4696 25.864 28.5656 25.9552L30.956 28.3504L33.668 25.6384L32.54 24.508C32.492 24.46 32.4584 24.4 32.4464 24.3328C32.432 24.2656 32.4392 24.1984 32.4656 24.1336C32.492 24.0712 32.5352 24.0184 32.5928 23.98C32.6504 23.9416 32.7152 23.9224 32.7824 23.9224H35.768C35.8592 23.9224 35.9456 23.9584 36.0104 24.0232C36.0752 24.088 36.1112 24.1744 36.1112 24.2656V27.2512Z" fill="white"/>
</g>
</g>
<defs>
<filter id="filter0_dddddd" x="-64.5" y="16" width="184" height="204" filterUnits="userSpaceOnUse" color-interpolation-filters="sRGB">
<feFlood flood-opacity="0" result="BackgroundImageFix"/>
<feColorMatrix in="SourceAlpha" type="matrix" values="0 0 0 0 0 0 0 0 0 0 0 0 0 0 0 0 0 0 127 0"/>
<feOffset dy="2.76726"/>
<feGaussianBlur stdDeviation="1.1069"/>
<feColorMatrix type="matrix" values="0 0 0 0 0.929412 0 0 0 0 0.466667 0 0 0 0 0.145098 0 0 0 0.129327 0"/>
<feBlend mode="normal" in2="BackgroundImageFix" result="effect1_dropShadow"/>
<feColorMatrix in="SourceAlpha" type="matrix" values="0 0 0 0 0 0 0 0 0 0 0 0 0 0 0 0 0 0 127 0"/>
<feOffset dy="6.6501"/>
<feGaussianBlur stdDeviation="2.66004"/>
<feColorMatrix type="matrix" values="0 0 0 0 0.929412 0 0 0 0 0.466667 0 0 0 0 0.145098 0 0 0 0.185791 0"/>
<feBlend mode="normal" in2="effect1_dropShadow" result="effect2_dropShadow"/>
<feColorMatrix in="SourceAlpha" type="matrix" values="0 0 0 0 0 0 0 0 0 0 0 0 0 0 0 0 0 0 127 0"/>
<feOffset dy="12.5216"/>
<feGaussianBlur stdDeviation="5.00862"/>
<feColorMatrix type="matrix" values="0 0 0 0 0.929412 0 0 0 0 0.466667 0 0 0 0 0.145098 0 0 0 0.23 0"/>
<feBlend mode="normal" in2="effect2_dropShadow" result="effect3_dropShadow"/>
<feColorMatrix in="SourceAlpha" type="matrix" values="0 0 0 0 0 0 0 0 0 0 0 0 0 0 0 0 0 0 127 0"/>
<feOffset dy="22.3363"/>
<feGaussianBlur stdDeviation="8.93452"/>
<feColorMatrix type="matrix" values="0 0 0 0 0.929412 0 0 0 0 0.466667 0 0 0 0 0.145098 0 0 0 0.274209 0"/>
<feBlend mode="normal" in2="effect3_dropShadow" result="effect4_dropShadow"/>
<feColorMatrix in="SourceAlpha" type="matrix" values="0 0 0 0 0 0 0 0 0 0 0 0 0 0 0 0 0 0 127 0"/>
<feOffset dy="41.7776"/>
<feGaussianBlur stdDeviation="16.711"/>
<feColorMatrix type="matrix" values="0 0 0 0 0.929412 0 0 0 0 0.466667 0 0 0 0 0.145098 0 0 0 0.330673 0"/>
<feBlend mode="normal" in2="effect4_dropShadow" result="effect5_dropShadow"/>
<feColorMatrix in="SourceAlpha" type="matrix" values="0 0 0 0 0 0 0 0 0 0 0 0 0 0 0 0 0 0 127 0"/>
<feOffset dy="100"/>
<feGaussianBlur stdDeviation="40"/>
<feColorMatrix type="matrix" values="0 0 0 0 0.929412 0 0 0 0 0.466667 0 0 0 0 0.145098 0 0 0 0.46 0"/>
<feBlend mode="normal" in2="effect5_dropShadow" result="effect6_dropShadow"/>
<feBlend mode="normal" in="SourceGraphic" in2="effect6_dropShadow" result="shape"/>
</filter>
<clipPath id="clip0">
<path d="M0 23.5C0 10.5213 10.5213 0 23.5 0H31.5C44.4787 0 55 10.5213 55 23.5V31.5C55 44.4787 44.4787 55 31.5 55H23.5C10.5213 55 0 44.4787 0 31.5V23.5Z" fill="white"/>
</clipPath>
</defs>
</svg>
