<svg width="55" height="55" viewBox="0 0 55 55" fill="none" xmlns="http://www.w3.org/2000/svg">
<g clip-path="url(#clip0)">
<rect width="55" height="55" rx="23.5" fill="#963D8C"/>
<rect x="0.25" y="0.25" width="54.5" height="54.5" rx="23.25" stroke="white" stroke-opacity="0.3" stroke-width="0.5"/>
<g filter="url(#filter0_dddddd)">
<path d="M18.5 27.6H26.9C27.23 27.6 27.5 27.33 27.5 27V18.6C27.5 18.27 27.23 18 26.9 18H18.5C18.17 18 17.9 18.27 17.9 18.6V27C17.9 27.33 18.17 27.6 18.5 27.6ZM30.5 27.6H36.5C36.83 27.6 37.1 27.33 37.1 27V21C37.1 20.67 36.83 20.4 36.5 20.4H30.5C30.17 20.4 29.9 20.67 29.9 21V27C29.9 27.33 30.17 27.6 30.5 27.6ZM38.9 32.4C39.23 32.4 39.5 32.13 39.5 31.8V30.6C39.5 30.27 39.23 30 38.9 30H16.1C15.77 30 15.5 30.27 15.5 30.6V31.8C15.5 32.13 15.77 32.4 16.1 32.4H17.9V34.8H16.1C15.77 34.8 15.5 35.07 15.5 35.4V36.6C15.5 36.93 15.77 37.2 16.1 37.2H38.9C39.23 37.2 39.5 36.93 39.5 36.6V35.4C39.5 35.07 39.23 34.8 38.9 34.8H37.1V32.4H38.9ZM26.3 34.8H20.3V32.4H26.3V34.8ZM34.7 34.8H28.7V32.4H34.7V34.8Z" fill="white"/>
</g>
</g>
<defs>
<filter id="filter0_dddddd" x="-64.5" y="16" width="184" height="204" filterUnits="userSpaceOnUse" color-interpolation-filters="sRGB">
<feFlood flood-opacity="0" result="BackgroundImageFix"/>
<feColorMatrix in="SourceAlpha" type="matrix" values="0 0 0 0 0 0 0 0 0 0 0 0 0 0 0 0 0 0 127 0"/>
<feOffset dy="2.76726"/>
<feGaussianBlur stdDeviation="1.1069"/>
<feColorMatrix type="matrix" values="0 0 0 0 0.454902 0 0 0 0 0.184314 0 0 0 0 0.423529 0 0 0 0.13495 0"/>
<feBlend mode="normal" in2="BackgroundImageFix" result="effect1_dropShadow"/>
<feColorMatrix in="SourceAlpha" type="matrix" values="0 0 0 0 0 0 0 0 0 0 0 0 0 0 0 0 0 0 127 0"/>
<feOffset dy="6.6501"/>
<feGaussianBlur stdDeviation="2.66004"/>
<feColorMatrix type="matrix" values="0 0 0 0 0.454902 0 0 0 0 0.184314 0 0 0 0 0.423529 0 0 0 0.193869 0"/>
<feBlend mode="normal" in2="effect1_dropShadow" result="effect2_dropShadow"/>
<feColorMatrix in="SourceAlpha" type="matrix" values="0 0 0 0 0 0 0 0 0 0 0 0 0 0 0 0 0 0 127 0"/>
<feOffset dy="12.5216"/>
<feGaussianBlur stdDeviation="5.00862"/>
<feColorMatrix type="matrix" values="0 0 0 0 0.454902 0 0 0 0 0.184314 0 0 0 0 0.423529 0 0 0 0.24 0"/>
<feBlend mode="normal" in2="effect2_dropShadow" result="effect3_dropShadow"/>
<feColorMatrix in="SourceAlpha" type="matrix" values="0 0 0 0 0 0 0 0 0 0 0 0 0 0 0 0 0 0 127 0"/>
<feOffset dy="22.3363"/>
<feGaussianBlur stdDeviation="8.93452"/>
<feColorMatrix type="matrix" values="0 0 0 0 0.454902 0 0 0 0 0.184314 0 0 0 0 0.423529 0 0 0 0.286131 0"/>
<feBlend mode="normal" in2="effect3_dropShadow" result="effect4_dropShadow"/>
<feColorMatrix in="SourceAlpha" type="matrix" values="0 0 0 0 0 0 0 0 0 0 0 0 0 0 0 0 0 0 127 0"/>
<feOffset dy="41.7776"/>
<feGaussianBlur stdDeviation="16.711"/>
<feColorMatrix type="matrix" values="0 0 0 0 0.454902 0 0 0 0 0.184314 0 0 0 0 0.423529 0 0 0 0.34505 0"/>
<feBlend mode="normal" in2="effect4_dropShadow" result="effect5_dropShadow"/>
<feColorMatrix in="SourceAlpha" type="matrix" values="0 0 0 0 0 0 0 0 0 0 0 0 0 0 0 0 0 0 127 0"/>
<feOffset dy="100"/>
<feGaussianBlur stdDeviation="40"/>
<feColorMatrix type="matrix" values="0 0 0 0 0.454902 0 0 0 0 0.184314 0 0 0 0 0.423529 0 0 0 0.48 0"/>
<feBlend mode="normal" in2="effect5_dropShadow" result="effect6_dropShadow"/>
<feBlend mode="normal" in="SourceGraphic" in2="effect6_dropShadow" result="shape"/>
</filter>
<clipPath id="clip0">
<path d="M0 23.5C0 10.5213 10.5213 0 23.5 0H31.5C44.4787 0 55 10.5213 55 23.5V31.5C55 44.4787 44.4787 55 31.5 55H23.5C10.5213 55 0 44.4787 0 31.5V23.5Z" fill="white"/>
</clipPath>
</defs>
</svg>
