<svg width="340" height="275" viewBox="0 0 340 275" fill="none" xmlns="http://www.w3.org/2000/svg">
<path fill-rule="evenodd" clip-rule="evenodd" d="M138 135H221C224.866 135 228 131.866 228 128C228 124.134 224.866 121 221 121C221 121 215 117.866 215 114C215 110.134 218.952 107 223.826 107H234C237.866 107 241 103.866 241 100C241 96.134 237.866 93 234 93H212C215.866 93 219 89.866 219 86C219 82.134 215.866 79 212 79H252C255.866 79 259 75.866 259 72C259 68.134 255.866 65 252 65H154C150.134 65 147 68.134 147 72C147 75.866 150.134 79 154 79H114C110.134 79 107 82.134 107 86C107 89.866 110.134 93 114 93H139C142.866 93 146 96.134 146 100C146 103.866 142.866 107 139 107H99C95.134 107 92 110.134 92 114C92 117.866 95.134 121 99 121H138C134.134 121 131 124.134 131 128C131 131.866 134.134 135 138 135ZM245 100C245 103.866 248.134 107 252 107C255.866 107 259 103.866 259 100C259 96.134 255.866 93 252 93C248.134 93 245 96.134 245 100Z" fill="#FBFBFC"/>
<g opacity="0.5">
<path d="M186.646 99.7474C187.077 99.3385 187.096 98.6551 186.659 98.2542C185.306 97.0149 183.744 96.0221 182.041 95.3239C180.007 94.4896 177.819 94.0951 175.621 94.1661C173.424 94.2371 171.266 94.7722 169.29 95.7361C167.636 96.5427 166.141 97.6344 164.871 98.9584C164.46 99.3868 164.524 100.067 164.98 100.448C165.435 100.828 166.11 100.764 166.526 100.34C167.598 99.2461 168.851 98.3417 170.232 97.668C171.936 96.837 173.796 96.3757 175.691 96.3144C177.585 96.2532 179.472 96.5934 181.226 97.3127C182.647 97.8958 183.956 98.7173 185.097 99.7394C185.539 100.136 186.216 100.156 186.646 99.7474Z" fill="#CDCFD0"/>
<path fill-rule="evenodd" clip-rule="evenodd" d="M207.536 120.073L201.343 123.823L195.15 120.073L188.958 123.823L182.765 120.073L176.573 123.823L170.38 120.073L164.188 123.823L157.995 120.073L151.803 123.823L145.644 120.094L138.005 124.089L138.024 124.125H138V147.25C138 149.321 139.679 151 141.75 151H210.5C212.571 151 214.25 149.321 214.25 147.25V124.125H214.209L214.214 124.117L207.536 120.073ZM212.375 125.196L207.536 122.265L201.343 126.015L195.15 122.265L188.958 126.015L182.765 122.265L176.573 126.015L170.38 122.265L164.188 126.015L157.995 122.265L151.803 126.015L145.576 122.245L139.875 125.227V147.25C139.875 148.286 140.714 149.125 141.75 149.125H210.5C211.536 149.125 212.375 148.286 212.375 147.25V125.196Z" fill="#CDCFD0"/>
<path fill-rule="evenodd" clip-rule="evenodd" d="M200.795 51H141.75C139.679 51 138 52.6789 138 54.75L138 119.635L138.013 119.661L144.902 116.145L151.282 119.915L157.63 116.165L163.976 119.915L170.322 116.165L176.668 119.915L183.015 116.165L189.361 119.915L195.707 116.165L202.054 119.915L208.4 116.165L214.25 119.621L214.25 64.4129L212.355 62.524L212.352 62.5442L201.357 51.5492L201.351 51.5549L200.795 51ZM139.875 116.606V54.75C139.875 53.7145 140.715 52.875 141.75 52.875H199.752C199.433 53.4266 199.25 54.067 199.25 54.75V62.25C199.25 64.3211 200.929 66 203 66H210.5C211.183 66 211.824 65.8174 212.375 65.4983V116.336L208.4 113.987L202.054 117.737L195.707 113.987L189.361 117.737L183.015 113.987L176.668 117.737L170.322 113.987L163.976 117.737L157.63 113.987L151.282 117.737L144.969 114.006L139.875 116.606ZM201.245 54.0887L211.161 64.0051C210.956 64.0826 210.733 64.125 210.5 64.125H203C201.965 64.125 201.125 63.2855 201.125 62.25V54.75C201.125 54.5172 201.168 54.2944 201.245 54.0887Z" fill="#CDCFD0"/>
</g>
<path d="M91.5589 219H93.7536V214.476L95.4723 212.501L100.174 219H102.816L96.9283 211.003L102.795 204.455H100.032L93.9311 211.401H93.7536V204.455H91.5589V219ZM106.793 212.523C106.793 210.783 107.894 209.788 109.407 209.788C110.87 209.788 111.744 210.719 111.744 212.317V219H113.867V212.061C113.867 209.341 112.376 207.949 110.131 207.949C108.434 207.949 107.411 208.688 106.9 209.866H106.765V204.455H104.67V219H106.793V212.523ZM121.296 219.22C124.371 219.22 126.381 216.969 126.381 213.595C126.381 210.2 124.371 207.949 121.296 207.949C118.221 207.949 116.211 210.2 116.211 213.595C116.211 216.969 118.221 219.22 121.296 219.22ZM121.303 217.438C119.293 217.438 118.356 215.683 118.356 213.588C118.356 211.5 119.293 209.724 121.303 209.724C123.299 209.724 124.237 211.5 124.237 213.588C124.237 215.683 123.299 217.438 121.303 217.438ZM119.833 206.784L121.296 204.881L122.752 206.784H124.677V206.678L122.177 203.666H120.408L117.915 206.678V206.784H119.833ZM130.875 212.523C130.875 210.783 131.941 209.788 133.418 209.788C134.86 209.788 135.733 210.733 135.733 212.317V219H137.857V212.061C137.857 209.362 136.373 207.949 134.142 207.949C132.502 207.949 131.429 208.709 130.925 209.866H130.79V208.091H128.752V219H130.875V212.523ZM145.279 223.318C148.056 223.318 150.201 222.047 150.201 219.241V208.091H148.12V209.859H147.963C147.587 209.185 146.834 207.949 144.803 207.949C142.168 207.949 140.229 210.03 140.229 213.503C140.229 216.983 142.211 218.837 144.789 218.837C146.792 218.837 147.566 217.707 147.949 217.011H148.084V219.156C148.084 220.868 146.912 221.607 145.3 221.607C143.532 221.607 142.843 220.719 142.466 220.094L140.641 220.847C141.216 222.182 142.672 223.318 145.279 223.318ZM145.257 217.075C143.361 217.075 142.374 215.619 142.374 213.474C142.374 211.379 143.34 209.753 145.257 209.753C147.111 209.753 148.105 211.266 148.105 213.474C148.105 215.726 147.09 217.075 145.257 217.075ZM162.937 219.22C165.515 219.22 167.184 217.672 167.418 215.548H165.352C165.082 216.727 164.165 217.423 162.951 217.423C161.154 217.423 159.996 215.925 159.996 213.545C159.996 211.209 161.175 209.739 162.951 209.739C164.3 209.739 165.124 210.591 165.352 211.614H167.418C167.191 209.412 165.394 207.949 162.915 207.949C159.84 207.949 157.852 210.264 157.852 213.595C157.852 216.884 159.769 219.22 162.937 219.22ZM174.284 219.22C177.36 219.22 179.37 216.969 179.37 213.595C179.37 210.2 177.36 207.949 174.284 207.949C171.209 207.949 169.199 210.2 169.199 213.595C169.199 216.969 171.209 219.22 174.284 219.22ZM174.292 217.438C172.282 217.438 171.344 215.683 171.344 213.588C171.344 211.5 172.282 209.724 174.292 209.724C176.287 209.724 177.225 211.5 177.225 213.588C177.225 215.683 176.287 217.438 174.292 217.438ZM173.411 206.635H175.108L177.31 203.361H175.073L173.411 206.635ZM191.117 219.213C193.105 219.213 193.887 217.999 194.27 217.303H194.448V219H196.522V204.455H194.398V209.859H194.27C193.887 209.185 193.162 207.949 191.131 207.949C188.496 207.949 186.557 210.03 186.557 213.567C186.557 217.097 188.468 219.213 191.117 219.213ZM191.586 217.402C189.689 217.402 188.702 215.733 188.702 213.545C188.702 211.379 189.668 209.753 191.586 209.753C193.439 209.753 194.434 211.266 194.434 213.545C194.434 215.839 193.418 217.402 191.586 217.402ZM209.95 207.565C209.943 208.908 209.879 209.589 208.615 209.739V208.091H206.484V214.476C206.491 216.33 205.114 217.21 203.92 217.21C202.607 217.21 201.697 216.259 201.697 214.774V208.091H199.574V215.03C199.574 217.736 201.058 219.142 203.153 219.142C204.794 219.142 205.909 218.276 206.413 217.111H206.527V219H208.615V210.974C210.838 210.811 211.513 209.653 211.52 207.565H209.95ZM201.967 206.77C201.967 206.152 202.344 205.69 202.869 205.69C203.878 205.69 204.119 206.656 205.462 206.656C206.705 206.649 207.67 205.69 207.67 204.107L206.271 204.014C206.264 204.632 205.888 205.101 205.341 205.101C204.389 205.101 203.906 204.142 202.749 204.142C201.499 204.142 200.54 205.158 200.54 206.727L201.967 206.77ZM219.996 204.455H217.873V219H219.996V204.455ZM222.853 219H224.977V208.091H222.853V219ZM223.926 206.408C224.657 206.408 225.268 205.839 225.268 205.143C225.268 204.447 224.657 203.872 223.926 203.872C223.187 203.872 222.583 204.447 222.583 205.143C222.583 205.839 223.187 206.408 223.926 206.408ZM232.536 219.22C234.915 219.22 236.598 218.048 237.081 216.273L235.071 215.911C234.688 216.94 233.764 217.466 232.557 217.466C230.739 217.466 229.517 216.287 229.46 214.185H237.216V213.432C237.216 209.49 234.858 207.949 232.386 207.949C229.347 207.949 227.344 210.264 227.344 213.616C227.344 217.004 229.318 219.22 232.536 219.22ZM229.467 212.594C229.553 211.045 230.675 209.703 232.401 209.703C234.048 209.703 235.128 210.925 235.135 212.594H229.467ZM230.845 206.784L232.308 204.881L233.764 206.784H235.689V206.678L233.189 203.666H231.42L228.928 206.678V206.784H230.845ZM232.301 222.764C233.033 222.764 233.643 222.196 233.643 221.5C233.643 220.804 233.033 220.229 232.301 220.229C231.562 220.229 230.959 220.804 230.959 221.5C230.959 222.196 231.562 222.764 232.301 222.764ZM246.483 214.476C246.49 216.33 245.112 217.21 243.919 217.21C242.605 217.21 241.696 216.259 241.696 214.774V208.091H239.572V215.03C239.572 217.736 241.056 219.142 243.152 219.142C244.792 219.142 245.907 218.276 246.412 217.111H246.525V219H248.613V208.091H246.483V214.476Z" fill="#80898F"/>
</svg>
