<?xml version="1.0" encoding="UTF-8" ?>
<!DOCTYPE svg PUBLIC "-//W3C//DTD SVG 1.1//EN" "http://www.w3.org/Graphics/SVG/1.1/DTD/svg11.dtd">
<svg width="600pt" height="300pt" viewBox="0 0 600 300" version="1.1" xmlns="http://www.w3.org/2000/svg">
<g id="#ffffffff">
</g>
<g id="#01a650ff">
<path fill="#01a650" opacity="1.00" d=" M 57.08 63.50 C 84.43 58.57 111.79 53.67 139.14 48.79 C 142.87 48.13 146.60 47.41 150.39 47.16 C 150.26 52.95 150.33 58.74 150.35 64.53 C 176.62 64.61 202.89 64.48 229.16 64.59 C 234.48 66.26 238.64 71.29 238.42 77.00 C 238.42 127.36 238.39 177.72 238.44 228.08 C 238.75 234.33 233.49 240.83 226.99 240.62 C 201.45 240.62 175.91 240.73 150.38 240.57 C 149.81 246.53 151.32 252.84 149.53 258.56 C 146.80 257.47 143.86 257.16 140.98 256.67 C 130.23 255.08 119.62 252.65 108.85 251.19 L 108.15 250.73 C 99.05 249.43 90.03 247.57 80.96 246.11 C 62.83 242.73 44.65 239.62 26.51 236.32 C 26.39 180.45 26.38 124.58 26.52 68.72 C 36.77 67.43 46.87 65.08 57.08 63.50 M 150.28 73.45 C 150.39 79.40 150.15 85.37 150.49 91.32 C 164.32 91.08 178.15 91.29 191.97 91.17 C 194.37 91.23 196.87 91.08 199.18 91.86 C 202.16 93.32 203.29 96.89 203.29 99.99 C 203.31 114.59 203.35 129.18 203.31 143.78 C 206.21 143.80 209.21 143.30 212.04 144.05 C 215.06 145.68 217.52 148.15 220.46 149.92 C 220.46 150.25 220.45 150.91 220.45 151.23 C 211.82 160.17 203.33 169.24 195.05 178.49 C 194.69 178.52 193.97 178.56 193.61 178.59 C 192.16 176.64 190.63 174.77 188.96 173.02 C 182.23 165.93 176.10 158.27 169.19 151.37 C 169.91 147.69 174.46 146.58 176.60 143.71 C 179.55 143.70 182.50 143.71 185.46 143.76 C 185.45 132.03 185.44 120.31 185.44 108.58 C 173.77 108.46 162.10 108.58 150.42 108.54 C 150.32 132.31 150.07 156.09 150.56 179.85 C 152.13 175.74 156.20 173.43 158.98 170.21 C 167.40 178.38 175.62 186.76 183.93 195.04 C 184.96 195.73 185.09 197.24 184.15 198.06 C 175.74 206.34 167.45 214.74 159.04 223.02 C 156.16 220.27 153.44 217.37 150.47 214.72 C 150.21 220.42 150.33 226.13 150.35 231.83 C 175.56 231.70 200.78 231.87 225.98 231.76 C 227.42 231.93 228.57 231.18 229.55 230.24 C 229.61 178.66 229.71 127.08 229.50 75.50 C 228.88 74.82 228.27 74.15 227.66 73.48 C 201.87 73.38 176.07 73.43 150.28 73.45 M 63.23 110.34 C 63.30 141.42 63.04 172.50 63.36 203.57 C 69.16 203.64 74.91 204.51 80.71 204.51 C 80.88 199.02 80.54 193.53 81.16 188.06 C 81.62 182.56 80.26 176.96 81.39 171.53 C 86.28 171.66 91.18 171.85 96.07 171.54 C 105.85 170.46 115.27 164.79 120.02 156.05 C 125.01 147.33 125.26 136.63 122.94 127.06 C 121.08 119.92 116.21 113.30 109.07 110.81 C 108.07 110.48 107.06 110.14 106.06 109.82 C 98.94 107.48 91.34 108.68 84.00 108.80 C 77.11 109.82 70.08 109.09 63.23 110.34 Z" />
<path fill="#01a650" opacity="1.00" d=" M 431.74 115.50 C 432.89 113.10 435.78 112.77 438.11 112.42 C 439.71 113.64 441.15 115.05 442.47 116.57 C 442.34 118.24 442.01 119.88 441.46 121.46 C 440.77 122.12 440.09 122.78 439.42 123.46 C 437.13 123.50 434.34 124.28 432.59 122.34 C 430.90 120.53 431.07 117.72 431.74 115.50 Z" />
<path fill="#01a650" opacity="1.00" d=" M 286.37 116.20 C 291.26 116.20 296.16 116.27 301.05 116.09 C 306.58 116.36 312.31 115.65 317.62 117.63 C 323.79 119.59 328.95 124.73 330.49 131.08 C 332.04 136.00 331.46 141.26 330.29 146.19 C 327.55 153.36 321.21 159.20 313.69 160.93 C 307.47 162.81 300.95 162.06 294.56 162.36 C 294.57 171.67 294.75 180.99 294.45 190.29 C 291.70 190.09 288.77 190.76 286.14 189.84 C 285.45 187.29 285.84 184.60 285.77 182.00 C 285.85 160.98 285.82 139.97 285.77 118.95 C 285.92 118.27 286.22 116.89 286.37 116.20 M 294.58 124.32 C 294.65 131.56 294.61 138.81 294.60 146.05 C 294.64 148.87 294.22 151.78 295.22 154.49 C 301.61 154.11 308.36 155.03 314.34 152.17 C 323.12 148.32 324.78 135.28 318.76 128.38 C 312.29 122.14 302.65 124.59 294.58 124.32 Z" />
<path fill="#01a650" opacity="1.00" d=" M 560.04 121.00 C 560.54 119.35 562.26 123.03 563.59 121.81 C 563.66 126.79 563.76 131.77 563.49 136.74 C 567.97 138.03 572.70 136.93 577.29 137.48 C 577.22 139.75 577.20 142.01 577.20 144.28 C 572.67 144.50 568.13 144.40 563.60 144.43 C 563.71 154.97 563.60 165.51 563.68 176.05 C 563.62 179.36 565.45 183.25 569.05 183.77 C 571.65 184.60 574.29 183.60 576.84 183.07 C 576.80 185.47 576.74 187.88 576.59 190.29 C 573.05 191.07 569.43 191.57 565.80 191.30 C 564.04 190.66 562.28 190.04 560.52 189.44 C 556.97 186.35 555.07 181.73 555.28 177.04 C 555.28 166.16 555.31 155.29 555.25 144.41 C 552.25 144.39 549.24 144.40 546.25 144.42 C 546.24 142.05 546.23 139.69 546.21 137.33 C 549.16 137.31 552.14 137.53 555.08 137.09 C 555.51 132.68 555.09 128.24 555.48 123.83 C 557.41 123.45 560.16 123.86 560.04 121.00 Z" />
<path fill="#01a650" opacity="1.00" d=" M 80.57 125.64 C 86.93 125.57 94.23 124.03 99.55 128.48 C 102.78 131.68 103.67 136.58 103.46 140.97 C 103.43 145.67 101.55 150.79 97.30 153.24 C 92.53 156.06 86.78 155.17 81.51 155.41 C 81.32 154.82 80.93 153.63 80.74 153.04 C 80.92 146.03 80.50 139.00 81.13 132.01 C 81.22 129.87 80.79 127.76 80.57 125.64 Z" />
<path fill="#01a650" opacity="1.00" d=" M 341.52 136.83 C 344.18 136.85 346.84 136.85 349.50 136.81 C 349.78 140.55 349.57 144.31 349.95 148.05 C 351.06 143.70 354.10 140.01 357.90 137.70 C 361.15 135.80 365.07 136.47 368.65 136.54 C 368.80 139.63 368.79 142.72 368.72 145.82 C 368.36 145.50 367.64 144.86 367.28 144.54 C 363.59 144.25 359.22 143.41 356.29 146.27 C 351.19 150.20 349.99 156.96 349.76 163.02 C 349.65 172.13 349.88 181.25 349.57 190.37 C 346.89 190.28 344.20 190.23 341.51 190.21 C 341.38 172.42 341.25 154.62 341.52 136.83 Z" />
<path fill="#01a650" opacity="1.00" d=" M 377.30 143.33 C 383.76 136.40 394.21 134.77 403.16 136.57 C 410.17 137.74 416.49 142.56 419.19 149.19 C 422.24 154.99 421.94 161.70 421.68 168.05 C 421.11 177.56 414.88 186.47 405.88 189.81 C 404.28 190.31 402.65 190.71 401.07 191.24 C 394.57 191.87 387.69 191.37 381.93 188.01 C 375.61 184.20 371.27 177.36 370.36 170.05 C 368.78 160.78 370.60 150.28 377.30 143.33 M 390.72 143.92 C 386.11 145.05 382.78 148.69 380.56 152.70 C 377.82 160.64 377.37 170.14 382.24 177.35 C 388.31 186.11 402.58 186.51 409.43 178.46 C 412.31 174.23 413.35 169.02 413.40 163.98 C 413.31 158.26 412.39 152.06 408.21 147.80 C 403.92 142.87 396.66 142.62 390.72 143.92 Z" />
<path fill="#01a650" opacity="1.00" d=" M 465.15 138.10 C 473.29 134.60 484.00 134.98 490.51 141.53 C 496.88 147.70 497.46 157.22 497.37 165.55 C 485.00 165.84 472.62 165.71 460.25 165.60 C 459.73 171.02 461.56 176.70 465.56 180.46 C 472.23 185.70 481.85 184.90 489.07 181.22 C 490.15 180.56 491.25 179.93 492.35 179.30 C 492.61 179.01 493.14 178.43 493.40 178.14 C 493.55 180.88 493.57 183.62 493.58 186.36 C 487.01 190.91 478.69 191.92 470.89 191.29 C 461.50 190.03 453.65 182.39 452.04 173.08 C 450.64 165.10 450.59 156.37 454.42 149.02 C 456.66 144.32 460.73 140.73 465.15 138.10 M 460.69 154.92 C 460.54 156.14 460.39 157.37 460.24 158.60 C 469.67 158.44 479.09 158.60 488.52 158.54 C 488.61 153.78 487.13 148.73 483.40 145.56 C 479.91 142.96 475.25 142.97 471.16 143.76 C 465.93 145.29 462.60 150.08 460.69 154.92 Z" />
<path fill="#01a650" opacity="1.00" d=" M 516.94 138.75 C 524.93 135.01 534.15 135.30 542.43 137.95 C 542.59 140.86 542.60 143.77 542.63 146.69 C 542.20 146.61 541.34 146.44 540.90 146.36 C 534.97 142.30 526.67 142.32 520.37 145.58 C 514.40 150.07 510.89 157.43 511.49 164.93 C 511.14 172.14 515.00 179.39 521.55 182.58 C 527.70 185.26 535.19 184.60 540.66 180.64 C 541.13 180.56 542.07 180.38 542.54 180.29 C 542.53 182.90 542.50 185.51 542.38 188.12 C 535.73 191.03 528.21 192.66 521.08 190.59 C 511.51 188.41 504.36 179.57 503.15 169.99 C 500.99 158.16 505.74 144.37 516.94 138.75 Z" />
<path fill="#01a650" opacity="1.00" d=" M 432.33 137.25 C 435.11 137.29 437.89 137.30 440.68 137.34 C 440.68 155.21 440.76 173.08 440.65 190.95 C 440.57 199.55 437.44 209.27 429.23 213.36 C 424.20 215.12 418.41 215.55 413.42 213.48 C 413.43 210.97 413.43 208.46 413.48 205.96 C 414.35 206.29 416.08 206.95 416.95 207.28 C 420.32 207.78 424.22 208.21 427.02 205.81 C 431.16 202.56 431.96 196.88 432.32 191.96 C 432.40 173.72 432.36 155.49 432.33 137.25 Z" />
</g>
</svg>
