<svg width="40" height="40" viewBox="0 0 40 40" fill="none" xmlns="http://www.w3.org/2000/svg">
<path d="M15.32 17.2241H11.62V20.9241H15.32V17.2241Z" fill="white"/>
<path d="M21.724 17.2241H18.024V20.9241H21.724V17.2241Z" fill="white"/>
<path d="M8.91997 23.136H5.21997V26.836H8.91997V23.136Z" fill="white"/>
<path d="M15.32 23.136H11.62V26.836H15.32V23.136Z" fill="white"/>
<path d="M8.91997 29.0481H5.21997V32.7481H8.91997V29.0481Z" fill="white"/>
<path d="M15.32 29.0481H11.62V32.7481H15.32V29.0481Z" fill="white"/>
<path d="M28.1241 17.2241H24.4241V20.9241H28.1241V17.2241Z" fill="white"/>
<path d="M8.64798 10.66C7.44798 10.66 6.47998 9.688 6.47998 8.492V3.168C6.47998 1.968 7.45198 1 8.64798 1C9.84798 1 10.816 1.972 10.816 3.168V8.492C10.82 9.692 9.84798 10.66 8.64798 10.66Z" fill="white"/>
<path d="M24.42 10.66C23.22 10.66 22.252 9.688 22.252 8.492V3.168C22.252 1.968 23.224 1 24.42 1C25.62 1 26.588 1.972 26.588 3.168V8.492C26.588 9.692 25.616 10.66 24.42 10.66Z" fill="white"/>
<path d="M33.068 15.5719V7.58789C33.068 6.21189 31.948 5.08789 30.568 5.08789H27.836V8.68389C27.836 10.4639 26.388 11.9079 24.612 11.9079H24.228C22.448 11.9079 21.004 10.4599 21.004 8.68389V5.08789H12.068V8.68389C12.068 10.4639 10.62 11.9079 8.84 11.9079H8.456C6.676 11.9079 5.228 10.4599 5.228 8.68389V5.08789H2.5C1.12 5.08789 0 6.21189 0 7.58789V35.6599C0 37.0399 1.12 38.1599 2.5 38.1599H30.572C31.948 38.1599 33.072 37.0399 33.072 35.6599V29.1999L31.072 31.4759V35.6599C31.072 35.9359 30.848 36.1599 30.572 36.1599H2.5C2.22 36.1599 2 35.9359 2 35.6599V14.3599H31.072V17.8439L33.068 15.5719Z" fill="white"/>
<path d="M25.836 35.164L16.24 26.46L20.272 22.02L25.352 26.628L35.496 15.084L40 19.04L25.836 35.164Z" fill="white"/>
</svg>
