<svg width="40" height="40" viewBox="0 0 40 40" fill="none" xmlns="http://www.w3.org/2000/svg">
<path d="M9.152 7.28C8.548 5.384 6.792 4 4.696 4C2.108 4 0 6.108 0 8.696V31.472C0 31.496 0.008 31.52 0.008 31.544C0.008 31.568 0 31.592 0 31.616C0 34.212 2.108 36.32 4.696 36.32H40V7.28H9.152ZM4.696 34.448C3.136 34.448 1.868 33.18 1.868 31.62C1.868 30.064 3.136 28.796 4.696 28.796C6.256 28.796 7.524 30.064 7.524 31.62C7.524 33.18 6.256 34.448 4.696 34.448ZM7.972 28.264C7.124 27.44 5.972 26.924 4.696 26.924C3.424 26.924 2.268 27.436 1.424 28.264V8.696C1.424 6.892 2.892 5.424 4.696 5.424C6.5 5.424 7.972 6.892 7.972 8.696V28.264ZM34.1 28.944C33.94 29.104 33.724 29.196 33.496 29.196H15.276C15.048 29.196 14.832 29.104 14.672 28.944C14.512 28.784 14.42 28.568 14.42 28.34C14.42 28.112 14.512 27.896 14.672 27.736C14.832 27.576 15.048 27.484 15.276 27.484H33.496C33.724 27.484 33.94 27.572 34.1 27.736C34.26 27.896 34.352 28.112 34.352 28.34C34.352 28.568 34.26 28.784 34.1 28.944ZM34.352 18.752C34.352 18.864 34.32 18.976 34.256 19.072C34.192 19.168 34.104 19.24 34 19.284C33.896 19.328 33.78 19.34 33.668 19.316C33.556 19.292 33.456 19.24 33.376 19.16L31.492 17.276L26.368 22.396C26.288 22.476 26.196 22.54 26.092 22.584C25.988 22.628 25.876 22.648 25.764 22.648C25.652 22.648 25.54 22.624 25.436 22.584C25.332 22.54 25.24 22.476 25.16 22.396L21.176 18.412L16.052 22.996C15.968 23.072 15.872 23.128 15.764 23.164C15.66 23.2 15.544 23.216 15.432 23.212C15.32 23.204 15.212 23.176 15.108 23.128C15.008 23.08 14.916 23.012 14.84 22.928C14.764 22.844 14.708 22.748 14.672 22.64C14.636 22.532 14.62 22.42 14.624 22.308C14.632 22.196 14.66 22.088 14.708 21.984C14.756 21.884 14.824 21.792 14.908 21.716L20.6 16.592C20.756 16.44 20.968 16.356 21.188 16.356C21.408 16.356 21.616 16.44 21.776 16.592L25.76 20.584L30.28 16.064L28.4 14.18C28.32 14.1 28.264 14 28.244 13.888C28.22 13.776 28.232 13.664 28.276 13.556C28.32 13.452 28.392 13.364 28.488 13.3C28.584 13.236 28.692 13.204 28.804 13.204H33.78C33.932 13.204 34.076 13.264 34.184 13.372C34.292 13.48 34.352 13.624 34.352 13.776V18.752V18.752Z" fill="white"/>
</svg>
