<svg width="177" height="177" viewBox="0 0 177 177" fill="none" xmlns="http://www.w3.org/2000/svg">
<path d="M75 131H37L56 104L75 131Z" fill="#FEFEFE"/>
<path d="M126 80H88L107 53L126 80Z" fill="#FEFEFE"/>
<path d="M177 27H139L158 0L177 27Z" fill="#FEFEFE"/>
<path d="M44 131H68V153L44 177V131Z" fill="#FEFEFE"/>
<path d="M95 80H119V153L95 177V80Z" fill="#FEFEFE"/>
<path d="M146 26.5H170V153L146 177V26.5Z" fill="#FEFEFE"/>
<path d="M24 153H68L44 177H0L24 153Z" fill="#FEFEFE"/>
<path d="M75 153H119L95 177H51L75 153Z" fill="#FEFEFE"/>
<path d="M126 153H170L146 177H102L126 153Z" fill="#FEFEFE"/>
</svg>
