<svg width="40" height="40" viewBox="0 0 40 40" fill="none" xmlns="http://www.w3.org/2000/svg">
<path d="M22.892 34.2V28.416H5.256H0V33.948C0 37.264 2.688 39.956 6.008 39.956H25.56C23.928 38.572 22.892 36.508 22.892 34.2Z" fill="white"/>
<path d="M34.664 3.216C35.192 3.216 35.704 3.276 36.196 3.388V3.004C36.196 1.344 34.852 0 33.192 0H10.06C8.40003 0 7.05603 1.344 7.05603 3.004V26.612H24.696V34.204C24.696 37.38 27.272 39.956 30.448 39.956C33.624 39.956 36.2 37.38 36.2 34.204V26.612V23.236V21.232L34.668 18.484L30.984 25.088L30.124 20.1L25.428 21.984L29.304 15.044C28.176 13.756 27.536 12.088 27.536 10.352C27.524 6.416 30.728 3.216 34.664 3.216ZM18.756 17.556H11.384C10.888 17.556 10.484 17.152 10.484 16.656C10.484 16.16 10.888 15.756 11.384 15.756H18.76C19.256 15.756 19.66 16.16 19.66 16.656C19.66 17.148 19.252 17.556 18.756 17.556ZM24.66 14.296H11.384C10.888 14.296 10.484 13.892 10.484 13.396C10.484 12.9 10.888 12.496 11.384 12.496H24.66C25.156 12.496 25.56 12.9 25.56 13.396C25.56 13.892 25.156 14.296 24.66 14.296ZM10.48 10.136C10.48 9.64 10.884 9.236 11.38 9.236H18.756C19.252 9.236 19.656 9.64 19.656 10.136C19.656 10.632 19.252 11.036 18.756 11.036H11.384C10.888 11.036 10.48 10.632 10.48 10.136ZM24.66 7.776H11.384C10.888 7.776 10.484 7.372 10.484 6.876C10.484 6.38 10.888 5.976 11.384 5.976H24.66C25.156 5.976 25.56 6.38 25.56 6.876C25.56 7.372 25.156 7.776 24.66 7.776Z" fill="white"/>
<path d="M34.664 12.1681C35.667 12.1681 36.48 11.3551 36.48 10.3521C36.48 9.34918 35.667 8.53613 34.664 8.53613C33.6611 8.53613 32.848 9.34918 32.848 10.3521C32.848 11.3551 33.6611 12.1681 34.664 12.1681Z" fill="white"/>
<path d="M39.9998 10.3519C39.9998 7.40787 37.6078 5.01587 34.6638 5.01587C31.7198 5.01587 29.3278 7.40787 29.3278 10.3519C29.3278 12.1359 30.2118 13.7159 31.5598 14.6839L29.4798 18.4119L31.5158 17.5919L31.8878 19.7559L34.1758 15.6599C34.3358 15.6759 34.4998 15.6839 34.6638 15.6839C34.8278 15.6839 34.9918 15.6719 35.1518 15.6599L37.4398 19.7599L37.8118 17.5959L39.8478 18.4159L37.7638 14.6879C39.1158 13.7159 39.9998 12.1359 39.9998 10.3519ZM34.6638 6.81987C36.6118 6.81987 38.1958 8.40387 38.1958 10.3519C38.1958 12.2999 36.6118 13.8839 34.6638 13.8839C32.7158 13.8839 31.1318 12.2999 31.1318 10.3519C31.1318 8.40387 32.7158 6.81987 34.6638 6.81987Z" fill="white"/>
</svg>
