<svg width="40" height="40" viewBox="0 0 40 40" fill="none" xmlns="http://www.w3.org/2000/svg">
<path fill-rule="evenodd" clip-rule="evenodd" d="M0 2.86064V36.364H15.7561C15.7561 35.822 15.7749 35.2799 15.8126 34.7492H1.66369V3.38007C1.66369 2.40519 2.45413 1.61852 3.42524 1.61852H18.564V10.9118H27.4282V14.5479H29.0919V10.0988L19.3921 0H2.86064C1.27976 0 0 1.27976 0 2.86064ZM20.224 3.23327L26.0393 9.29331H20.224V3.23327Z" fill="white"/>
<path d="M15.7561 20.604C16.3546 20.0356 16.987 19.4974 17.6457 18.9893H10.3887V20.604H15.7561Z" fill="white"/>
<path d="M14.3635 27.0706C14.4463 26.8748 14.5328 26.6829 14.6194 26.4909C14.7022 26.3102 14.7888 26.1333 14.8754 25.9564C14.9582 25.7908 15.041 25.6214 15.1275 25.4558H10.3887V27.0706H14.3635Z" fill="white"/>
<path d="M8.31097 19.7986C8.31097 20.9165 7.38126 21.8199 6.23324 21.8199C5.08522 21.8199 4.15552 20.9165 4.15552 19.7986C4.15552 19.0232 4.6072 18.3495 5.2659 18.0107C5.35247 17.9655 5.4428 17.9279 5.5369 17.894C5.75522 17.8187 5.98858 17.7773 6.23324 17.7773C7.0538 17.7773 7.76143 18.2403 8.10019 18.9103C8.23569 19.1776 8.31097 19.4787 8.31097 19.7986Z" fill="white"/>
<path d="M6.74138 28.2224C6.57953 28.2601 6.41015 28.2827 6.23324 28.2827C5.59713 28.2827 5.02877 28.0041 4.6486 27.5713C4.58838 27.4998 4.53192 27.4245 4.47922 27.3454C4.43029 27.2701 4.38512 27.1911 4.34748 27.1121C4.22327 26.8523 4.15552 26.5663 4.15552 26.2652C4.15552 25.1473 5.08522 24.2439 6.23324 24.2439C7.38126 24.2439 8.31097 25.1473 8.31097 26.2652C8.31097 26.4195 8.29215 26.5663 8.25828 26.7093C8.2244 26.8523 8.17923 26.9878 8.11524 27.1158C7.93457 27.4998 7.62969 27.8159 7.25705 28.0229C7.09896 28.1095 6.92582 28.1773 6.74138 28.2224Z" fill="white"/>
<path fill-rule="evenodd" clip-rule="evenodd" d="M9.09005 5.99976C6.24446 5.99976 3.93713 8.30709 3.93713 11.1489C3.93713 13.9945 6.24446 16.3018 9.09005 16.3018C11.9356 16.3018 14.243 13.9945 14.243 11.1489C14.243 8.30709 11.9356 5.99976 9.09005 5.99976ZM9.72616 14.6231V15.7711H8.41629V14.7134C8.17163 14.6946 7.92697 14.6532 7.69737 14.5967C7.53552 14.5553 7.37743 14.5064 7.2344 14.4499C7.05749 14.3822 6.8994 14.3031 6.76766 14.2166L6.63968 14.13L7.0462 12.7072L7.28333 12.8465C7.76136 13.1288 8.33348 13.2906 8.85291 13.2906C9.12392 13.2906 9.346 13.2342 9.50785 13.1325C9.68099 13.0196 9.78262 12.8578 9.78262 12.6545C9.78262 12.5491 9.7638 12.44 9.68099 12.3233C9.62453 12.2405 9.5342 12.1577 9.40246 12.0711C9.2519 11.9732 9.04111 11.8716 8.75129 11.7662C7.76135 11.4086 6.74884 10.8741 6.74884 9.63954C6.74884 8.64585 7.40754 7.88928 8.48404 7.6371V6.54177H9.79015V7.55052C9.95577 7.56181 10.1176 7.5844 10.2719 7.61451C10.5844 7.67473 10.8779 7.77636 11.1602 7.9194L11.3183 7.99844L10.9081 9.39112L10.6258 9.26314C10.3736 9.14269 9.94447 8.9432 9.30836 8.9432C8.80398 8.9432 8.4991 9.14269 8.4991 9.48145C8.4991 9.77881 8.7814 9.98583 9.66594 10.3434C10.9833 10.8365 11.5442 11.4914 11.5442 12.5303C11.5442 13.5692 10.8365 14.3747 9.72616 14.6231Z" fill="white"/>
<path fill-rule="evenodd" clip-rule="evenodd" d="M28.486 16.968C22.1248 16.968 16.9719 22.1247 16.9719 28.4821C16.9719 34.8432 22.1286 39.9962 28.486 39.9962C34.8471 39.9962 40.0001 34.8395 40.0001 28.4821C40.0001 22.1247 34.8434 16.968 28.486 16.968ZM27.1573 29.0128C26.5852 29.4607 25.7872 29.6866 24.7747 29.6866H23.2277V32.4795H21.4624V24.5525H24.801C25.4447 24.5525 26.0093 24.6616 26.4986 24.8799C26.9879 25.0983 27.3606 25.4069 27.624 25.8096C27.8875 26.2124 28.0193 26.6678 28.0193 27.1797C28.0193 27.9514 27.7294 28.5649 27.1573 29.0128ZM36.2586 28.6929C36.2586 29.472 36.1081 30.1571 35.8107 30.7442C35.5134 31.3314 35.088 31.7869 34.531 32.1068C33.9777 32.4268 33.3415 32.5848 32.6226 32.5848C31.915 32.5848 31.2789 32.4268 30.7218 32.1106C30.1647 31.7944 29.7356 31.3427 29.427 30.7593C29.1221 30.1721 28.9678 29.4984 28.964 28.738V28.3466C28.964 27.5674 29.1146 26.8786 29.4195 26.2877C29.7243 25.693 30.1534 25.2375 30.7068 24.9213C31.2601 24.6052 31.8962 24.4433 32.6076 24.4433C33.319 24.4433 33.9551 24.6014 34.5084 24.9213C35.0617 25.2375 35.4908 25.693 35.7957 26.2877C36.1006 26.8824 36.2511 27.5674 36.2511 28.3428V28.6929H36.2586Z" fill="white"/>
<path fill-rule="evenodd" clip-rule="evenodd" d="M32.6152 25.791C32.0242 25.791 31.565 26.0056 31.2451 26.4309C30.9251 26.8562 30.7595 27.4811 30.7557 28.3054V28.6931C30.7557 29.5023 30.9176 30.1309 31.2375 30.5788C31.5575 31.0267 32.0204 31.2488 32.6264 31.2488C33.2174 31.2488 33.6728 31.0343 33.989 30.6052C34.3052 30.1761 34.467 29.5475 34.4708 28.7232V28.3355C34.4708 27.5036 34.309 26.8713 33.989 26.4422C33.6691 26.0093 33.2099 25.791 32.6152 25.791Z" fill="white"/>
<path fill-rule="evenodd" clip-rule="evenodd" d="M24.8424 25.8738H23.2239V28.3618H24.801C25.2677 28.3618 25.6215 28.2602 25.87 28.0569C26.1146 27.8536 26.2388 27.5638 26.2388 27.1837C26.2388 26.796 26.1146 26.4798 25.87 26.2427C25.6178 26.0055 25.279 25.8813 24.8424 25.8738Z" fill="white"/>
</svg>
