<svg width="40" height="40" viewBox="0 0 40 40" fill="none" xmlns="http://www.w3.org/2000/svg">
<path fill-rule="evenodd" clip-rule="evenodd" d="M36.501 8.39286H23.9296C23.0617 8.39286 22.3581 7.6893 22.3581 6.82143V5.64286C22.3581 3.9071 20.951 2.5 19.2153 2.5H5.07242C3.33667 2.5 1.92957 3.90711 1.92957 5.64286V32.3571C1.92957 34.0929 3.33667 35.5 5.07242 35.5H34.9296C36.6653 35.5 38.0724 34.0929 38.0724 32.3571V8C38.0724 6.26425 36.6653 4.85714 34.9296 4.85714H24.7153V6.42857H34.9296C35.7974 6.42857 36.501 7.13212 36.501 8V8.39286ZM20.001 13.5C17.8313 13.5 16.0724 15.2589 16.0724 17.4286C16.0724 19.5983 17.8313 21.3571 20.001 21.3571C22.1707 21.3571 23.9296 19.5983 23.9296 17.4286C23.9296 15.2589 22.1707 13.5 20.001 13.5ZM20.001 22.1429C16.1365 22.1429 12.9296 25.274 12.9296 29.1571C12.9296 29.6226 13.3069 30 13.7724 30H26.2296C26.6951 30 27.0724 29.6226 27.0724 29.1571C27.0724 25.274 23.8655 22.1429 20.001 22.1429ZM9.00099 17.8214C9.00099 16.3026 10.2322 15.0714 11.751 15.0714C13.2698 15.0714 14.501 16.3026 14.501 17.8214C14.501 19.3402 13.2698 20.5714 11.751 20.5714C10.2322 20.5714 9.00099 19.3402 9.00099 17.8214ZM28.251 15.0714C29.7698 15.0714 31.001 16.3026 31.001 17.8214C31.001 19.3402 29.7698 20.5714 28.251 20.5714C26.7322 20.5714 25.501 19.3402 25.501 17.8214C25.501 16.3026 26.7322 15.0714 28.251 15.0714ZM8.30289 25.6786C8.66018 24.104 10.0683 22.9286 11.751 22.9286C12.6065 22.9286 13.3891 23.2314 14.0007 23.7365L15.0013 22.5248C14.1186 21.7958 12.985 21.3571 11.751 21.3571C8.9304 21.3571 6.64385 23.6437 6.64385 26.4643V27.25H12.9296V25.6786H8.30289ZM31.6991 25.6786C31.3418 24.104 29.9337 22.9286 28.251 22.9286C27.3955 22.9286 26.6129 23.2314 26.0013 23.7365L25.0007 22.5248C25.8834 21.7958 27.017 21.3571 28.251 21.3571C31.0716 21.3571 33.3581 23.6437 33.3581 26.4643V27.25H27.0724V25.6786H31.6991Z" fill="white"/>
</svg>
