<svg width="40" height="40" viewBox="0 0 40 40" fill="none" xmlns="http://www.w3.org/2000/svg">
<path d="M19.3937 20.259L9.68494 15.0242V25.3664L19.3937 30.7577V20.259Z" fill="white"/>
<path d="M20.2016 18.8573L29.8048 13.6771L20.2016 8.34399L10.5984 13.6771L20.2016 18.8573Z" fill="white"/>
<path d="M21.0098 20.259V30.7577L30.7185 25.3664V15.0242L21.0098 20.259Z" fill="white"/>
<path d="M8.06844 25.5952V13.2326L19.3935 6.94212V0L2 9.66145V28.9625L8.06844 25.5952Z" fill="white"/>
<path d="M21.01 6.94212L32.3351 13.2326V25.6025L38.4035 28.9625V9.66145L21.01 0V6.94212Z" fill="white"/>
<path d="M31.3121 26.884L20.2018 33.058L9.08419 26.8804L2.83374 30.3496L20.2018 40.0001L37.5698 30.3496L31.3121 26.884Z" fill="white"/>
</svg>
