<svg width="40" height="40" viewBox="0 0 40 40" fill="none" xmlns="http://www.w3.org/2000/svg">
<path d="M9.51957 5.13892H0.955089C0.429007 5.13892 0 5.56792 0 6.09714V35.2727C0 35.802 0.429007 36.2278 0.955089 36.2278H9.51957C10.0488 36.2278 10.4747 35.7988 10.4747 35.2727V6.09714C10.4747 5.56792 10.0457 5.13892 9.51957 5.13892ZM5.23577 33.8605C3.92996 33.8605 2.87153 32.802 2.87153 31.4962C2.87153 30.1904 3.92996 29.132 5.23577 29.132C6.54158 29.132 7.6 30.1904 7.6 31.4962C7.6 32.802 6.54471 33.8605 5.23577 33.8605ZM8.61772 22.1458C8.61772 22.2835 8.50499 22.3931 8.3672 22.3931H2.10746C1.96968 22.3931 1.85694 22.2804 1.85694 22.1458V8.00731C1.85694 7.86953 1.96968 7.7568 2.10746 7.7568H3.17215L5.00091 9.58556C5.13243 9.71708 5.34537 9.71708 5.47689 9.58556L7.30252 7.75993H8.3672C8.50499 7.75993 8.61772 7.87266 8.61772 8.01045V22.1458Z" fill="white"/>
<path d="M7.60305 12.0625H2.87145C2.61154 12.0625 2.40173 11.8527 2.40173 11.5928C2.40173 11.3329 2.61154 11.123 2.87145 11.123H7.60305C7.86296 11.123 8.07277 11.3329 8.07277 11.5928C8.07277 11.8527 7.86296 12.0625 7.60305 12.0625Z" fill="white"/>
<path d="M7.60305 14.1482H2.87145C2.61154 14.1482 2.40173 13.9384 2.40173 13.6785C2.40173 13.4185 2.61154 13.2087 2.87145 13.2087H7.60305C7.86296 13.2087 8.07277 13.4185 8.07277 13.6785C8.07277 13.9384 7.86296 14.1482 7.60305 14.1482Z" fill="white"/>
<path d="M7.60305 16.2368H2.87145C2.61154 16.2368 2.40173 16.027 2.40173 15.7671C2.40173 15.5072 2.61154 15.2974 2.87145 15.2974H7.60305C7.86296 15.2974 8.07277 15.5072 8.07277 15.7671C8.07277 16.027 7.86296 16.2368 7.60305 16.2368Z" fill="white"/>
<path d="M7.60305 18.3254H2.87145C2.61154 18.3254 2.40173 18.1156 2.40173 17.8557C2.40173 17.5958 2.61154 17.386 2.87145 17.386H7.60305C7.86296 17.386 8.07277 17.5958 8.07277 17.8557C8.07277 18.1156 7.86296 18.3254 7.60305 18.3254Z" fill="white"/>
<path d="M7.60305 20.4111H2.87145C2.61154 20.4111 2.40173 20.2013 2.40173 19.9414C2.40173 19.6815 2.61154 19.4717 2.87145 19.4717H7.60305C7.86296 19.4717 8.07277 19.6815 8.07277 19.9414C8.07277 20.2013 7.86296 20.4111 7.60305 20.4111Z" fill="white"/>
<path d="M21.7322 5.13892H13.1677C12.6417 5.13892 12.2126 5.56792 12.2126 6.09714V35.2727C12.2126 35.802 12.6417 36.2278 13.1677 36.2278H21.7322C22.2614 36.2278 22.6873 35.7988 22.6873 35.2727V6.09714C22.6873 5.56792 22.2583 5.13892 21.7322 5.13892ZM17.4484 33.8605C16.1426 33.8605 15.0842 32.802 15.0842 31.4962C15.0842 30.1904 16.1426 29.132 17.4484 29.132C18.7542 29.132 19.8126 30.1904 19.8126 31.4962C19.8126 32.802 18.7574 33.8605 17.4484 33.8605ZM20.8304 22.1458C20.8304 22.2835 20.7176 22.3931 20.5799 22.3931H14.3201C14.1823 22.3931 14.0696 22.2804 14.0696 22.1458V8.00731C14.0696 7.86953 14.1823 7.7568 14.3201 7.7568H15.3848L17.2136 9.58556C17.3451 9.71708 17.558 9.71708 17.6895 9.58556L19.5152 7.75993H20.5799C20.7176 7.75993 20.8304 7.87266 20.8304 8.01045V22.1458Z" fill="white"/>
<path d="M19.8157 12.0625H15.0841C14.8242 12.0625 14.6144 11.8527 14.6144 11.5928C14.6144 11.3329 14.8242 11.123 15.0841 11.123H19.8157C20.0756 11.123 20.2854 11.3329 20.2854 11.5928C20.2854 11.8527 20.0756 12.0625 19.8157 12.0625Z" fill="white"/>
<path d="M19.8157 14.1482H15.0841C14.8242 14.1482 14.6144 13.9384 14.6144 13.6785C14.6144 13.4185 14.8242 13.2087 15.0841 13.2087H19.8157C20.0756 13.2087 20.2854 13.4185 20.2854 13.6785C20.2854 13.9384 20.0756 14.1482 19.8157 14.1482Z" fill="white"/>
<path d="M19.8157 16.2368H15.0841C14.8242 16.2368 14.6144 16.027 14.6144 15.7671C14.6144 15.5072 14.8242 15.2974 15.0841 15.2974H19.8157C20.0756 15.2974 20.2854 15.5072 20.2854 15.7671C20.2854 16.027 20.0756 16.2368 19.8157 16.2368Z" fill="white"/>
<path d="M19.8157 18.3254H15.0841C14.8242 18.3254 14.6144 18.1156 14.6144 17.8557C14.6144 17.5958 14.8242 17.386 15.0841 17.386H19.8157C20.0756 17.386 20.2854 17.5958 20.2854 17.8557C20.2854 18.1156 20.0756 18.3254 19.8157 18.3254Z" fill="white"/>
<path d="M19.8157 20.4111H15.0841C14.8242 20.4111 14.6144 20.2013 14.6144 19.9414C14.6144 19.6815 14.8242 19.4717 15.0841 19.4717H19.8157C20.0756 19.4717 20.2854 19.6815 20.2854 19.9414C20.2854 20.2013 20.0756 20.4111 19.8157 20.4111Z" fill="white"/>
<path d="M39.9792 33.3124L33.9794 4.75994C33.8698 4.24326 33.3656 3.91132 32.8489 4.02092L24.4692 5.78392C23.9525 5.89352 23.6206 6.39769 23.7302 6.91437L29.73 35.4668C29.8396 35.9835 30.3438 36.3154 30.8604 36.2058L39.2402 34.446C39.7569 34.3364 40.0888 33.8291 39.9792 33.3124ZM29.1444 22.4338C29.0098 22.462 28.8782 22.3774 28.8501 22.2428L25.9409 8.40494C25.9128 8.27029 25.9973 8.13877 26.132 8.11058L27.1716 7.89138L29.3354 9.30366C29.492 9.407 29.7018 9.36316 29.802 9.20659L31.2143 7.04276L32.2539 6.82356C32.3886 6.79538 32.5201 6.87993 32.5483 7.01458L35.4574 20.8524C35.4856 20.9871 35.401 21.1186 35.2664 21.1468L29.1444 22.4338ZM34.5649 33.0086C33.2873 33.278 32.0316 32.4575 31.7623 31.1799C31.493 29.9023 32.3134 28.6466 33.5911 28.3773C34.8687 28.1079 36.1244 28.9284 36.3937 30.206C36.663 31.4868 35.8426 32.7425 34.5649 33.0086Z" fill="white"/>
<path d="M27.6694 12.175C27.4533 12.175 27.256 12.0215 27.2091 11.8023C27.1558 11.5487 27.3187 11.2982 27.5723 11.2449L32.2006 10.2711C32.4542 10.2178 32.7047 10.3807 32.758 10.6343C32.8112 10.888 32.6484 11.1385 32.3947 11.1917L27.7665 12.1656C27.7351 12.1687 27.7007 12.175 27.6694 12.175Z" fill="white"/>
<path d="M28.0985 14.217C27.8824 14.217 27.6851 14.0635 27.6381 13.8443C27.5849 13.5907 27.7477 13.3402 28.0014 13.2869L32.6296 12.3131C32.8833 12.2598 33.1338 12.4227 33.187 12.6763C33.2403 12.93 33.0774 13.1805 32.8238 13.2337L28.1955 14.2076C28.1642 14.2138 28.1298 14.217 28.0985 14.217Z" fill="white"/>
<path d="M28.5274 16.2585C28.3113 16.2585 28.1141 16.105 28.0671 15.8858C28.0139 15.6322 28.1767 15.3817 28.4303 15.3284L33.0586 14.3546C33.3123 14.3013 33.5628 14.4642 33.616 14.7178C33.6692 14.9715 33.5064 15.222 33.2528 15.2752L28.6245 16.2491C28.5932 16.2553 28.5619 16.2585 28.5274 16.2585Z" fill="white"/>
<path d="M28.9564 18.3034C28.7403 18.3034 28.543 18.15 28.496 17.9308C28.4428 17.6771 28.6056 17.4266 28.8593 17.3734L33.4876 16.3995C33.7412 16.3463 33.9917 16.5091 34.045 16.7627C34.0982 17.0164 33.9354 17.2669 33.6817 17.3201L29.0534 18.294C29.0221 18.3003 28.9908 18.3034 28.9564 18.3034Z" fill="white"/>
<path d="M29.3885 20.3452C29.1724 20.3452 28.9751 20.1917 28.9282 19.9725C28.8749 19.7189 29.0378 19.4683 29.2914 19.4151L33.9197 18.4412C34.1733 18.388 34.4239 18.5508 34.4771 18.8045C34.5303 19.0581 34.3675 19.3086 34.1138 19.3619L29.4856 20.3358C29.4511 20.342 29.4198 20.3452 29.3885 20.3452Z" fill="white"/>
</svg>
