<svg width="40" height="40" viewBox="0 0 40 40" fill="none" xmlns="http://www.w3.org/2000/svg">
<path d="M0.966553 39.007H15.025V24.9485H8.49198C8.49198 24.9358 8.49835 24.9294 8.49835 24.9167V17.633L10.7502 19.4714C10.9665 19.6495 11.2846 19.6177 11.4564 19.4014C11.6345 19.1851 11.6027 18.8671 11.3864 18.6953L8.31387 16.189C8.12939 16.0363 7.86221 16.0363 7.67774 16.189L4.60522 18.6953C4.38894 18.8734 4.35713 19.1851 4.53525 19.4014C4.63703 19.5223 4.78334 19.5859 4.92329 19.5859C5.03779 19.5859 5.14593 19.5477 5.24135 19.4714L7.49326 17.633V24.9167C7.49326 24.9294 7.49962 24.9358 7.49962 24.9485H0.966553V39.007Z" fill="white"/>
<path d="M39.1276 39.0075H25.0691V24.949H31.6022C31.6022 24.9363 31.5958 24.93 31.5958 24.9172H32.6009C32.6009 24.93 32.5945 24.9363 32.5945 24.949H39.1276V39.0075Z" fill="white"/>
<path d="M20.6043 11.4759C20.6997 11.5523 20.8079 11.5904 20.9224 11.5904C21.0687 11.5904 21.215 11.5268 21.3104 11.406L23.8168 8.33345C23.9694 8.14897 23.9694 7.8818 23.8168 7.69732L21.3104 4.62481C21.1323 4.40852 20.8142 4.37672 20.6043 4.55483C20.388 4.73295 20.3562 5.04465 20.5343 5.26094L22.3727 7.51284H15.9542C15.6806 3.34618 12.2264 0.0510254 7.98981 0.0510254C3.57506 0.0510254 0 3.62608 0 8.04083C0 12.4556 3.57506 16.0306 7.98981 16.0306C12.2392 16.0306 15.7061 12.71 15.9542 8.51793H22.36L20.5216 10.7698C20.3562 10.9798 20.388 11.2978 20.6043 11.4759Z" fill="white"/>
<path d="M23.9309 8.03434L31.4563 15.5598V22.3664L29.2044 20.5279C28.9882 20.3498 28.6701 20.3816 28.4983 20.5979C28.3202 20.8142 28.352 21.1323 28.5683 21.304L31.6408 23.8104C31.7362 23.8867 31.8444 23.9249 31.9589 23.9249C32.0734 23.9249 32.1879 23.8867 32.277 23.8104L35.3495 21.304C35.5658 21.1259 35.5976 20.8142 35.4194 20.5979C35.2413 20.3816 34.9233 20.3498 34.7133 20.5279L32.4614 22.3664V15.5725L39.9996 8.03434L31.9652 0L23.9309 8.03434Z" fill="white"/>
</svg>
