<svg id="Capa_1" enable-background="new 0 0 520 520" height="512" viewBox="0 0 520 520" width="512" xmlns="http://www.w3.org/2000/svg"><g><path d="m430 45h-219.002c-5.428 0-10.433 2.933-13.086 7.669s-2.541 10.536.294 15.165l48.992 80c2.727 4.452 7.571 7.166 12.792 7.166h200.01c8.284 0 15-6.716 15-15v-50c0-24.813-20.187-45-45-45z" fill="#ffb300"/><path d="m475 125.016h-206.597l-56.861-92.85c-2.727-4.452-7.571-7.166-12.792-7.166h-153.75c-24.813 0-45 20.187-45 45v380c0 24.813 20.187 45 45 45h430c24.813 0 45-20.187 45-45v-279.984c0-24.813-20.187-45-45-45z" fill="#fdd835"/><path d="m430 45h-170v110h200c8.284 0 15-6.716 15-15v-50c0-24.813-20.187-45-45-45z" fill="#ff8f00"/><path d="m475 125.016h-206.597l-8.403-13.722v383.706h215c24.813 0 45-20.187 45-45v-279.984c0-24.813-20.187-45-45-45z" fill="#fbc02d"/></g></svg>