<svg width="30" height="30" viewBox="0 0 30 30" fill="none" xmlns="http://www.w3.org/2000/svg">
<g clip-path="url(#clip0_2755_14394)">
<path d="M8.03034 11.6401H8.27034C9.19434 11.6401 9.95034 12.3961 9.95034 13.3201V21.7201C9.95034 22.6441 9.19434 23.4001 8.27034 23.4001H8.03034C7.10634 23.4001 6.35034 22.6441 6.35034 21.7201V13.3201C6.35034 12.3961 7.10634 11.6401 8.03034 11.6401V11.6401ZM14.7503 6.6001C15.6743 6.6001 16.4303 7.3561 16.4303 8.2801V21.7201C16.4303 22.6441 15.6743 23.4001 14.7503 23.4001C13.8263 23.4001 13.0703 22.6441 13.0703 21.7201V8.2801C13.0703 7.3561 13.8263 6.6001 14.7503 6.6001ZM21.4703 16.2001C22.3943 16.2001 23.1503 16.9561 23.1503 17.8801V21.7201C23.1503 22.6441 22.3943 23.4001 21.4703 23.4001C20.5463 23.4001 19.7903 22.6441 19.7903 21.7201V17.8801C19.7903 16.9561 20.5463 16.2001 21.4703 16.2001V16.2001Z" fill="#8B5CF6"/>
</g>
<defs>
<clipPath id="clip0_2755_14394">
<rect width="28.8" height="28.8" fill="white" transform="translate(0.350342 0.600098)"/>
</clipPath>
</defs>
</svg>
