<svg width="42" height="54" viewBox="0 0 42 54" fill="none" xmlns="http://www.w3.org/2000/svg">
<g clip-path="url(#clip0_4886_33767)">
<path d="M30.1831 35.7727C30.757 35.1067 31.3467 34.4249 32.0386 33.9155C32.7147 33.414 33.5324 33.0457 34.3265 32.6931C35.5373 32.1524 36.6773 31.643 37.3456 30.7027C37.9745 29.8093 38.0846 28.5947 38.1947 27.3017C38.2733 26.4084 38.3519 25.4915 38.6114 24.6452C38.8787 23.7989 39.3347 22.9917 39.775 22.2159C40.4197 21.0875 41.0251 20.0218 41.0094 18.9325C40.9936 17.7806 40.3411 16.7148 39.6492 15.5864C39.1932 14.8498 38.7293 14.0818 38.4541 13.2904C38.179 12.4832 38.0768 11.5821 37.9824 10.7122C37.8409 9.40357 37.6994 8.17327 37.0232 7.26426C36.3549 6.37092 35.207 5.88507 33.9963 5.38355C33.1865 5.03875 32.3452 4.68611 31.6297 4.19243C30.9536 3.71441 30.3639 3.064 29.79 2.42926C28.933 1.4889 28.0524 0.509362 26.9203 0.164565C25.7881 -0.188069 24.5066 0.117547 23.2643 0.415327C22.4309 0.611234 21.5661 0.822815 20.7406 0.830651C19.8757 0.830651 18.9794 0.658252 18.1146 0.478017C17.289 0.305618 16.495 0.148892 15.748 0.148892C15.3313 0.148892 14.9304 0.203746 14.553 0.329127C13.4759 0.697434 12.666 1.63779 11.8091 2.633C11.2351 3.29909 10.6455 3.98085 9.95358 4.49021C9.27743 4.99173 8.45976 5.36004 7.66567 5.71267C6.45489 6.25338 5.31487 6.76274 4.64658 7.70309C4.0176 8.59643 3.90753 9.81106 3.79746 11.1041C3.71884 11.9974 3.64021 12.9142 3.38076 13.7606C3.11345 14.6069 2.65744 15.414 2.21715 16.1898C1.57245 17.3182 0.967058 18.3761 0.982783 19.4732C0.998507 20.6252 1.65107 21.6909 2.34295 22.8193C2.79896 23.5559 3.26283 24.3239 3.53801 25.1154C3.81318 25.9225 3.91539 26.8237 4.00974 27.6935C4.15126 29.0022 4.29278 30.2325 4.96893 31.1415C5.63722 32.0348 6.7851 32.5207 7.99589 33.0222C8.8057 33.367 9.64695 33.7196 10.3624 34.2133C11.0386 34.6913 11.6282 35.3418 12.2022 35.9765C13.0592 36.9168 13.9397 37.8964 15.0719 38.2412C16.204 38.5938 17.4856 38.2882 18.7278 37.9904C19.5612 37.7945 20.4261 37.5908 21.2516 37.5751C22.1164 37.5751 23.0127 37.7475 23.8776 37.9277C25.1591 38.1942 26.3778 38.4371 27.4392 38.0766C28.5163 37.7083 29.3261 36.768 30.1831 35.7727ZM21 32.889C13.4287 32.889 7.2647 26.7453 7.2647 19.199C7.2647 11.6526 13.4287 5.50893 21 5.50893C28.5713 5.50893 34.7353 11.6526 34.7353 19.199C34.7353 26.7453 28.5713 32.889 21 32.889Z" fill="#9CA3AF"/>
<path d="M21 6.79408C14.1363 6.79408 8.55408 12.3579 8.55408 19.199C8.55408 26.0401 14.1363 31.6038 21 31.6038C27.8637 31.6038 33.4459 26.0401 33.4459 19.199C33.4459 12.3579 27.8637 6.79408 21 6.79408Z" fill="#9CA3AF"/>
<path d="M14.4979 39.7066C12.8547 39.1972 11.6911 37.9199 10.7555 36.8855C10.2445 36.3291 9.72557 35.7571 9.23811 35.4044C8.70348 35.0283 7.96443 34.7148 7.24897 34.4171C6.92662 34.2838 6.58854 34.1428 6.25833 33.9861L0 49.0788L7.24897 48.4362L11.927 53.9922L17.8237 39.7849C17.2969 39.879 16.7544 39.9495 16.1962 39.9495C15.5829 39.9495 15.0326 39.8711 14.4979 39.7066Z" fill="#9CA3AF"/>
<path d="M35.1206 34.0801C34.4208 34.3936 33.7054 34.7149 33.2022 35.0832C32.6912 35.4593 32.1801 36.0549 31.6769 36.6347C30.7177 37.7475 29.6406 38.9935 28.0603 39.5263C27.4942 39.7144 26.8967 39.8084 26.2284 39.8084C25.4972 39.8084 24.7582 39.6909 24.0742 39.5577L30.0652 53.9922L34.7432 48.4362L41.9922 49.0788L35.6631 33.8293C35.4744 33.9155 35.2936 33.9939 35.1127 34.0801H35.1206Z" fill="#9CA3AF"/>
<g clip-path="url(#clip1_4886_33767)">
<path d="M22.5808 25.0083L21.2649 21.7109L21.2599 21.6987L19.0633 16.1948L18.4977 14.7774L18.0925 13.7616H15.8173L13.1683 20.3448L12.5399 21.9067L12.5284 21.9354L12.5267 21.9385L11.7436 23.8852L11.4847 24.5289L11.2823 25.0313H14.3854L14.7941 23.9163L14.9821 23.4038H18.9053L19.4522 25.0167L19.4572 25.0313H22.59L22.5808 25.0083ZM16.936 17.2705H16.9811L17.2117 18.0343L17.2464 18.1493L17.5118 19.0278L18.1446 21.1211H15.7725L16.936 17.2705Z" fill="white"/>
<path d="M15.8633 21.133L15.7725 23.4038H18.9052L18.1446 21.121L15.8633 21.133Z" fill="white"/>
<path d="M16.9849 17.2705L18.096 13.7616L19.8867 18.2483L17.5158 19.0278L16.9849 17.2705Z" fill="white"/>
<path fill-rule="evenodd" clip-rule="evenodd" d="M28.8914 13.7059L28.8855 13.7164L28.8673 13.7498L27.4639 16.3128L26.2605 18.5106L25.7282 19.4829L25.7275 19.4844L28.5281 24.5804L28.7916 25.0642L26.6676 25.067L26.3233 24.4762H25.3123L24.1061 22.3466L22.6232 24.9631L22.6103 24.9861L22.5907 25.0205V25.0207L19.468 25.0205L19.4947 24.9718V24.9716L21.3024 21.6535L22.4841 19.4844L19.882 14.7513L19.8391 14.6737L19.3102 13.7117L22.6329 13.6819L23.0527 14.4948L24.1059 16.5333L24.1061 16.5335L25.5685 13.7059H26.9271L26.6537 14.1387L27.2807 14.1382L27.541 13.7164L27.5474 13.7059H28.8914Z" fill="white"/>
<path fill-rule="evenodd" clip-rule="evenodd" d="M19.8391 14.6737L22.4977 19.4867L24.1059 16.5333L23.0527 14.4948L19.8391 14.6737Z" fill="white"/>
<path fill-rule="evenodd" clip-rule="evenodd" d="M19.468 25.0205H22.5907L26.2605 18.5106L23.0372 18.5109L19.468 25.0205Z" fill="white"/>
<path fill-rule="evenodd" clip-rule="evenodd" d="M25.3124 24.4762H26.3233L26.3789 24.5802L27.266 24.5519L28.4885 24.5132L25.7261 19.4867L24.1059 22.3463L24.1061 22.3466L25.31 24.4762H25.3124Z" fill="white"/>
<path d="M21.3552 25.6508L22.3732 25.6559L21.9508 26.3358L20.9665 26.3245L21.3552 25.6508Z" fill="white"/>
<path d="M18.7474 26.345L19.7579 26.3617L19.3607 26.9651L18.3995 26.9494L18.7474 26.345Z" fill="white"/>
<path d="M19.3265 25.4013L20.3129 25.4074L19.9343 26.0777L18.9661 26.0575L19.3265 25.4013Z" fill="white"/>
<path d="M20.0499 26.2128L20.6839 26.2197L20.4462 26.6424L19.8254 26.6332L20.0499 26.2128Z" fill="white"/>
<path d="M20.5445 25.6263L21.0061 25.6289L20.8268 25.9439L20.3723 25.9401L20.5445 25.6263Z" fill="white"/>
<path d="M26.8836 13.2054L25.8442 13.1999L26.2756 12.5055L27.2808 12.5172L26.8836 13.2054Z" fill="white"/>
<path d="M29.5725 12.5457L28.6036 12.5356L28.9413 11.8877L29.8801 11.9034L29.5725 12.5457Z" fill="white"/>
<path d="M28.9982 13.4433L27.9891 13.4402L28.355 12.746L29.3315 12.7554L28.9982 13.4433Z" fill="white"/>
<path d="M28.2408 12.6313L27.5934 12.6242L27.8363 12.1926L28.4703 12.202L28.2408 12.6313Z" fill="white"/>
<path d="M27.6846 13.2526L27.2131 13.25L27.3962 12.9284L27.8604 12.9322L27.6846 13.2526Z" fill="white"/>
<path d="M26.0926 24.7421L25.6218 24.7417L25.8135 25.0729L26.2879 25.075L26.0926 24.7421Z" fill="white"/>
</g>
</g>
<defs>
<clipPath id="clip0_4886_33767">
<rect width="42" height="54" fill="white"/>
</clipPath>
<clipPath id="clip1_4886_33767">
<rect width="18.5979" height="15.0774" fill="white" transform="translate(11.2823 11.8877)"/>
</clipPath>
</defs>
</svg>
