<svg width="16" height="16" viewBox="0 0 16 16" fill="none" xmlns="http://www.w3.org/2000/svg">
<path fill-rule="evenodd" clip-rule="evenodd" d="M2.29289 2.29289C2.48043 2.10536 2.73478 2 3 2H13C13.2652 2 13.5196 2.10536 13.7071 2.29289C13.8946 2.48043 14 2.73478 14 3V6.66667C14 12.2699 9.23528 14.12 8.31315 14.4262C8.11011 14.4953 7.88989 14.4953 7.68685 14.4262C6.76472 14.12 2 12.2699 2 6.66667V3C2 2.73478 2.10536 2.48043 2.29289 2.29289ZM13 3L3 3L3 6.66667C3 11.5535 7.12841 13.1867 8 13.4765C8.87159 13.1867 13 11.5535 13 6.66667V3Z" fill="#6C757D"/>
<path fill-rule="evenodd" clip-rule="evenodd" d="M11.1117 5.65476C11.3023 5.85451 11.295 6.17101 11.0952 6.36168L7.42855 9.86168C7.23534 10.0461 6.93128 10.0461 6.73807 9.86168L4.90476 8.11168C4.70501 7.92101 4.69765 7.60451 4.88833 7.40476C5.079 7.20501 5.39549 7.19765 5.59524 7.38832L7.08332 8.80878L10.4048 5.63832C10.6045 5.44765 10.921 5.45501 11.1117 5.65476Z" fill="#6C757D"/>
</svg>
