<svg width="30" height="30" viewBox="0 0 30 30" fill="none" xmlns="http://www.w3.org/2000/svg">
<g clip-path="url(#clip0_2755_14379)">
<path d="M13.5502 4.41593V25.5839C13.5502 26.3519 12.8422 26.9279 12.0982 26.7599C6.73424 25.5599 2.75024 20.7479 2.75024 14.9999C2.75024 9.25193 6.73424 4.43993 12.0982 3.23993C12.8422 3.07193 13.5502 3.64793 13.5502 4.41593V4.41593ZM15.9862 4.41593V12.5879C15.9862 13.2479 16.5262 13.7879 17.1862 13.7879H25.3342C26.1022 13.7879 26.6782 13.0799 26.5102 12.3239C25.4902 7.81193 21.9502 4.25993 17.4502 3.23993C16.6942 3.07193 15.9862 3.64793 15.9862 4.41593V4.41593ZM15.9862 17.4119V25.5839C15.9862 26.3519 16.6942 26.9279 17.4502 26.7599C21.9622 25.7399 25.5022 22.1759 26.5222 17.6639C26.6902 16.9199 26.1022 16.1999 25.3462 16.1999H17.1982C16.5262 16.2119 15.9862 16.7519 15.9862 17.4119Z" fill="#F59E0B"/>
</g>
<defs>
<clipPath id="clip0_2755_14379">
<rect width="28.8" height="28.8" fill="white" transform="translate(0.350342 0.599915)"/>
</clipPath>
</defs>
</svg>
