<svg width="30" height="30" viewBox="0 0 30 30" fill="none" xmlns="http://www.w3.org/2000/svg">
<g clip-path="url(#clip0_2755_14372)">
<path d="M24.8498 7.79996H15.2498L13.5578 6.10796C13.1018 5.65196 12.4898 5.39996 11.8538 5.39996H5.64976C4.32976 5.39996 3.24976 6.47996 3.24976 7.79996V22.2C3.24976 23.52 4.32976 24.6 5.64976 24.6H24.8498C26.1698 24.6 27.2498 23.52 27.2498 22.2V10.2C27.2498 8.87996 26.1698 7.79996 24.8498 7.79996ZM21.1778 20.292L18.8498 18.936L16.5218 20.292C16.0658 20.556 15.5138 20.148 15.6338 19.632L16.2458 16.992L14.2178 15.24C13.8218 14.892 14.0258 14.232 14.5538 14.184L17.2298 13.956L18.2858 11.484C18.4898 11.004 19.1858 11.004 19.3898 11.484L20.4458 13.956L23.1218 14.184C23.6498 14.232 23.8658 14.892 23.4578 15.24L21.4298 16.992L22.0418 19.632C22.1738 20.148 21.6218 20.556 21.1778 20.292V20.292Z" fill="#3B82F6"/>
</g>
<defs>
<clipPath id="clip0_2755_14372">
<rect width="28.8" height="28.8" fill="white" transform="translate(0.849854 0.599976)"/>
</clipPath>
</defs>
</svg>
