<svg width="40" height="40" viewBox="0 0 40 40" fill="none" xmlns="http://www.w3.org/2000/svg">
<path d="M0.966553 39.0067H15.025V24.9482H8.49198C8.49198 24.9355 8.49835 24.9292 8.49835 24.9164V17.6327L10.7502 19.4712C10.9665 19.6493 11.2846 19.6175 11.4564 19.4012C11.6345 19.1849 11.6027 18.8668 11.3864 18.6951L8.31387 16.1887C8.12939 16.0361 7.86221 16.0361 7.67774 16.1887L4.60522 18.6951C4.38894 18.8732 4.35713 19.1849 4.53525 19.4012C4.63703 19.522 4.78334 19.5857 4.92329 19.5857C5.03779 19.5857 5.14593 19.5475 5.24135 19.4712L7.49326 17.6327V24.9164C7.49326 24.9292 7.49962 24.9355 7.49962 24.9482H0.966553V39.0067Z" fill="white"/>
<path d="M39.1276 39.0078H25.0691V24.9493H31.6022C31.6022 24.9366 31.5958 24.9302 31.5958 24.9175H32.6009C32.6009 24.9302 32.5945 24.9366 32.5945 24.9493H39.1276V39.0078Z" fill="white"/>
<path d="M20.6043 11.4762C20.6997 11.5525 20.8078 11.5907 20.9224 11.5907C21.0687 11.5907 21.215 11.5271 21.3104 11.4062L23.8167 8.3337C23.9694 8.14922 23.9694 7.88204 23.8167 7.69757L21.3104 4.62505C21.1323 4.40877 20.8142 4.37696 20.6043 4.55508C20.388 4.73319 20.3562 5.0449 20.5343 5.26118L22.3727 7.51309H15.9542C15.6806 3.34643 12.2264 0.0512695 7.98981 0.0512695C3.57506 0.0512695 0 3.62633 0 8.04108C0 12.4558 3.57506 16.0309 7.98981 16.0309C12.2392 16.0309 15.7061 12.7103 15.9542 8.51818H22.36L20.5216 10.7701C20.3562 10.98 20.388 11.2981 20.6043 11.4762Z" fill="white"/>
<path d="M23.9309 8.03434L31.4563 15.5598V22.3664L29.2044 20.5279C28.9882 20.3498 28.6701 20.3816 28.4983 20.5979C28.3202 20.8142 28.352 21.1323 28.5683 21.304L31.6408 23.8104C31.7362 23.8867 31.8444 23.9249 31.9589 23.9249C32.0734 23.9249 32.1879 23.8867 32.277 23.8104L35.3495 21.304C35.5658 21.1259 35.5976 20.8142 35.4194 20.5979C35.2413 20.3816 34.9233 20.3498 34.7133 20.5279L32.4614 22.3664V15.5725L39.9996 8.03434L31.9652 0L23.9309 8.03434Z" fill="white"/>
</svg>
