<svg width="32" height="32" viewBox="0 0 32 32" fill="none" xmlns="http://www.w3.org/2000/svg">
<path d="M6.95337 24.9694H13.5825V18.3402H10.5019C10.5019 18.3342 10.5049 18.3312 10.5049 18.3252V14.8907L11.5668 15.7576C11.6688 15.8415 11.8187 15.8265 11.8997 15.7246C11.9837 15.6226 11.9687 15.4726 11.8667 15.3916L10.4179 14.2098C10.3309 14.1378 10.205 14.1378 10.118 14.2098L8.66915 15.3916C8.56716 15.4756 8.55217 15.6226 8.63615 15.7246C8.68415 15.7816 8.75314 15.8116 8.81913 15.8116C8.87312 15.8116 8.92412 15.7936 8.96911 15.7576L10.031 14.8907V18.3252C10.031 18.3312 10.034 18.3342 10.034 18.3402H6.95337V24.9694Z" fill="white"/>
<path d="M24.9478 24.9698H18.3186V18.3407H21.3992C21.3992 18.3347 21.3962 18.3317 21.3962 18.3257H21.8701C21.8701 18.3317 21.8672 18.3347 21.8672 18.3407H24.9478V24.9698Z" fill="white"/>
<path d="M16.2133 11.9874C16.2583 12.0234 16.3093 12.0414 16.3633 12.0414C16.4323 12.0414 16.5013 12.0114 16.5463 11.9544L17.7281 10.5056C17.8001 10.4186 17.8001 10.2926 17.7281 10.2056L16.5463 8.75682C16.4623 8.65484 16.3123 8.63984 16.2133 8.72383C16.1113 8.80782 16.0963 8.9548 16.1803 9.05678L17.0472 10.1186H14.0206C13.8916 8.1539 12.2628 6.6001 10.2651 6.6001C8.18334 6.6001 6.49756 8.28588 6.49756 10.3676C6.49756 12.4494 8.18334 14.1351 10.2651 14.1351C12.2688 14.1351 13.9036 12.5693 14.0206 10.5926H17.0412L16.1743 11.6545C16.0963 11.7534 16.1113 11.9034 16.2133 11.9874Z" fill="white"/>
<path d="M17.782 10.3647L21.3305 13.9132V17.1228L20.2687 16.2559C20.1667 16.1719 20.0167 16.1869 19.9357 16.2889C19.8517 16.3909 19.8667 16.5409 19.9687 16.6219L21.4175 17.8037C21.4625 17.8397 21.5135 17.8577 21.5675 17.8577C21.6215 17.8577 21.6755 17.8397 21.7175 17.8037L23.1663 16.6219C23.2683 16.5379 23.2833 16.3909 23.1993 16.2889C23.1153 16.1869 22.9653 16.1719 22.8663 16.2559L21.8045 17.1228V13.9192L25.359 10.3647L21.5705 6.57617L17.782 10.3647Z" fill="white"/>
<path d="M2.40869 7.57422C0.833893 10.0969 0 13.0095 0 16.0001C0 18.9908 0.833893 21.9034 2.40869 24.4261L3.42556 23.7901C1.97075 21.4594 1.19985 18.7658 1.19985 16.0001C1.19985 13.2345 1.97075 10.5408 3.42856 8.21014L2.40869 7.57422Z" fill="white"/>
<path d="M29.4534 7.57666L28.4365 8.21258C29.8913 10.5463 30.6622 13.2399 30.6622 15.9996C30.6622 18.7622 29.8943 21.4529 28.4365 23.7836L29.4534 24.4195C31.0282 21.8968 31.8591 18.9872 31.8591 15.9996C31.8591 13.015 31.0282 10.1023 29.4534 7.57666Z" fill="white"/>
<path d="M15.9311 1.26884C17.6708 1.26884 19.3656 1.5718 20.9764 2.15972L20.4545 3.21559L24.036 2.98462L22.0473 0L21.5133 1.07986C19.7316 0.410948 17.8568 0.0689912 15.9311 0.0689912C12.9404 0.0689912 10.0278 0.902885 7.50513 2.47768L8.14105 3.49455C10.4717 2.03974 13.1654 1.26884 15.9311 1.26884Z" fill="white"/>
<path d="M15.9312 30.7286C14.1914 30.7286 12.4966 30.4256 10.8829 29.8377L11.4048 28.7818L7.82324 29.0128L9.81199 32.0004L10.3459 30.9206C12.1277 31.5895 14.0025 31.9314 15.9282 31.9314C18.9158 31.9314 21.8285 31.0975 24.3511 29.5227L23.7152 28.5059C21.3875 29.9577 18.6939 30.7286 15.9312 30.7286Z" fill="white"/>
</svg>
