<svg width="40" height="33" viewBox="0 0 40 33" fill="none" xmlns="http://www.w3.org/2000/svg">
<path d="M9.51957 1.13867H0.955089C0.429007 1.13867 0 1.56768 0 2.09689V31.2725C0 31.8017 0.429007 32.2276 0.955089 32.2276H9.51957C10.0488 32.2276 10.4747 31.7986 10.4747 31.2725V2.09689C10.4747 1.56768 10.0457 1.13867 9.51957 1.13867ZM5.23577 29.8602C3.92996 29.8602 2.87153 28.8018 2.87153 27.496C2.87153 26.1902 3.92996 25.1318 5.23577 25.1318C6.54158 25.1318 7.6 26.1902 7.6 27.496C7.6 28.8018 6.54471 29.8602 5.23577 29.8602ZM8.61772 18.1455C8.61772 18.2833 8.50499 18.3929 8.3672 18.3929H2.10746C1.96968 18.3929 1.85694 18.2802 1.85694 18.1455V4.00707C1.85694 3.86929 1.96968 3.75655 2.10746 3.75655H3.17215L5.00091 5.58531C5.13243 5.71684 5.34537 5.71684 5.47689 5.58531L7.30252 3.75969H8.3672C8.50499 3.75969 8.61772 3.87242 8.61772 4.0102V18.1455Z" fill="white"/>
<path d="M7.60318 8.06248H2.87157C2.61166 8.06248 2.40186 7.85267 2.40186 7.59276C2.40186 7.33285 2.61166 7.12305 2.87157 7.12305H7.60318C7.86308 7.12305 8.07289 7.33285 8.07289 7.59276C8.07289 7.85267 7.86308 8.06248 7.60318 8.06248Z" fill="white"/>
<path d="M7.60318 10.1479H2.87157C2.61166 10.1479 2.40186 9.93812 2.40186 9.67821C2.40186 9.4183 2.61166 9.2085 2.87157 9.2085H7.60318C7.86308 9.2085 8.07289 9.4183 8.07289 9.67821C8.07289 9.93812 7.86308 10.1479 7.60318 10.1479Z" fill="white"/>
<path d="M7.60318 12.2368H2.87157C2.61166 12.2368 2.40186 12.027 2.40186 11.7671C2.40186 11.5072 2.61166 11.2974 2.87157 11.2974H7.60318C7.86308 11.2974 8.07289 11.5072 8.07289 11.7671C8.07289 12.027 7.86308 12.2368 7.60318 12.2368Z" fill="white"/>
<path d="M7.60318 14.3252H2.87157C2.61166 14.3252 2.40186 14.1154 2.40186 13.8555C2.40186 13.5955 2.61166 13.3857 2.87157 13.3857H7.60318C7.86308 13.3857 8.07289 13.5955 8.07289 13.8555C8.07289 14.1154 7.86308 14.3252 7.60318 14.3252Z" fill="white"/>
<path d="M7.60318 16.4111H2.87157C2.61166 16.4111 2.40186 16.2013 2.40186 15.9414C2.40186 15.6815 2.61166 15.4717 2.87157 15.4717H7.60318C7.86308 15.4717 8.07289 15.6815 8.07289 15.9414C8.07289 16.2013 7.86308 16.4111 7.60318 16.4111Z" fill="white"/>
<path d="M21.7322 1.13867H13.1677C12.6417 1.13867 12.2126 1.56768 12.2126 2.09689V31.2725C12.2126 31.8017 12.6417 32.2276 13.1677 32.2276H21.7322C22.2614 32.2276 22.6873 31.7986 22.6873 31.2725V2.09689C22.6873 1.56768 22.2583 1.13867 21.7322 1.13867ZM17.4484 29.8602C16.1426 29.8602 15.0842 28.8018 15.0842 27.496C15.0842 26.1902 16.1426 25.1318 17.4484 25.1318C18.7542 25.1318 19.8126 26.1902 19.8126 27.496C19.8126 28.8018 18.7574 29.8602 17.4484 29.8602ZM20.8304 18.1455C20.8304 18.2833 20.7176 18.3929 20.5799 18.3929H14.3201C14.1823 18.3929 14.0696 18.2802 14.0696 18.1455V4.00707C14.0696 3.86929 14.1823 3.75655 14.3201 3.75655H15.3848L17.2136 5.58531C17.3451 5.71684 17.558 5.71684 17.6895 5.58531L19.5152 3.75969H20.5799C20.7176 3.75969 20.8304 3.87242 20.8304 4.0102V18.1455Z" fill="white"/>
<path d="M19.8158 8.06248H15.0842C14.8243 8.06248 14.6145 7.85267 14.6145 7.59276C14.6145 7.33285 14.8243 7.12305 15.0842 7.12305H19.8158C20.0757 7.12305 20.2855 7.33285 20.2855 7.59276C20.2855 7.85267 20.0757 8.06248 19.8158 8.06248Z" fill="white"/>
<path d="M19.8158 10.1479H15.0842C14.8243 10.1479 14.6145 9.93812 14.6145 9.67821C14.6145 9.4183 14.8243 9.2085 15.0842 9.2085H19.8158C20.0757 9.2085 20.2855 9.4183 20.2855 9.67821C20.2855 9.93812 20.0757 10.1479 19.8158 10.1479Z" fill="white"/>
<path d="M19.8158 12.2368H15.0842C14.8243 12.2368 14.6145 12.027 14.6145 11.7671C14.6145 11.5072 14.8243 11.2974 15.0842 11.2974H19.8158C20.0757 11.2974 20.2855 11.5072 20.2855 11.7671C20.2855 12.027 20.0757 12.2368 19.8158 12.2368Z" fill="white"/>
<path d="M19.8158 14.3252H15.0842C14.8243 14.3252 14.6145 14.1154 14.6145 13.8555C14.6145 13.5955 14.8243 13.3857 15.0842 13.3857H19.8158C20.0757 13.3857 20.2855 13.5955 20.2855 13.8555C20.2855 14.1154 20.0757 14.3252 19.8158 14.3252Z" fill="white"/>
<path d="M19.8158 16.4111H15.0842C14.8243 16.4111 14.6145 16.2013 14.6145 15.9414C14.6145 15.6815 14.8243 15.4717 15.0842 15.4717H19.8158C20.0757 15.4717 20.2855 15.6815 20.2855 15.9414C20.2855 16.2013 20.0757 16.4111 19.8158 16.4111Z" fill="white"/>
<path d="M39.9792 29.3124L33.9794 0.759943C33.8698 0.243256 33.3656 -0.0886764 32.8489 0.0209239L24.4692 1.78392C23.9525 1.89352 23.6206 2.39769 23.7302 2.91437L29.73 31.4668C29.8396 31.9835 30.3438 32.3154 30.8604 32.2058L39.2402 30.446C39.7569 30.3364 40.0888 29.8291 39.9792 29.3124ZM29.1444 18.4338C29.0098 18.462 28.8782 18.3774 28.8501 18.2428L25.9409 4.40494C25.9128 4.27029 25.9973 4.13877 26.132 4.11058L27.1716 3.89138L29.3354 5.30366C29.492 5.407 29.7018 5.36316 29.802 5.20659L31.2143 3.04276L32.2539 2.82356C32.3886 2.79538 32.5201 2.87993 32.5483 3.01458L35.4574 16.8524C35.4856 16.9871 35.401 17.1186 35.2664 17.1468L29.1444 18.4338ZM34.5649 29.0086C33.2873 29.278 32.0316 28.4575 31.7623 27.1799C31.493 25.9023 32.3134 24.6466 33.5911 24.3773C34.8687 24.1079 36.1244 24.9284 36.3937 26.206C36.663 27.4868 35.8426 28.7425 34.5649 29.0086Z" fill="white"/>
<path d="M27.6694 8.17523C27.4533 8.17523 27.256 8.02179 27.2091 7.80259C27.1558 7.54894 27.3187 7.29843 27.5723 7.24519L32.2006 6.27131C32.4542 6.21808 32.7047 6.38092 32.758 6.63456C32.8112 6.88821 32.6484 7.13872 32.3947 7.19196L27.7665 8.16584C27.7351 8.16897 27.7007 8.17523 27.6694 8.17523Z" fill="white"/>
<path d="M28.0986 10.2167C27.8825 10.2167 27.6852 10.0633 27.6383 9.84409C27.585 9.59045 27.7479 9.33993 28.0015 9.2867L32.6298 8.31282C32.8834 8.25958 33.1339 8.42242 33.1872 8.67607C33.2404 8.92971 33.0776 9.18023 32.8239 9.23346L28.1957 10.2073C28.1643 10.2136 28.1299 10.2167 28.0986 10.2167Z" fill="white"/>
<path d="M28.5273 12.2582C28.3112 12.2582 28.1139 12.1048 28.067 11.8856C28.0137 11.6319 28.1766 11.3814 28.4302 11.3282L33.0585 10.3543C33.3121 10.3011 33.5626 10.4639 33.6159 10.7176C33.6691 10.9712 33.5063 11.2217 33.2526 11.275L28.6244 12.2488C28.5931 12.2551 28.5617 12.2582 28.5273 12.2582Z" fill="white"/>
<path d="M28.9565 14.3032C28.7404 14.3032 28.5431 14.1497 28.4962 13.9305C28.4429 13.6769 28.6058 13.4264 28.8594 13.3731L33.4877 12.3992C33.7413 12.346 33.9918 12.5088 34.0451 12.7625C34.0983 13.0161 33.9355 13.2667 33.6818 13.3199L29.0536 14.2938C29.0222 14.3 28.9909 14.3032 28.9565 14.3032Z" fill="white"/>
<path d="M29.3886 16.3452C29.1725 16.3452 28.9753 16.1917 28.9283 15.9725C28.8751 15.7189 29.0379 15.4683 29.2915 15.4151L33.9198 14.4412C34.1735 14.388 34.424 14.5508 34.4772 14.8045C34.5304 15.0581 34.3676 15.3086 34.114 15.3619L29.4857 16.3358C29.4512 16.342 29.4199 16.3452 29.3886 16.3452Z" fill="white"/>
</svg>
