<svg width="40" height="38" viewBox="0 0 40 38" fill="none" xmlns="http://www.w3.org/2000/svg">
<path d="M15.3201 16.2241H11.6201V19.9241H15.3201V16.2241Z" fill="white"/>
<path d="M21.7239 16.2241H18.0239V19.9241H21.7239V16.2241Z" fill="white"/>
<path d="M8.91997 22.1357H5.21997V25.8357H8.91997V22.1357Z" fill="white"/>
<path d="M15.3201 22.1357H11.6201V25.8357H15.3201V22.1357Z" fill="white"/>
<path d="M8.91997 28.0479H5.21997V31.7479H8.91997V28.0479Z" fill="white"/>
<path d="M15.3201 28.0479H11.6201V31.7479H15.3201V28.0479Z" fill="white"/>
<path d="M28.1241 16.2241H24.4241V19.9241H28.1241V16.2241Z" fill="white"/>
<path d="M8.64798 9.66C7.44798 9.66 6.47998 8.688 6.47998 7.492V2.168C6.47998 0.968 7.45198 0 8.64798 0C9.84798 0 10.816 0.972 10.816 2.168V7.492C10.82 8.692 9.84798 9.66 8.64798 9.66Z" fill="white"/>
<path d="M24.42 9.66C23.22 9.66 22.252 8.688 22.252 7.492V2.168C22.252 0.968 23.224 0 24.42 0C25.62 0 26.588 0.972 26.588 2.168V7.492C26.588 8.692 25.616 9.66 24.42 9.66Z" fill="white"/>
<path d="M33.068 14.5719V6.58789C33.068 5.21189 31.948 4.08789 30.568 4.08789H27.836V7.68389C27.836 9.46389 26.388 10.9079 24.612 10.9079H24.228C22.448 10.9079 21.004 9.45989 21.004 7.68389V4.08789H12.068V7.68389C12.068 9.46389 10.62 10.9079 8.84 10.9079H8.456C6.676 10.9079 5.228 9.45989 5.228 7.68389V4.08789H2.5C1.12 4.08789 0 5.21189 0 6.58789V34.6599C0 36.0399 1.12 37.1599 2.5 37.1599H30.572C31.948 37.1599 33.072 36.0399 33.072 34.6599V28.1999L31.072 30.4759V34.6599C31.072 34.9359 30.848 35.1599 30.572 35.1599H2.5C2.22 35.1599 2 34.9359 2 34.6599V13.3599H31.072V16.8439L33.068 14.5719Z" fill="white"/>
<path d="M25.836 34.164L16.24 25.46L20.272 21.02L25.352 25.628L35.496 14.084L40 18.04L25.836 34.164Z" fill="white"/>
</svg>
