<svg width="44" height="44" viewBox="0 0 44 44" fill="none" xmlns="http://www.w3.org/2000/svg">
<path fill-rule="evenodd" clip-rule="evenodd" d="M38.5011 11.3929H25.9297C25.0618 11.3929 24.3583 10.6893 24.3583 9.82143V8.64286C24.3583 6.9071 22.9512 5.5 21.2154 5.5H7.07254C5.33679 5.5 3.92969 6.90711 3.92969 8.64286V35.3571C3.92969 37.0929 5.33679 38.5 7.07254 38.5H36.9297C38.6654 38.5 40.0725 37.0929 40.0725 35.3571V11C40.0725 9.26425 38.6654 7.85714 36.9297 7.85714H26.7154V9.42857H36.9297C37.7976 9.42857 38.5011 10.1321 38.5011 11V11.3929ZM22.0011 16.5C19.8314 16.5 18.0725 18.2589 18.0725 20.4286C18.0725 22.5983 19.8314 24.3571 22.0011 24.3571C24.1708 24.3571 25.9297 22.5983 25.9297 20.4286C25.9297 18.2589 24.1708 16.5 22.0011 16.5ZM22.0011 25.1429C18.1366 25.1429 14.9297 28.274 14.9297 32.1571C14.9297 32.6226 15.307 33 15.7725 33H28.2297C28.6952 33 29.0725 32.6226 29.0725 32.1571C29.0725 28.274 25.8656 25.1429 22.0011 25.1429ZM11.0011 20.8214C11.0011 19.3026 12.2323 18.0714 13.7511 18.0714C15.2699 18.0714 16.5011 19.3026 16.5011 20.8214C16.5011 22.3402 15.2699 23.5714 13.7511 23.5714C12.2323 23.5714 11.0011 22.3402 11.0011 20.8214ZM30.2511 18.0714C31.7699 18.0714 33.0011 19.3026 33.0011 20.8214C33.0011 22.3402 31.7699 23.5714 30.2511 23.5714C28.7323 23.5714 27.5011 22.3402 27.5011 20.8214C27.5011 19.3026 28.7323 18.0714 30.2511 18.0714ZM10.303 28.6786C10.6603 27.104 12.0684 25.9286 13.7511 25.9286C14.6066 25.9286 15.3892 26.2314 16.0008 26.7365L17.0014 25.5248C16.1187 24.7958 14.9851 24.3571 13.7511 24.3571C10.9305 24.3571 8.64397 26.6437 8.64397 29.4643V30.25H14.9297V28.6786H10.303ZM33.6992 28.6786C33.3419 27.104 31.9338 25.9286 30.2511 25.9286C29.3957 25.9286 28.613 26.2314 28.0014 26.7365L27.0008 25.5248C27.8836 24.7958 29.0172 24.3571 30.2511 24.3571C33.0717 24.3571 35.3583 26.6437 35.3583 29.4643V30.25H29.0725V28.6786H33.6992Z" fill="white"/>
</svg>
