<svg width="40" height="33" viewBox="0 0 40 33" fill="none" xmlns="http://www.w3.org/2000/svg">
<path d="M9.152 3.28C8.548 1.384 6.792 0 4.696 0C2.108 0 0 2.108 0 4.696V27.472C0 27.496 0.008 27.52 0.008 27.544C0.008 27.568 0 27.592 0 27.616C0 30.212 2.108 32.32 4.696 32.32H40V3.28H9.152ZM4.696 30.448C3.136 30.448 1.868 29.18 1.868 27.62C1.868 26.064 3.136 24.796 4.696 24.796C6.256 24.796 7.524 26.064 7.524 27.62C7.524 29.18 6.256 30.448 4.696 30.448ZM7.972 24.264C7.124 23.44 5.972 22.924 4.696 22.924C3.424 22.924 2.268 23.436 1.424 24.264V4.696C1.424 2.892 2.892 1.424 4.696 1.424C6.5 1.424 7.972 2.892 7.972 4.696V24.264ZM34.1 24.944C33.94 25.104 33.724 25.196 33.496 25.196H15.276C15.048 25.196 14.832 25.104 14.672 24.944C14.512 24.784 14.42 24.568 14.42 24.34C14.42 24.112 14.512 23.896 14.672 23.736C14.832 23.576 15.048 23.484 15.276 23.484H33.496C33.724 23.484 33.94 23.572 34.1 23.736C34.26 23.896 34.352 24.112 34.352 24.34C34.352 24.568 34.26 24.784 34.1 24.944ZM34.352 14.752C34.352 14.864 34.32 14.976 34.256 15.072C34.192 15.168 34.104 15.24 34 15.284C33.896 15.328 33.78 15.34 33.668 15.316C33.556 15.292 33.456 15.24 33.376 15.16L31.492 13.276L26.368 18.396C26.288 18.476 26.196 18.54 26.092 18.584C25.988 18.628 25.876 18.648 25.764 18.648C25.652 18.648 25.54 18.624 25.436 18.584C25.332 18.54 25.24 18.476 25.16 18.396L21.176 14.412L16.052 18.996C15.968 19.072 15.872 19.128 15.764 19.164C15.66 19.2 15.544 19.216 15.432 19.212C15.32 19.204 15.212 19.176 15.108 19.128C15.008 19.08 14.916 19.012 14.84 18.928C14.764 18.844 14.708 18.748 14.672 18.64C14.636 18.532 14.62 18.42 14.624 18.308C14.632 18.196 14.66 18.088 14.708 17.984C14.756 17.884 14.824 17.792 14.908 17.716L20.6 12.592C20.756 12.44 20.968 12.356 21.188 12.356C21.408 12.356 21.616 12.44 21.776 12.592L25.76 16.584L30.28 12.064L28.4 10.18C28.32 10.1 28.264 10 28.244 9.888C28.22 9.776 28.232 9.664 28.276 9.556C28.32 9.452 28.392 9.364 28.488 9.3C28.584 9.236 28.692 9.204 28.804 9.204H33.78C33.932 9.204 34.076 9.264 34.184 9.372C34.292 9.48 34.352 9.624 34.352 9.776V14.752Z" fill="white"/>
</svg>
