<svg width="40" height="40" viewBox="0 0 40 40" fill="none" xmlns="http://www.w3.org/2000/svg">
<path d="M22.892 34.2V28.416H5.256H0V33.948C0 37.264 2.688 39.956 6.008 39.956H25.56C23.928 38.572 22.892 36.508 22.892 34.2Z" fill="white"/>
<path d="M34.6642 3.216C35.1922 3.216 35.7042 3.276 36.1962 3.388V3.004C36.1962 1.344 34.8522 0 33.1922 0H10.0602C8.40015 0 7.05615 1.344 7.05615 3.004V26.612H24.6962V34.204C24.6962 37.38 27.2722 39.956 30.4482 39.956C33.6242 39.956 36.2002 37.38 36.2002 34.204V26.612V23.236V21.232L34.6682 18.484L30.9842 25.088L30.1242 20.1L25.4282 21.984L29.3042 15.044C28.1762 13.756 27.5362 12.088 27.5362 10.352C27.5242 6.416 30.7282 3.216 34.6642 3.216ZM18.7562 17.556H11.3842C10.8882 17.556 10.4842 17.152 10.4842 16.656C10.4842 16.16 10.8882 15.756 11.3842 15.756H18.7602C19.2562 15.756 19.6602 16.16 19.6602 16.656C19.6602 17.148 19.2522 17.556 18.7562 17.556ZM24.6602 14.296H11.3842C10.8882 14.296 10.4842 13.892 10.4842 13.396C10.4842 12.9 10.8882 12.496 11.3842 12.496H24.6602C25.1562 12.496 25.5602 12.9 25.5602 13.396C25.5602 13.892 25.1562 14.296 24.6602 14.296ZM10.4802 10.136C10.4802 9.64 10.8842 9.236 11.3802 9.236H18.7562C19.2522 9.236 19.6562 9.64 19.6562 10.136C19.6562 10.632 19.2522 11.036 18.7562 11.036H11.3842C10.8882 11.036 10.4802 10.632 10.4802 10.136ZM24.6602 7.776H11.3842C10.8882 7.776 10.4842 7.372 10.4842 6.876C10.4842 6.38 10.8882 5.976 11.3842 5.976H24.6602C25.1562 5.976 25.5602 6.38 25.5602 6.876C25.5602 7.372 25.1562 7.776 24.6602 7.776Z" fill="white"/>
<path d="M34.6637 12.1681C35.6666 12.1681 36.4797 11.3551 36.4797 10.3521C36.4797 9.34918 35.6666 8.53613 34.6637 8.53613C33.6607 8.53613 32.8477 9.34918 32.8477 10.3521C32.8477 11.3551 33.6607 12.1681 34.6637 12.1681Z" fill="white"/>
<path d="M39.9996 10.3516C39.9996 7.40762 37.6076 5.01562 34.6636 5.01562C31.7196 5.01562 29.3276 7.40762 29.3276 10.3516C29.3276 12.1356 30.2116 13.7156 31.5596 14.6836L29.4796 18.4116L31.5156 17.5916L31.8876 19.7556L34.1756 15.6596C34.3356 15.6756 34.4996 15.6836 34.6636 15.6836C34.8276 15.6836 34.9916 15.6716 35.1516 15.6596L37.4396 19.7596L37.8116 17.5956L39.8476 18.4156L37.7636 14.6876C39.1156 13.7156 39.9996 12.1356 39.9996 10.3516ZM34.6636 6.81962C36.6116 6.81962 38.1956 8.40362 38.1956 10.3516C38.1956 12.2996 36.6116 13.8836 34.6636 13.8836C32.7156 13.8836 31.1316 12.2996 31.1316 10.3516C31.1316 8.40362 32.7156 6.81962 34.6636 6.81962Z" fill="white"/>
</svg>
