<svg width="40" height="40" viewBox="0 0 40 40" fill="none" xmlns="http://www.w3.org/2000/svg">
<path fill-rule="evenodd" clip-rule="evenodd" d="M0 2.86064V36.364H15.7561C15.7561 35.822 15.7749 35.2799 15.8126 34.7492H1.66369V3.38007C1.66369 2.40519 2.45413 1.61852 3.42524 1.61852H18.564V10.9118H27.4282V14.5479H29.0919V10.0988L19.3921 0H2.86064C1.27976 0 0 1.27976 0 2.86064ZM20.224 3.23327L26.0393 9.29331H20.224V3.23327Z" fill="white"/>
<path d="M15.7561 20.604C16.3546 20.0356 16.987 19.4974 17.6457 18.9893H10.3887V20.604H15.7561Z" fill="white"/>
<path d="M14.3635 27.0708C14.4463 26.8751 14.5328 26.6831 14.6194 26.4912C14.7022 26.3105 14.7888 26.1336 14.8754 25.9567C14.9582 25.7911 15.041 25.6217 15.1275 25.4561H10.3887V27.0708H14.3635Z" fill="white"/>
<path d="M8.31073 19.7986C8.31073 20.9165 7.38102 21.8199 6.233 21.8199C5.08498 21.8199 4.15527 20.9165 4.15527 19.7986C4.15527 19.0232 4.60695 18.3495 5.26565 18.0107C5.35222 17.9655 5.44256 17.9279 5.53666 17.894C5.75497 17.8187 5.98834 17.7773 6.233 17.7773C7.05355 17.7773 7.76118 18.2403 8.09994 18.9103C8.23545 19.1776 8.31073 19.4787 8.31073 19.7986Z" fill="white"/>
<path d="M6.74114 28.2222C6.57929 28.2598 6.40991 28.2824 6.233 28.2824C5.59688 28.2824 5.02852 28.0039 4.64836 27.571C4.58813 27.4995 4.53167 27.4242 4.47898 27.3452C4.43005 27.2699 4.38488 27.1909 4.34724 27.1118C4.22303 26.8521 4.15527 26.566 4.15527 26.2649C4.15527 25.147 5.08498 24.2437 6.233 24.2437C7.38102 24.2437 8.31073 25.147 8.31073 26.2649C8.31073 26.4192 8.29191 26.566 8.25803 26.7091C8.22415 26.8521 8.17899 26.9876 8.115 27.1156C7.93433 27.4995 7.62944 27.8157 7.25681 28.0227C7.09872 28.1093 6.92558 28.177 6.74114 28.2222Z" fill="white"/>
<path fill-rule="evenodd" clip-rule="evenodd" d="M9.08992 6C6.24434 6 3.93701 8.30733 3.93701 11.1491C3.93701 13.9947 6.24434 16.3021 9.08992 16.3021C11.9355 16.3021 14.2428 13.9947 14.2428 11.1491C14.2428 8.30733 11.9355 6 9.08992 6ZM9.72604 14.6233V15.7713H8.41617V14.7137C8.17151 14.6948 7.92685 14.6534 7.69725 14.597C7.53539 14.5556 7.37731 14.5066 7.23427 14.4502C7.05737 14.3824 6.89928 14.3034 6.76754 14.2168L6.63956 14.1302L7.04607 12.7074L7.28321 12.8467C7.76123 13.129 8.33336 13.2909 8.85279 13.2909C9.1238 13.2909 9.34588 13.2344 9.50773 13.1328C9.68087 13.0199 9.7825 12.858 9.7825 12.6547C9.7825 12.5494 9.76368 12.4402 9.68087 12.3235C9.62441 12.2407 9.53408 12.1579 9.40234 12.0713C9.25178 11.9735 9.04099 11.8718 8.75116 11.7664C7.76123 11.4089 6.74872 10.8744 6.74872 9.63979C6.74872 8.64609 7.40742 7.88953 8.48392 7.63734V6.54202H9.79003V7.55077C9.95564 7.56206 10.1175 7.58464 10.2718 7.61475C10.5842 7.67498 10.8778 7.77661 11.1601 7.91964L11.3182 7.99868L10.9079 9.39136L10.6256 9.26339C10.3734 9.14294 9.94435 8.94345 9.30824 8.94345C8.80386 8.94345 8.49898 9.14294 8.49898 9.4817C8.49898 9.77905 8.78128 9.98607 9.66582 10.3437C10.9832 10.8367 11.544 11.4917 11.544 12.5305C11.544 13.5694 10.8364 14.3749 9.72604 14.6233Z" fill="white"/>
<path fill-rule="evenodd" clip-rule="evenodd" d="M28.4857 16.9683C22.1246 16.9683 16.9717 22.1249 16.9717 28.4823C16.9717 34.8435 22.1284 39.9964 28.4857 39.9964C34.8469 39.9964 39.9998 34.8397 39.9998 28.4823C39.9998 22.1249 34.8431 16.9683 28.4857 16.9683ZM27.1571 29.0131C26.5849 29.461 25.787 29.6868 24.7744 29.6868H23.2274V32.4797H21.4621V24.5527H24.8008C25.4444 24.5527 26.009 24.6619 26.4984 24.8802C26.9877 25.0985 27.3603 25.4071 27.6238 25.8099C27.8873 26.2126 28.019 26.6681 28.019 27.18C28.019 27.9516 27.7292 28.5651 27.1571 29.0131ZM36.2584 28.6931C36.2584 29.4723 36.1078 30.1573 35.8105 30.7445C35.5131 31.3317 35.0878 31.7871 34.5307 32.1071C33.9774 32.427 33.3413 32.5851 32.6224 32.5851C31.9147 32.5851 31.2786 32.427 30.7216 32.1108C30.1645 31.7946 29.7354 31.343 29.4267 30.7595C29.1219 30.1724 28.9675 29.4986 28.9638 28.7383V28.3468C28.9638 27.5677 29.1143 26.8789 29.4192 26.2879C29.7241 25.6932 30.1532 25.2378 30.7065 24.9216C31.2598 24.6054 31.8959 24.4436 32.6073 24.4436C33.3187 24.4436 33.9548 24.6016 34.5081 24.9216C35.0615 25.2378 35.4905 25.6932 35.7954 26.2879C36.1003 26.8826 36.2509 27.5677 36.2509 28.3431V28.6931H36.2584Z" fill="white"/>
<path fill-rule="evenodd" clip-rule="evenodd" d="M32.6148 25.791C32.0238 25.791 31.5646 26.0056 31.2447 26.4309C30.9248 26.8562 30.7591 27.4811 30.7554 28.3054V28.6931C30.7554 29.5023 30.9172 30.1309 31.2372 30.5788C31.5571 31.0267 32.0201 31.2488 32.6261 31.2488C33.217 31.2488 33.6725 31.0343 33.9886 30.6052C34.3048 30.1761 34.4667 29.5475 34.4704 28.7232V28.3355C34.4704 27.5036 34.3086 26.8713 33.9886 26.4422C33.6687 26.0093 33.2095 25.791 32.6148 25.791Z" fill="white"/>
<path fill-rule="evenodd" clip-rule="evenodd" d="M24.8422 25.874H23.2236V28.362H24.8007C25.2675 28.362 25.6213 28.2604 25.8697 28.0571C26.1144 27.8539 26.2386 27.5641 26.2386 27.1839C26.2386 26.7962 26.1144 26.48 25.8697 26.2429C25.6175 26.0058 25.2788 25.8816 24.8422 25.874Z" fill="white"/>
</svg>
