<svg width="37" height="40" viewBox="0 0 37 40" fill="none" xmlns="http://www.w3.org/2000/svg">
<path d="M17.3938 20.2592L7.68506 15.0244V25.3666L17.3938 30.7579V20.2592Z" fill="white"/>
<path d="M18.2018 18.8575L27.805 13.6773L18.2018 8.34424L8.59863 13.6773L18.2018 18.8575Z" fill="white"/>
<path d="M19.0098 20.2592V30.7579L28.7185 25.3666V15.0244L19.0098 20.2592Z" fill="white"/>
<path d="M6.06844 25.5952V13.2326L17.3935 6.94212V0L0 9.66145V28.9625L6.06844 25.5952Z" fill="white"/>
<path d="M19.0098 6.94212L30.3348 13.2326V25.6025L36.4033 28.9625V9.66145L19.0098 0V6.94212Z" fill="white"/>
<path d="M29.3123 26.884L18.202 33.058L7.08444 26.8804L0.833984 30.3496L18.202 40.0001L35.5701 30.3496L29.3123 26.884Z" fill="white"/>
</svg>
