<svg width="30" height="30" viewBox="0 0 30 30" fill="none" xmlns="http://www.w3.org/2000/svg">
<path d="M17.8542 4.20001H6.8502C5.5302 4.20001 4.4502 5.28001 4.4502 6.60001V23.4C4.4502 24.72 5.5302 25.8 6.8502 25.8H23.6502C24.9702 25.8 26.0502 24.72 26.0502 23.4V12.396C26.0502 11.76 25.7982 11.148 25.3422 10.704L19.5462 4.90801C19.1022 4.45201 18.4902 4.20001 17.8542 4.20001ZM10.4502 18.6H20.0502C20.7102 18.6 21.2502 19.14 21.2502 19.8C21.2502 20.46 20.7102 21 20.0502 21H10.4502C9.7902 21 9.2502 20.46 9.2502 19.8C9.2502 19.14 9.7902 18.6 10.4502 18.6ZM10.4502 13.8H20.0502C20.7102 13.8 21.2502 14.34 21.2502 15C21.2502 15.66 20.7102 16.2 20.0502 16.2H10.4502C9.7902 16.2 9.2502 15.66 9.2502 15C9.2502 14.34 9.7902 13.8 10.4502 13.8ZM10.4502 9.00001H16.4502C17.1102 9.00001 17.6502 9.54001 17.6502 10.2C17.6502 10.86 17.1102 11.4 16.4502 11.4H10.4502C9.7902 11.4 9.2502 10.86 9.2502 10.2C9.2502 9.54001 9.7902 9.00001 10.4502 9.00001Z" fill="#10B981"/>
</svg>
