<svg width="30" height="30" viewBox="0 0 30 30" fill="none" xmlns="http://www.w3.org/2000/svg">
<path d="M19.9347 2.5H6.49674C6.39478 2.5 6.27243 2.54078 6.19086 2.62235L2.62235 6.19086C2.54078 6.27243 2.5 6.39478 2.5 6.49674V27.0514C2.5 27.2961 2.70392 27.5 2.94861 27.5H13.1444C13.3891 27.5 13.593 27.2961 13.593 27.0514C13.593 26.8067 13.3891 26.6028 13.1444 26.6028H3.37684V6.94535H6.49674C6.74144 6.94535 6.94535 6.74144 6.94535 6.49674V3.37684H19.4861V8.84176C19.4861 9.08646 19.69 9.29037 19.9347 9.29037C20.1794 9.29037 20.3834 9.08646 20.3834 8.84176V2.92822C20.363 2.70392 20.1794 2.5 19.9347 2.5ZM4.02936 6.06852L6.06852 4.00897L4.02936 6.06852Z" fill="white"/>
<path d="M14.3267 10.1873C14.5714 10.1873 14.7753 9.98335 14.7753 9.73865C14.7753 9.49395 14.5714 9.29004 14.3267 9.29004H8.53553C8.29083 9.29004 8.08691 9.49395 8.08691 9.73865C8.08691 9.98335 8.29083 10.1873 8.53553 10.1873H14.3267Z" fill="white"/>
<path d="M16.3052 12.4312H6.5785C6.3338 12.4312 6.12988 12.6351 6.12988 12.8798C6.12988 13.1245 6.3338 13.308 6.5785 13.308H16.3052C16.5499 13.308 16.7539 13.1041 16.7539 12.8594C16.7539 12.6147 16.5499 12.4312 16.3052 12.4312Z" fill="white"/>
<path d="M16.3052 14.5513H6.5785C6.3338 14.5513 6.12988 14.7552 6.12988 14.9999C6.12988 15.2446 6.3338 15.4485 6.5785 15.4485H16.3052C16.5499 15.4485 16.7539 15.2446 16.7539 14.9999C16.7539 14.7552 16.5499 14.5513 16.3052 14.5513Z" fill="white"/>
<path d="M16.3052 16.6724H6.5785C6.3338 16.6724 6.12988 16.8763 6.12988 17.121C6.12988 17.3657 6.3338 17.5696 6.5785 17.5696H16.3052C16.5499 17.5696 16.7539 17.3657 16.7539 17.121C16.7539 16.8763 16.5499 16.6724 16.3052 16.6724Z" fill="white"/>
<path d="M16.7539 19.2416C16.7539 18.9969 16.5499 18.793 16.3052 18.793H6.5785C6.3338 18.793 6.12988 18.9969 6.12988 19.2416C6.12988 19.4863 6.3338 19.6902 6.5785 19.6902H16.3052C16.5499 19.6902 16.7539 19.4863 16.7539 19.2416Z" fill="white"/>
<path d="M10.4115 22.2392C10.3707 22.2596 9.41229 22.6878 8.47428 23.4423C8.4335 23.1976 8.39272 22.9325 8.22958 22.6878C8.10724 22.5043 7.90332 22.4023 7.65862 22.382C7.06727 22.382 6.41474 23.1161 6.14965 23.4423C6.00691 23.6258 6.0273 23.9113 6.23122 24.0541C6.41474 24.1968 6.70022 24.1764 6.84296 23.9725C7.06727 23.687 7.37314 23.4015 7.53627 23.2996C7.55666 23.4015 7.57706 23.5239 7.59745 23.6462C7.63823 23.9521 7.67901 24.3192 8.02567 24.4619C8.10724 24.4823 8.16841 24.5027 8.24998 24.5027C8.51507 24.5027 8.75976 24.3191 8.98407 24.1356C9.84051 23.4219 10.7173 23.0345 10.7377 23.0345C10.962 22.9325 11.064 22.6674 10.962 22.4431C10.8805 22.2392 10.6358 22.1373 10.4115 22.2392Z" fill="white"/>
<path d="M27.0518 22.055H22.219V20.75H22.6269C22.8716 20.75 23.0755 20.5461 23.0755 20.3014V19.6896C23.0755 17.9971 23.2998 16.5493 23.7688 15.2647C23.8911 14.8976 23.9727 14.5306 23.9727 14.1431C23.9727 13.2051 23.5649 12.3283 22.8716 11.6962C22.1783 11.064 21.2606 10.7581 20.3226 10.8601C18.8748 11.0232 17.6717 12.1855 17.4474 13.613C17.3659 14.1227 17.4066 14.6325 17.5698 15.1219C18.0796 16.6921 18.3243 18.0991 18.3243 19.3838V20.3014C18.3243 20.5461 18.5282 20.75 18.7729 20.75H19.1807V22.055H14.3275C14.0828 22.055 13.8789 22.259 13.8789 22.5037V25.3789C13.8789 25.6236 14.0828 25.8275 14.3275 25.8275H15.184V27.0714C15.184 27.3161 15.3879 27.52 15.6326 27.52H25.7672C26.0119 27.52 26.2158 27.3161 26.2158 27.0714C26.2158 26.8267 26.0119 26.6227 25.7672 26.6227H16.0608V25.8275H27.0518C27.2965 25.8275 27.5004 25.6236 27.5004 25.3789V22.4833C27.5004 22.2386 27.2965 22.055 27.0518 22.055ZM20.0371 20.75H21.3422V22.055H20.0371V20.75Z" fill="white"/>
</svg>
