<svg width="24" height="24" viewBox="0 0 24 24" fill="none" xmlns="http://www.w3.org/2000/svg">
<path d="M20.5 20H16V22H18V23H20V22H20.5C21.163 22 21.7989 21.7366 22.2678 21.2678C22.7366 20.7989 23 20.163 23 19.5C23 18.837 22.7366 18.2011 22.2678 17.7322C21.7989 17.2634 21.163 17 20.5 17H17.5C17.3674 17 17.2402 16.9473 17.1464 16.8536C17.0527 16.7598 17 16.6326 17 16.5C17 16.3674 17.0527 16.2402 17.1464 16.1464C17.2402 16.0527 17.3674 16 17.5 16H22V14H20V13H18V14H17.5C16.837 14 16.2011 14.2634 15.7322 14.7322C15.2634 15.2011 15 15.837 15 16.5C15 17.163 15.2634 17.7989 15.7322 18.2678C16.2011 18.7366 16.837 19 17.5 19H20.5C20.6326 19 20.7598 19.0527 20.8536 19.1464C20.9473 19.2402 21 19.3674 21 19.5C21 19.6326 20.9473 19.7598 20.8536 19.8536C20.7598 19.9473 20.6326 20 20.5 20Z" fill="#6C757D"/>
<path d="M20 3H17V1H15V3H9V1H7V3H4C3.73478 3 3.48043 3.10536 3.29289 3.29289C3.10536 3.48043 3 3.73478 3 4V21C3 21.2652 3.10536 21.5196 3.29289 21.7071C3.48043 21.8946 3.73478 22 4 22H14V20H5V5H7V7H9V5H15V7H17V5H19V11H21V4C21 3.73478 20.8946 3.48043 20.7071 3.29289C20.5196 3.10536 20.2652 3 20 3Z" fill="#6C757D"/>
<path d="M17 9H7V11H17V9Z" fill="#6C757D"/>
<path d="M13 13H7V15H13V13Z" fill="#6C757D"/>
</svg>
