<svg width="30" height="30" viewBox="0 0 30 30" fill="none" xmlns="http://www.w3.org/2000/svg">
<path d="M26.7672 26.0349H25.986V11.582C25.986 11.1775 25.6581 10.8496 25.2536 10.8496H22.3239C21.9195 10.8496 21.5915 11.1775 21.5915 11.582V26.0349H20.1267V16.4648C20.1267 16.0603 19.7988 15.7324 19.3943 15.7324H16.4647C16.0602 15.7324 15.7322 16.0603 15.7322 16.4648V26.0349H14.2674V19.1503C14.2674 18.7458 13.9395 18.4179 13.535 18.4179H10.6054C10.2009 18.4179 9.87295 18.7458 9.87295 19.1503V26.0349H8.40812V20.9081C8.40812 20.5036 8.0802 20.1757 7.67571 20.1757H4.74606C4.34158 20.1757 4.01365 20.5036 4.01365 20.9081V26.0349H3.23241C2.82793 26.0349 2.5 26.3629 2.5 26.7674C2.5 27.1718 2.82793 27.4998 3.23241 27.4998H26.7672C27.1717 27.4998 27.4997 27.1718 27.4997 26.7674C27.4997 26.3629 27.1717 26.0349 26.7672 26.0349Z" fill="white"/>
<path d="M3.23241 18.2374C7.80354 18.2374 12.7606 16.5958 17.1905 13.6148C20.66 11.2801 23.5521 8.29758 25.3485 5.24357L26.0598 7.89817C26.1475 8.22542 26.5709 8.50813 26.9568 8.41604C27.3503 8.32219 27.5794 7.90975 27.4747 7.51903L26.2754 3.04302C26.1706 2.65235 25.7692 2.42042 25.3783 2.52515L20.9023 3.7245C20.5116 3.82919 20.2798 4.23079 20.3845 4.62151C20.4892 5.01223 20.8906 5.24416 21.2815 5.13937L24.165 4.36673C22.489 7.27909 19.7191 10.1476 16.3727 12.3995C12.1819 15.2196 7.51531 16.7726 3.23241 16.7726C2.82793 16.7726 2.5 17.1005 2.5 17.505C2.5 17.9095 2.82793 18.2374 3.23241 18.2374Z" fill="white"/>
</svg>
