<svg width="24" height="26" viewBox="0 0 24 26" fill="none" xmlns="http://www.w3.org/2000/svg">
<path d="M12 25.0585C18.6274 25.0585 24 19.449 24 12.5293C24 5.60954 18.6274 0 12 0C5.37258 0 0 5.60954 0 12.5293C0 19.449 5.37258 25.0585 12 25.0585Z" fill="black" fill-opacity="0.2"/>
<path fill-rule="evenodd" clip-rule="evenodd" d="M7.06494 12.8037C7.06494 12.4577 7.33357 12.1772 7.66494 12.1772H16.3349C16.6663 12.1772 16.9349 12.4577 16.9349 12.8037C16.9349 13.1497 16.6663 13.4302 16.3349 13.4302H7.66494C7.33357 13.4302 7.06494 13.1497 7.06494 12.8037Z" fill="white"/>
<path fill-rule="evenodd" clip-rule="evenodd" d="M12.3107 8.60194C12.545 8.35729 12.9249 8.35729 13.1592 8.60194L16.7592 12.3607C16.9935 12.6054 16.9935 13.002 16.7592 13.2467C16.5249 13.4913 16.145 13.4913 15.9107 13.2467L12.3107 9.48789C12.0764 9.24325 12.0764 8.84659 12.3107 8.60194Z" fill="white"/>
<path fill-rule="evenodd" clip-rule="evenodd" d="M16.7246 12.3273C16.9766 12.552 17.0064 12.9474 16.7912 13.2105L13.6352 17.0695C13.42 17.3326 13.0413 17.3638 12.7893 17.1391C12.5373 16.9144 12.5075 16.519 12.7226 16.2559L15.8786 12.3969C16.0938 12.1338 16.4726 12.1026 16.7246 12.3273Z" fill="white"/>
</svg>
