<svg width="24" height="24" viewBox="0 0 24 24" fill="none" xmlns="http://www.w3.org/2000/svg">
<rect width="24" height="24" rx="4" fill="#08ACFB"/>
<path d="M17.1565 10.1023H16.8364V8.55733C16.8364 8.5477 16.8348 8.538 16.8336 8.52825C16.833 8.46689 16.8135 8.40666 16.7715 8.35892L14.2008 5.42243C14.2 5.42167 14.1992 5.4214 14.1987 5.4206C14.1834 5.40348 14.1656 5.38923 14.1467 5.37693C14.141 5.37318 14.1354 5.37004 14.1295 5.36676C14.1132 5.35786 14.0958 5.35044 14.078 5.34507C14.0731 5.34373 14.0688 5.34181 14.064 5.3405C14.0445 5.33588 14.0243 5.33301 14.004 5.33301H7.68603C7.39752 5.33301 7.16317 5.56765 7.16317 5.85589V10.1022H6.84307C6.43034 10.1022 6.0957 10.4366 6.0957 10.8495V14.7358C6.0957 15.1483 6.43034 15.4831 6.84307 15.4831H7.16317V18.1435C7.16317 18.4317 7.39752 18.6663 7.68603 18.6663H16.3135C16.6017 18.6663 16.8364 18.4317 16.8364 18.1435V15.4831H17.1565C17.5691 15.4831 17.9038 15.1484 17.9038 14.7358V10.8496C17.9038 10.4367 17.5691 10.1023 17.1565 10.1023ZM7.68603 5.85589H13.7425V8.53102C13.7425 8.67554 13.8597 8.79246 14.0039 8.79246H16.3135V10.1023H7.68603V5.85589ZM13.9596 12.5803C13.9596 13.7688 13.239 14.4893 12.1794 14.4893C11.1038 14.4893 10.4745 13.6773 10.4745 12.6448C10.4745 11.5584 11.1683 10.7464 12.2385 10.7464C13.3516 10.7464 13.9596 11.5798 13.9596 12.5803ZM6.89783 14.4141V10.8541C7.19899 10.8056 7.5915 10.7787 8.00581 10.7787C8.69413 10.7787 9.14041 10.9024 9.49001 11.1658C9.86645 11.4456 10.1032 11.892 10.1032 12.5319C10.1032 13.2257 9.8505 13.7042 9.501 14C9.11911 14.3174 8.53823 14.4678 7.82826 14.4678C7.40316 14.4679 7.10213 14.441 6.89783 14.4141ZM16.3135 18.0018H7.68603V15.4831H16.3135V18.0018ZM16.353 13.8065C16.6004 13.8065 16.8748 13.7525 17.036 13.6882L17.1599 14.3281C17.0092 14.4037 16.6704 14.484 16.2295 14.484C14.9764 14.484 14.331 13.7043 14.331 12.6716C14.331 11.435 15.213 10.7464 16.3099 10.7464C16.7347 10.7464 17.0577 10.8324 17.203 10.9078L17.0361 11.5584C16.8695 11.4885 16.6383 11.4239 16.3477 11.4239C15.697 11.4239 15.1914 11.8165 15.1914 12.6232C15.1913 13.3492 15.6216 13.8065 16.353 13.8065Z" fill="white"/>
<path d="M9.23195 12.5582C9.23732 11.8051 8.79624 11.4072 8.09192 11.4072C7.90905 11.4072 7.79047 11.4233 7.7207 11.4395V13.8113C7.79045 13.8275 7.90358 13.8275 8.00581 13.8275C8.7479 13.8328 9.23195 13.424 9.23195 12.5582Z" fill="white"/>
<path d="M11.3398 12.6279C11.3398 13.338 11.6733 13.8381 12.2218 13.8381C12.7759 13.8381 13.0931 13.3109 13.0931 12.6065C13.0931 11.9556 12.7812 11.3965 12.2165 11.3965C11.6628 11.3966 11.3398 11.9236 11.3398 12.6279Z" fill="white"/>
</svg>
