<svg width="30" height="30" viewBox="0 0 30 30" fill="none" xmlns="http://www.w3.org/2000/svg">
<path fill-rule="evenodd" clip-rule="evenodd" d="M13.4995 20.6245C13.4995 16.6894 16.6894 13.4995 20.6245 13.4995C24.5597 13.4995 27.7495 16.6901 27.7495 20.6245C27.7495 24.5589 24.5597 27.7495 20.6245 27.7495C16.6894 27.7495 13.4995 24.5597 13.4995 20.6245ZM20.8356 23.2554C19.3149 23.2554 18.0361 22.7838 17.4578 22.0896V22.892C17.4578 23.0297 17.4926 23.1634 17.5583 23.2917C17.6689 23.5067 17.8653 23.7061 18.1274 23.8809C18.7489 24.296 19.7416 24.5705 20.8356 24.5705C22.6671 24.5705 24.2133 23.802 24.2133 22.892V22.0896C23.635 22.7838 22.3563 23.2554 20.8356 23.2554ZM17.4578 20.4104C18.0361 21.1046 19.3149 21.577 20.8356 21.577C22.3563 21.577 23.635 21.1046 24.2133 20.4104V21.2469C24.2133 22.1568 22.6671 22.9253 20.8356 22.9253C19.0048 22.9253 17.4578 22.1568 17.4578 21.2469V20.4104ZM22.4436 19.4563C22.6988 19.386 22.9346 19.2994 23.1456 19.1997C23.7757 18.9012 24.1824 18.4869 24.2087 18.0338C24.1569 17.1447 22.6346 16.4018 20.8356 16.4018C19.8398 16.4018 18.9291 16.6291 18.3052 16.9832C17.8019 17.2684 17.4857 17.6364 17.4625 18.0338C17.5143 18.9237 19.0358 19.6666 20.8356 19.6666C21.4139 19.6666 21.9628 19.5901 22.4436 19.4563ZM17.4578 18.8309C18.0361 19.5259 19.3149 19.9975 20.8356 19.9975C22.3563 19.9975 23.635 19.5251 24.2133 18.8309V19.5661C24.2133 20.4753 22.6671 21.2445 20.8356 21.2445C19.0048 21.2445 17.4578 20.4753 17.4578 19.5661V18.8309Z" fill="white"/>
<path fill-rule="evenodd" clip-rule="evenodd" d="M3 3V25.5H12.75C12.75 25.1638 12.761 24.8298 12.7844 24.5002H4.02832V3.99976H14.4858V9.75H19.9717V12H21V9.24976L15 3H3ZM15.5149 5.00098L19.1125 8.75024H15.5149V5.00098Z" fill="white"/>
<path d="M12.75 15.75C13.1213 15.3984 13.5117 15.0645 13.9182 14.7502H9.42847V15.75H12.75Z" fill="white"/>
<path d="M11.8887 19.7498C11.9399 19.6296 11.9927 19.5095 12.0469 19.3909C12.0981 19.2795 12.1509 19.1689 12.2051 19.0591C12.2556 18.9558 12.3076 18.8525 12.3604 18.75H9.42847V19.7498H11.8887Z" fill="white"/>
<path d="M8.14307 15.2498C8.14307 15.9404 7.56738 16.5 6.85693 16.5C6.14722 16.5 5.57153 15.9404 5.57153 15.2498C5.57153 14.77 5.84985 14.3533 6.25781 14.1438C6.31128 14.116 6.36768 14.0925 6.42554 14.0728C6.5603 14.0259 6.70605 14.0002 6.85693 14.0002C7.3645 14.0002 7.80322 14.2859 8.0127 14.7004C8.09619 14.866 8.14307 15.0527 8.14307 15.2498Z" fill="white"/>
<path d="M7.17041 20.4624C7.07007 20.4866 6.96533 20.4998 6.85693 20.4998C6.46436 20.4998 6.11279 20.3284 5.87695 20.0588C5.83887 20.0156 5.80371 19.9688 5.77148 19.9197C5.74146 19.8735 5.71436 19.8252 5.69019 19.7754C5.61328 19.615 5.57153 19.4377 5.57153 19.2502C5.57153 18.5596 6.14722 18 6.85693 18C7.56738 18 8.14307 18.5596 8.14307 19.2502C8.14307 19.3447 8.13208 19.4363 8.11157 19.5242C8.09106 19.6121 8.06177 19.6963 8.02368 19.7761C7.91089 20.0127 7.72412 20.209 7.49194 20.3372C7.39233 20.3921 7.28467 20.4346 7.17041 20.4624Z" fill="white"/>
<path fill-rule="evenodd" clip-rule="evenodd" d="M8.14307 7.5C6.7229 7.5 5.57153 8.61914 5.57153 9.99976C5.57153 11.3811 6.7229 12.5002 8.14307 12.5002C9.56323 12.5002 10.7146 11.3811 10.7146 9.99976C10.7153 8.61914 9.56396 7.5 8.14307 7.5ZM8.46021 11.6843V12.241H7.80615V11.7275C7.68384 11.718 7.56152 11.699 7.44653 11.6711C7.36523 11.6514 7.28687 11.6272 7.21509 11.6001C7.1272 11.5671 7.0481 11.5291 6.98291 11.4866L6.91846 11.4441L7.12207 10.7527L7.24072 10.8201C7.48022 10.957 7.76587 11.0361 8.02515 11.0361C8.15991 11.0361 8.27124 11.009 8.35181 10.9592C8.43896 10.905 8.4895 10.8252 8.4895 10.7263C8.4895 10.675 8.47925 10.6216 8.43823 10.5659C8.40967 10.5264 8.36572 10.4854 8.29907 10.4436C8.22363 10.396 8.1189 10.3469 7.97388 10.2957C7.48022 10.1221 6.97339 9.86353 6.97339 9.26367C6.97339 8.78101 7.30225 8.41479 7.83984 8.29175V7.76001H8.49243V8.25C8.57593 8.25586 8.65576 8.26611 8.73267 8.28076C8.8894 8.31079 9.03442 8.35986 9.17578 8.42871L9.25488 8.46753L9.0498 9.14429L8.90845 9.0813C8.78174 9.02344 8.56787 8.92676 8.25146 8.92676C7.99951 8.92676 7.8479 9.02417 7.8479 9.18823C7.8479 9.33179 7.98926 9.43359 8.43091 9.60571C9.08789 9.84448 9.36914 10.1624 9.36914 10.6677C9.36841 11.1731 9.01392 11.5642 8.46021 11.6843Z" fill="white"/>
</svg>
