<svg width="16" height="16" viewBox="0 0 16 16" fill="none" xmlns="http://www.w3.org/2000/svg">
<path fill-rule="evenodd" clip-rule="evenodd" d="M8.06444 7.50003C8.34057 7.50288 8.5621 7.72904 8.55925 8.00516L8.49289 14.4308C8.49004 14.7069 8.26389 14.9285 7.98776 14.9256C7.71163 14.9228 7.4901 14.6966 7.49295 14.4205L7.5593 7.99484C7.56215 7.71871 7.78831 7.49718 8.06444 7.50003Z" fill="#6C757D"/>
<path fill-rule="evenodd" clip-rule="evenodd" d="M7.50086 1.20378C7.65098 1.11893 7.82048 1.07434 7.99292 1.07434C8.16536 1.07434 8.33486 1.11893 8.48498 1.20378L13.735 4.17117C13.8891 4.25831 14.0174 4.38482 14.1066 4.53778C14.1959 4.69073 14.2429 4.86464 14.2429 5.04173V10.9583C14.2429 11.1354 14.1959 11.3093 14.1066 11.4622C14.0174 11.6152 13.8891 11.7417 13.735 11.8288L8.48498 14.7962C8.33486 14.8811 8.16535 14.9257 7.99292 14.9257C7.82049 14.9257 7.65098 14.8811 7.50086 14.7962L2.25086 11.8288C2.0967 11.7417 1.96843 11.6152 1.87919 11.4622C1.78995 11.3093 1.74292 11.1354 1.74292 10.9583V5.04173C1.74292 4.86464 1.78995 4.69073 1.87919 4.53778C1.96843 4.38482 2.0967 4.25831 2.25086 4.17117L2.49689 4.60645L2.25086 4.17117L7.50086 1.20378ZM7.99292 2.07434L2.74292 5.04173L2.74292 10.9583L7.99292 13.9257L13.2429 10.9583V5.04173L7.99292 2.07434L8.23895 1.63906L7.99292 2.07434L7.74689 1.63906L7.99292 2.07434Z" fill="#6C757D"/>
<path fill-rule="evenodd" clip-rule="evenodd" d="M1.87538 4.54465C2.01007 4.30359 2.31469 4.21736 2.55575 4.35206L8.05646 7.42569L13.4263 4.35518C13.666 4.21811 13.9715 4.30132 14.1085 4.54104C14.2456 4.78076 14.1624 5.08621 13.9227 5.22328L8.30749 8.43409C8.15524 8.52115 7.96851 8.52207 7.8154 8.43652L2.06796 5.22502C1.8269 5.09033 1.74068 4.78571 1.87538 4.54465Z" fill="#6C757D"/>
<path fill-rule="evenodd" clip-rule="evenodd" d="M4.82874 2.79795C4.96344 2.55688 5.26806 2.47066 5.50912 2.60536L11.3078 5.84548C11.4659 5.93384 11.5639 6.10082 11.5639 6.28196V9.28196C11.5639 9.55811 11.3401 9.78196 11.0639 9.78196C10.7878 9.78196 10.5639 9.55811 10.5639 9.28196V6.57534L5.02133 3.47832C4.78027 3.34362 4.69405 3.03901 4.82874 2.79795Z" fill="#6C757D"/>
</svg>
