<svg width="16" height="16" viewBox="0 0 16 16" fill="none" xmlns="http://www.w3.org/2000/svg">
<path fill-rule="evenodd" clip-rule="evenodd" d="M3 3C3 2.72386 3.22386 2.5 3.5 2.5H12.5C12.7761 2.5 13 2.72386 13 3C13 3.27614 12.7761 3.5 12.5 3.5H3.5C3.22386 3.5 3 3.27614 3 3Z" fill="#6C757D"/>
<path fill-rule="evenodd" clip-rule="evenodd" d="M3.55842 5.5L3.0227 8H12.9773L12.4416 5.5H3.55842ZM13.25 4.5H2.75L2 8V9H14V8L13.25 4.5Z" fill="#6C757D"/>
<path fill-rule="evenodd" clip-rule="evenodd" d="M3.75 9V12.5H7.75V9H3.75ZM2.75 12.5C2.75 13.0523 3.19772 13.5 3.75 13.5H7.75C8.30228 13.5 8.75 13.0523 8.75 12.5V8H2.75V12.5Z" fill="#6C757D"/>
<path fill-rule="evenodd" clip-rule="evenodd" d="M12.75 8C13.0261 8 13.25 8.22386 13.25 8.5V13C13.25 13.2761 13.0261 13.5 12.75 13.5C12.4739 13.5 12.25 13.2761 12.25 13V8.5C12.25 8.22386 12.4739 8 12.75 8Z" fill="#6C757D"/>
</svg>
