<svg width="14" height="14" viewBox="0 0 14 14" fill="none" xmlns="http://www.w3.org/2000/svg">
<path fill-rule="evenodd" clip-rule="evenodd" d="M0.333496 6.20524C0.333496 2.96761 2.96763 0.333496 6.20522 0.333496C9.44297 0.333496 12.0769 2.96761 12.0769 6.20524C12.0769 7.62939 11.5673 8.93685 10.7209 9.95459L13.508 12.7415C13.7197 12.9531 13.7197 13.2964 13.508 13.508C13.4021 13.6138 13.2633 13.6668 13.1248 13.6668C12.986 13.6668 12.8474 13.6138 12.7416 13.508L9.95445 10.7209C8.93671 11.5674 7.62937 12.077 6.20522 12.077C2.96763 12.077 0.333496 9.44303 0.333496 6.20524ZM1.41751 6.20524C1.41751 8.84521 3.56529 10.993 6.20522 10.993C8.84513 10.993 10.9929 8.84521 10.9929 6.20524C10.9929 3.56527 8.84513 1.41748 6.20522 1.41748C3.56529 1.41748 1.41751 3.56527 1.41751 6.20524Z" fill="white"/>
</svg>
