<svg width="16" height="16" viewBox="0 0 16 16" fill="none" xmlns="http://www.w3.org/2000/svg">
<g opacity="0.8">
<path fill-rule="evenodd" clip-rule="evenodd" d="M10.6667 2H12.6667C13.403 2 14 2.59695 14 3.33333V12.6667C14 13.403 13.403 14 12.6667 14H10.6667C9.93029 14 9.33333 13.403 9.33333 12.6667V8.66674H5.2L6.46667 9.9334C6.7244 10.1911 6.7244 10.609 6.46667 10.8667C6.20893 11.1245 5.79107 11.1245 5.53333 10.8667L2.66667 8.00007L5.53333 5.1334C5.79107 4.87567 6.20893 4.87567 6.46667 5.1334C6.7244 5.39114 6.7244 5.809 6.46667 6.06674L5.2 7.3334H9.33333V3.33333C9.33333 2.59695 9.93029 2 10.6667 2ZM9.33333 7.3334H11.3333C11.7015 7.3334 12 7.63188 12 8.00007C12 8.36826 11.7015 8.66674 11.3333 8.66674H9.33333V7.3334Z" fill="#939BA2"/>
</g>
</svg>
