<svg width="56" height="56" viewBox="0 0 56 56" fill="none" xmlns="http://www.w3.org/2000/svg">
<circle cx="28" cy="28" r="28" fill="#F8B425"/>
<path d="M17.4272 21.6798C19.7606 19.3332 22.8406 18.1598 25.9072 18.1598V13.8398L31.5606 19.4932L25.9072 25.1465V20.8265C23.5206 20.8265 21.1339 21.7332 19.3072 23.5598C17.1266 25.7405 16.2523 28.7393 16.6844 31.5761L14.0347 31.9073C13.5032 28.2846 14.634 24.4651 17.4272 21.6798Z" fill="white"/>
<path d="M14.3022 33.2175C14.7681 34.9887 15.6463 36.6739 16.9367 38.1212L18.8217 36.2361C17.9595 35.2323 17.3458 34.0874 16.9804 32.8828L14.3022 33.2175Z" fill="white"/>
<path d="M19.7597 37.1837L17.8754 39.068C18.9496 40.0426 20.1609 40.7867 21.4434 41.3005L22.9639 39.0198C21.8132 38.6388 20.7214 38.0274 19.7597 37.1837Z" fill="white"/>
<path d="M24.3386 39.3615L22.7535 41.7392C23.7854 42.0196 24.8471 42.1598 25.9072 42.1598C27.8939 42.1598 29.8806 41.6532 31.6806 40.6665L29.6939 38.6798C28.4939 39.2132 27.2006 39.4932 25.9072 39.4932C25.3824 39.4932 24.8575 39.4493 24.3386 39.3615Z" fill="white"/>
<path fill-rule="evenodd" clip-rule="evenodd" d="M42.0939 30.0265L33.4539 21.3732L24.7872 30.0265L33.4406 38.6665L42.0939 30.0265ZM33.4406 25.1465L38.3206 30.0265L33.4539 34.9065L28.5739 30.0265L33.4406 25.1465Z" fill="white"/>
</svg>
