<svg width="30" height="30" viewBox="0 0 30 30" fill="none" xmlns="http://www.w3.org/2000/svg">
<path d="M15 20.2083C14.5687 20.2083 14.2188 19.8583 14.2188 19.4271V12.6562C14.2188 12.225 14.5687 11.875 15 11.875C15.4312 11.875 15.7812 12.225 15.7812 12.6562V19.4271C15.7812 19.8583 15.4312 20.2083 15 20.2083Z" fill="white"/>
<path d="M11.6152 18.1256C11.184 18.1256 10.834 17.7756 10.834 17.3444V14.7402C10.834 14.309 11.184 13.959 11.6152 13.959C12.0465 13.959 12.3965 14.309 12.3965 14.7402V17.3444C12.3965 17.7756 12.0465 18.1256 11.6152 18.1256Z" fill="white"/>
<path d="M18.3848 18.1256C17.9535 18.1256 17.6035 17.7756 17.6035 17.3444V14.7402C17.6035 14.309 17.9535 13.959 18.3848 13.959C18.816 13.959 19.166 14.309 19.166 14.7402V17.3444C19.166 17.7756 18.816 18.1256 18.3848 18.1256Z" fill="white"/>
<path d="M7.03753 12.9161C6.53857 12.9161 6.04482 12.7234 5.67294 12.3516L3.06149 9.73906C2.68024 9.35781 2.48024 8.84948 2.50211 8.30885C2.52294 7.75885 2.77711 7.23594 3.20003 6.87344C9.96774 1.07969 20.1198 1.07969 26.8125 6.86719C27.2271 7.22552 27.4771 7.74115 27.499 8.28385C27.5209 8.82344 27.3229 9.33177 26.9438 9.71615L24.4104 12.2859C23.7771 12.9203 22.8021 13.0432 22.0407 12.587L19.3907 11.0026C18.7198 10.6026 18.3594 9.84219 18.4719 9.06719L18.7084 7.45573C16.3427 6.79323 13.7917 6.78698 11.3948 7.43698L11.6271 9.10156C11.7344 9.87344 11.3709 10.6328 10.7011 11.0349L8.04065 12.637C7.72919 12.8255 7.38232 12.9161 7.03753 12.9161Z" fill="white"/>
<path d="M6.66732 22.2917C7.81791 22.2917 8.75065 21.3589 8.75065 20.2083C8.75065 19.0577 7.81791 18.125 6.66732 18.125C5.51672 18.125 4.58398 19.0577 4.58398 20.2083C4.58398 21.3589 5.51672 22.2917 6.66732 22.2917Z" fill="white"/>
<path d="M7.96875 23.334H5.36458C3.78438 23.334 2.5 24.6184 2.5 26.1986V26.7194C2.5 27.1506 2.85 27.5006 3.28125 27.5006H10.0521C10.4833 27.5006 10.8333 27.1506 10.8333 26.7194V26.1986C10.8333 24.6184 9.54896 23.334 7.96875 23.334Z" fill="white"/>
<path d="M23.3333 22.2917C24.4839 22.2917 25.4167 21.3589 25.4167 20.2083C25.4167 19.0577 24.4839 18.125 23.3333 18.125C22.1827 18.125 21.25 19.0577 21.25 20.2083C21.25 21.3589 22.1827 22.2917 23.3333 22.2917Z" fill="white"/>
<path d="M24.6348 23.334H22.0306C20.4504 23.334 19.166 24.6184 19.166 26.1986V26.7194C19.166 27.1506 19.516 27.5006 19.9473 27.5006H26.7181C27.1493 27.5006 27.4993 27.1506 27.4993 26.7194V26.1986C27.4993 24.6184 26.215 23.334 24.6348 23.334Z" fill="white"/>
</svg>
