<svg width="10" height="10" viewBox="0 0 10 10" fill="none" xmlns="http://www.w3.org/2000/svg">
<mask id="path-1-inside-1_742_11060" fill="white">
<path d="M9.66671 1.27325L8.72671 0.333252L5.00004 4.05992L1.27337 0.333252L0.333374 1.27325L4.06004 4.99992L0.333374 8.72659L1.27337 9.66659L5.00004 5.93992L8.72671 9.66659L9.66671 8.72659L5.94004 4.99992L9.66671 1.27325Z"/>
</mask>
<path d="M9.66671 1.27325L8.72671 0.333252L5.00004 4.05992L1.27337 0.333252L0.333374 1.27325L4.06004 4.99992L0.333374 8.72659L1.27337 9.66659L5.00004 5.93992L8.72671 9.66659L9.66671 8.72659L5.94004 4.99992L9.66671 1.27325Z" fill="black" fill-opacity="0.5"/>
<path d="M9.66671 1.27325L10.7274 2.33391L11.788 1.27325L10.7274 0.212592L9.66671 1.27325ZM8.72671 0.333252L9.78737 -0.727408L8.72671 -1.78807L7.66605 -0.727408L8.72671 0.333252ZM5.00004 4.05992L3.93938 5.12058L5.00004 6.18124L6.0607 5.12058L5.00004 4.05992ZM1.27337 0.333252L2.33403 -0.727408L1.27337 -1.78807L0.212714 -0.727408L1.27337 0.333252ZM0.333374 1.27325L-0.727286 0.212592L-1.78795 1.27325L-0.727286 2.33391L0.333374 1.27325ZM4.06004 4.99992L5.1207 6.06058L6.18136 4.99992L5.1207 3.93926L4.06004 4.99992ZM0.333374 8.72659L-0.727286 7.66593L-1.78795 8.72659L-0.727286 9.78725L0.333374 8.72659ZM1.27337 9.66659L0.212714 10.7272L1.27337 11.7879L2.33403 10.7272L1.27337 9.66659ZM5.00004 5.93992L6.0607 4.87926L5.00004 3.8186L3.93938 4.87926L5.00004 5.93992ZM8.72671 9.66659L7.66605 10.7272L8.72671 11.7879L9.78737 10.7272L8.72671 9.66659ZM9.66671 8.72659L10.7274 9.78725L11.788 8.72659L10.7274 7.66593L9.66671 8.72659ZM5.94004 4.99992L4.87938 3.93926L3.81872 4.99992L4.87938 6.06058L5.94004 4.99992ZM10.7274 0.212592L9.78737 -0.727408L7.66605 1.39391L8.60605 2.33391L10.7274 0.212592ZM7.66605 -0.727408L3.93938 2.99926L6.0607 5.12058L9.78737 1.39391L7.66605 -0.727408ZM6.0607 2.99926L2.33403 -0.727408L0.212714 1.39391L3.93938 5.12058L6.0607 2.99926ZM0.212714 -0.727408L-0.727286 0.212592L1.39403 2.33391L2.33403 1.39391L0.212714 -0.727408ZM-0.727286 2.33391L2.99938 6.06058L5.1207 3.93926L1.39403 0.212592L-0.727286 2.33391ZM2.99938 3.93926L-0.727286 7.66593L1.39403 9.78725L5.1207 6.06058L2.99938 3.93926ZM-0.727286 9.78725L0.212714 10.7272L2.33403 8.60593L1.39403 7.66593L-0.727286 9.78725ZM2.33403 10.7272L6.0607 7.00058L3.93938 4.87926L0.212714 8.60593L2.33403 10.7272ZM3.93938 7.00058L7.66605 10.7272L9.78737 8.60593L6.0607 4.87926L3.93938 7.00058ZM9.78737 10.7272L10.7274 9.78725L8.60605 7.66593L7.66605 8.60593L9.78737 10.7272ZM10.7274 7.66593L7.0007 3.93926L4.87938 6.06058L8.60605 9.78725L10.7274 7.66593ZM7.0007 6.06058L10.7274 2.33391L8.60605 0.212592L4.87938 3.93926L7.0007 6.06058Z" fill="#9E9E9E" mask="url(#path-1-inside-1_742_11060)"/>
</svg>
