<svg width="12" height="14" viewBox="0 0 12 14" fill="none" xmlns="http://www.w3.org/2000/svg">
<mask id="path-1-inside-1_742_11054" fill="white">
<path d="M1.14785 12.1855C2.58092 13.6186 4.90023 13.6186 6.3333 12.1855L11.7545 6.7644L11.0473 6.05729L5.62619 11.4784C4.58439 12.5202 2.89676 12.5202 1.85496 11.4784C0.813154 10.4366 0.813154 8.74901 1.85496 7.70721L7.74751 1.81465C8.39805 1.16411 9.454 1.16411 10.1045 1.81465C10.7551 2.46519 10.7551 3.52113 10.1045 4.17167L5.15479 9.12142C4.89552 9.38069 4.47125 9.38069 4.21198 9.12142C3.95271 8.86215 3.95271 8.43788 4.21198 8.17861L8.69032 3.70027L7.98322 2.99316L3.50487 7.4715C2.85434 8.12204 2.85434 9.17799 3.50487 9.82853C4.15541 10.4791 5.21136 10.4791 5.8619 9.82853L10.8116 4.87878C11.8534 3.83697 11.8534 2.14935 10.8116 1.10754C9.76984 0.0657379 8.08221 0.0657379 7.04041 1.10754L1.14785 7.0001C-0.285218 8.43317 -0.285218 10.7525 1.14785 12.1855Z"/>
</mask>
<path d="M1.14785 12.1855C2.58092 13.6186 4.90023 13.6186 6.3333 12.1855L11.7545 6.7644L11.0473 6.05729L5.62619 11.4784C4.58439 12.5202 2.89676 12.5202 1.85496 11.4784C0.813154 10.4366 0.813154 8.74901 1.85496 7.70721L7.74751 1.81465C8.39805 1.16411 9.454 1.16411 10.1045 1.81465C10.7551 2.46519 10.7551 3.52113 10.1045 4.17167L5.15479 9.12142C4.89552 9.38069 4.47125 9.38069 4.21198 9.12142C3.95271 8.86215 3.95271 8.43788 4.21198 8.17861L8.69032 3.70027L7.98322 2.99316L3.50487 7.4715C2.85434 8.12204 2.85434 9.17799 3.50487 9.82853C4.15541 10.4791 5.21136 10.4791 5.8619 9.82853L10.8116 4.87878C11.8534 3.83697 11.8534 2.14935 10.8116 1.10754C9.76984 0.0657379 8.08221 0.0657379 7.04041 1.10754L1.14785 7.0001C-0.285218 8.43317 -0.285218 10.7525 1.14785 12.1855Z" fill="black" fill-opacity="0.5"/>
<path d="M11.7545 6.7644L12.8151 7.82506L13.8758 6.7644L12.8151 5.70374L11.7545 6.7644ZM11.0473 6.05729L12.108 4.99663L11.0473 3.93597L9.98669 4.99663L11.0473 6.05729ZM8.69032 3.70027L9.75098 4.76093L10.8116 3.70027L9.75098 2.63961L8.69032 3.70027ZM7.98322 2.99316L9.04388 1.9325L7.98322 0.87184L6.92256 1.9325L7.98322 2.99316ZM0.0871911 13.2462C2.10605 15.2651 5.3751 15.2651 7.39396 13.2462L5.27264 11.1249C4.42536 11.9722 3.05579 11.9722 2.20851 11.1249L0.0871911 13.2462ZM7.39396 13.2462L12.8151 7.82506L10.6938 5.70374L5.27264 11.1249L7.39396 13.2462ZM12.8151 5.70374L12.108 4.99663L9.98669 7.11795L10.6938 7.82506L12.8151 5.70374ZM9.98669 4.99663L4.56553 10.4178L6.68685 12.5391L12.108 7.11795L9.98669 4.99663ZM4.56553 10.4178C4.10952 10.8738 3.37164 10.8738 2.91562 10.4178L0.794298 12.5391C2.42189 14.1667 5.05926 14.1667 6.68685 12.5391L4.56553 10.4178ZM2.91562 10.4178C2.4596 9.96176 2.4596 9.22388 2.91562 8.76787L0.794298 6.64654C-0.833292 8.27414 -0.833293 10.9115 0.794298 12.5391L2.91562 10.4178ZM2.91562 8.76787L8.80817 2.87531L6.68685 0.753988L0.794298 6.64654L2.91562 8.76787ZM8.80817 2.87531C8.87293 2.81056 8.97912 2.81056 9.04388 2.87531L11.1652 0.753988C9.92887 -0.482336 7.92318 -0.482336 6.68685 0.753988L8.80817 2.87531ZM9.04388 2.87531C9.10863 2.94006 9.10863 3.04626 9.04388 3.11101L11.1652 5.23233C12.4015 3.99601 12.4015 1.99031 11.1652 0.753988L9.04388 2.87531ZM9.04388 3.11101L4.09413 8.06076L6.21545 10.1821L11.1652 5.23233L9.04388 3.11101ZM4.09413 8.06076C4.42064 7.73424 4.94613 7.73424 5.27264 8.06076L3.15132 10.1821C3.99638 11.0271 5.37039 11.0271 6.21545 10.1821L4.09413 8.06076ZM5.27264 8.06076C5.59915 8.38727 5.59915 8.91276 5.27264 9.23927L3.15132 7.11795C2.30626 7.96301 2.30626 9.33702 3.15132 10.1821L5.27264 8.06076ZM5.27264 9.23927L9.75098 4.76093L7.62966 2.63961L3.15132 7.11795L5.27264 9.23927ZM9.75098 2.63961L9.04388 1.9325L6.92256 4.05382L7.62966 4.76093L9.75098 2.63961ZM6.92256 1.9325L2.44421 6.41084L4.56553 8.53216L9.04388 4.05382L6.92256 1.9325ZM2.44421 6.41084C1.20789 7.64717 1.20789 9.65286 2.44421 10.8892L4.56553 8.76787C4.50078 8.70311 4.50078 8.59692 4.56553 8.53216L2.44421 6.41084ZM2.44421 10.8892C3.68054 12.1255 5.68623 12.1255 6.92256 10.8892L4.80124 8.76787C4.73648 8.83262 4.63029 8.83262 4.56553 8.76787L2.44421 10.8892ZM6.92256 10.8892L11.8723 5.93944L9.75098 3.81812L4.80124 8.76787L6.92256 10.8892ZM11.8723 5.93944C13.4999 4.31185 13.4999 1.67447 11.8723 0.0468817L9.75098 2.1682C10.207 2.62422 10.207 3.3621 9.75098 3.81812L11.8723 5.93944ZM11.8723 0.0468817C10.2447 -1.58071 7.60734 -1.58071 5.97975 0.0468817L8.10107 2.1682C8.55709 1.71218 9.29497 1.71218 9.75098 2.1682L11.8723 0.0468817ZM5.97975 0.0468817L0.0871915 5.93944L2.20851 8.06076L8.10107 2.1682L5.97975 0.0468817ZM0.0871915 5.93944C-1.93166 7.95829 -1.93166 11.2274 0.0871911 13.2462L2.20851 11.1249C1.36123 10.2776 1.36123 8.90804 2.20851 8.06076L0.0871915 5.93944Z" fill="#9E9E9E" mask="url(#path-1-inside-1_742_11054)"/>
</svg>
