<svg width="30" height="28" viewBox="0 0 30 28" fill="none" xmlns="http://www.w3.org/2000/svg">
<path d="M15.0001 14.7817L20.6574 20.4377L18.7708 22.3243L16.3334 19.887V27.3337H13.6668V19.8843L11.2294 22.3243L9.34277 20.4377L15.0001 14.7817ZM15.0001 0.666992C17.2894 0.667101 19.4989 1.50848 21.2084 3.03115C22.9179 4.55382 24.0082 6.65161 24.2721 8.92566C25.9311 9.37808 27.3784 10.3991 28.361 11.8104C29.3436 13.2216 29.799 14.9332 29.6476 16.6462C29.4962 18.3591 28.7477 19.9644 27.5329 21.1814C26.318 22.3985 24.7141 23.1499 23.0014 23.3043L23.0001 20.667C23.0022 18.5699 22.1807 16.5557 20.7126 15.0583C19.2444 13.5608 17.2469 12.6997 15.1501 12.6604C13.0534 12.621 11.025 13.4066 9.50168 14.848C7.97838 16.2894 7.08197 18.2712 7.00544 20.367L7.0001 20.667V23.3043C5.28737 23.1501 3.68331 22.3989 2.46828 21.1819C1.25325 19.965 0.504539 18.3597 0.353002 16.6468C0.201465 14.9338 0.656742 13.222 1.63926 11.8107C2.62178 10.3993 4.06905 9.37817 5.7281 8.92566C5.99171 6.65149 7.08198 4.55354 8.79154 3.03081C10.5011 1.50809 12.7107 0.66681 15.0001 0.666992Z" fill="#BDBDBD"/>
</svg>
