<svg width="28" height="28" viewBox="0 0 28 28" fill="none" xmlns="http://www.w3.org/2000/svg">
<path d="M4.572 23.4278C3.33205 22.1911 2.34872 20.7215 1.67851 19.1036C1.0083 17.4856 0.664435 15.7511 0.666667 13.9998C0.666667 6.63584 6.636 0.666504 14 0.666504C21.364 0.666504 27.3333 6.63584 27.3333 13.9998C27.3333 21.3638 21.364 27.3332 14 27.3332H0.666667L4.572 23.4278ZM8.66667 15.3332C8.66667 16.7477 9.22857 18.1042 10.2288 19.1044C11.229 20.1046 12.5855 20.6665 14 20.6665C15.4145 20.6665 16.771 20.1046 17.7712 19.1044C18.7714 18.1042 19.3333 16.7477 19.3333 15.3332H8.66667Z" fill="white"/>
</svg>
