<svg width="25" height="24" viewBox="0 0 25 24" fill="none" xmlns="http://www.w3.org/2000/svg">
<g clip-path="url(#clip0_442_27676)">
<path d="M15.3708 7.75689L9.71477 13.4139C9.61926 13.5061 9.54308 13.6165 9.49067 13.7385C9.43826 13.8605 9.41067 13.9917 9.40952 14.1245C9.40836 14.2573 9.43366 14.3889 9.48395 14.5118C9.53423 14.6347 9.60848 14.7464 9.70237 14.8403C9.79627 14.9342 9.90792 15.0084 10.0308 15.0587C10.1537 15.109 10.2854 15.1343 10.4182 15.1331C10.5509 15.132 10.6822 15.1044 10.8042 15.052C10.9262 14.9996 11.0365 14.9234 11.1288 14.8279L16.7858 9.17189C17.3484 8.60923 17.6645 7.8461 17.6645 7.05039C17.6645 6.25467 17.3484 5.49154 16.7858 4.92889C16.2231 4.36623 15.46 4.05013 14.6643 4.05013C13.8686 4.05013 13.1054 4.36623 12.5428 4.92889L6.88577 10.5859C6.41184 11.048 6.0344 11.5996 5.77533 12.2088C5.51625 12.8179 5.38071 13.4724 5.37656 14.1344C5.37242 14.7963 5.49975 15.4525 5.75116 16.0648C6.00258 16.6771 6.37309 17.2334 6.84118 17.7015C7.30928 18.1695 7.86565 18.5399 8.47802 18.7913C9.09039 19.0426 9.74657 19.1698 10.4085 19.1656C11.0704 19.1614 11.7249 19.0257 12.334 18.7666C12.9431 18.5074 13.4947 18.1299 13.9568 17.6559L19.6138 11.9999L21.0278 13.4139L15.3708 19.0709C14.7207 19.7209 13.949 20.2366 13.0997 20.5884C12.2504 20.9402 11.3401 21.1212 10.4208 21.1212C9.50147 21.1212 8.59117 20.9402 7.74185 20.5884C6.89252 20.2366 6.12081 19.7209 5.47077 19.0709C4.82072 18.4208 4.30508 17.6491 3.95328 16.7998C3.60148 15.9505 3.42041 15.0402 3.42041 14.1209C3.42041 13.2016 3.60148 12.2913 3.95328 11.442C4.30508 10.5926 4.82072 9.82093 5.47077 9.17089L11.1288 3.51489C12.0718 2.6041 13.3348 2.10013 14.6458 2.11152C15.9568 2.12291 17.2108 2.64875 18.1379 3.57579C19.0649 4.50284 19.5907 5.7569 19.6021 7.06788C19.6135 8.37887 19.1096 9.64188 18.1988 10.5849L12.5428 16.2439C12.2641 16.5225 11.9333 16.7435 11.5692 16.8942C11.2052 17.045 10.815 17.1225 10.4209 17.1225C10.0269 17.1224 9.63669 17.0448 9.27266 16.894C8.90863 16.7431 8.57787 16.5221 8.29927 16.2434C8.02067 15.9647 7.79968 15.6339 7.64893 15.2698C7.49818 14.9058 7.42061 14.5156 7.42066 14.1215C7.42071 13.7275 7.49836 13.3373 7.6492 12.9733C7.80004 12.6092 8.0211 12.2785 8.29977 11.9999L13.9568 6.34289L15.3708 7.75689Z" fill="#828282"/>
</g>
<defs>
<clipPath id="clip0_442_27676">
<rect width="24" height="24" fill="white" transform="translate(0.542725)"/>
</clipPath>
</defs>
</svg>
