<svg width="17" height="14" viewBox="0 0 17 14" fill="none" xmlns="http://www.w3.org/2000/svg">
<path d="M8.49999 0.25C12.544 0.25 15.9085 3.16 16.6142 7C15.9092 10.84 12.544 13.75 8.49999 13.75C4.45599 13.75 1.09149 10.84 0.385742 7C1.09074 3.16 4.45599 0.25 8.49999 0.25ZM8.49999 12.25C10.0296 12.2497 11.5138 11.7301 12.7096 10.7764C13.9055 9.82264 14.7422 8.49121 15.0827 7C14.7409 5.50998 13.9037 4.18 12.708 3.22752C11.5122 2.27504 10.0287 1.7564 8.49999 1.7564C6.97126 1.7564 5.48776 2.27504 4.29202 3.22752C3.09629 4.18 2.25907 5.50998 1.91724 7C2.25781 8.49121 3.0945 9.82264 4.29035 10.7764C5.4862 11.7301 6.97039 12.2497 8.49999 12.25ZM8.49999 10.375C7.60489 10.375 6.74644 10.0194 6.11351 9.38649C5.48057 8.75355 5.12499 7.89511 5.12499 7C5.12499 6.10489 5.48057 5.24645 6.11351 4.61351C6.74644 3.98058 7.60489 3.625 8.49999 3.625C9.3951 3.625 10.2535 3.98058 10.8865 4.61351C11.5194 5.24645 11.875 6.10489 11.875 7C11.875 7.89511 11.5194 8.75355 10.8865 9.38649C10.2535 10.0194 9.3951 10.375 8.49999 10.375ZM8.49999 8.875C8.99727 8.875 9.47419 8.67746 9.82582 8.32582C10.1774 7.97419 10.375 7.49728 10.375 7C10.375 6.50272 10.1774 6.02581 9.82582 5.67417C9.47419 5.32254 8.99727 5.125 8.49999 5.125C8.00271 5.125 7.5258 5.32254 7.17417 5.67417C6.82254 6.02581 6.62499 6.50272 6.62499 7C6.62499 7.49728 6.82254 7.97419 7.17417 8.32582C7.5258 8.67746 8.00271 8.875 8.49999 8.875Z" fill="#BDBDBD"/>
</svg>
