<?xml version="1.0" standalone="no"?>
<!DOCTYPE svg PUBLIC "-//W3C//DTD SVG 1.1//EN" "http://www.w3.org/Graphics/SVG/1.1/DTD/svg11.dtd" >
<svg xmlns="http://www.w3.org/2000/svg">
<metadata>Generated by IcoMoon</metadata>
<defs>
<font id="doceyes" horiz-adv-x="1024">
<font-face units-per-em="1024" ascent="960" descent="-64" />
<missing-glyph horiz-adv-x="1024" />
<glyph unicode="&#x20;" horiz-adv-x="512" d="" />
<glyph unicode="&#xe900;" glyph-name="001" d="M256 640c0 140.8 115.2 256 256 256s256-115.2 256-256c0-140.8-115.2-256-256-256s-256 115.2-256 256zM768 320h-512c-140.8 0-256-115.2-256-256v-64h1024v64c0 140.8-115.2 256-256 256z" />
<glyph unicode="&#xe901;" glyph-name="002" d="M192 512c-70.692 0-128-57.308-128-128v-320c0-70.694 57.308-128 128-128h640c70.694 0 128 57.306 128 128v320c0 70.692-57.306 128-128 128v256c0 106.038-85.958 192-192 192h-256c-106.038 0-192-85.962-192-192v-256zM320 768c0 35.346 28.654 64 64 64h256c35.347 0 64-28.654 64-64v-256h-384v256z" />
<glyph unicode="&#xe902;" glyph-name="003" d="M960 832h-896c-38.4 0-64-25.6-64-64v-640c0-38.4 25.6-64 64-64h896c38.4 0 64 25.6 64 64v640c0 38.4-25.6 64-64 64zM371.2 332.8l-192-140.8c-6.4-6.4-12.8-6.4-19.2-6.4-12.8 0-19.2 6.4-32 19.2-6.4 12.8-6.4 38.4 12.8 51.2l192 140.8c12.8 6.4 38.4 6.4 51.2-12.8s6.4-38.4-12.8-51.2zM896 204.8c-6.4-12.8-19.2-12.8-32-12.8-6.4 0-12.8 0-19.2 6.4l-192 140.8c-19.2 6.4-19.2 32-12.8 44.8 12.8 19.2 32 19.2 51.2 6.4l192-140.8c19.2-6.4 19.2-32 12.8-44.8zM883.2 640l-352-256c-6.4 0-12.8-6.4-19.2-6.4s-12.8 6.4-19.2 6.4l-352 256c-19.2 12.8-19.2 38.4-12.8 51.2 12.8 19.2 38.4 19.2 51.2 12.8l332.8-243.2 332.8 243.2c19.2 12.8 38.4 6.4 51.2-6.4s6.4-44.8-12.8-57.6z" />
<glyph unicode="&#xe903;" glyph-name="004" d="M512 960c-215.040 0-384-152.533-384-346.667 0-346.664 384-677.333 384-677.333s384 330.669 384 677.333c0 194.134-168.96 346.667-384 346.667zM512 405.333c-130.56 0-230.4 90.134-230.4 208s99.84 208 230.4 208c130.56 0 230.4-90.133 230.4-208s-99.84-208-230.4-208z" />
<glyph unicode="&#xe904;" glyph-name="005" d="M750.931 345.6c-68.262-68.269-68.262-136.531-136.531-136.531-68.267 0-136.533 68.262-204.8 136.531-68.267 68.267-136.533 136.533-136.533 204.8s68.266 68.267 136.533 136.533c68.267 68.267-136.533 273.067-204.8 273.067s-204.8-204.8-204.8-204.8c0-136.533 143.36-416.427 273.067-546.131 129.706-129.709 409.602-273.069 546.133-273.069 0 0 204.8 136.531 204.8 204.8s-204.8 273.067-273.069 204.8z" />
<glyph unicode="&#xe905;" glyph-name="006" d="M928 832l-544-544-224 224-96-96 320-320 640 640-96 96z" />
<glyph unicode="&#xe906;" glyph-name="007" d="M0 749.715c0 35.347 28.654 64 64 64h896c35.347 0 64-28.653 64-64v-18.285c0-35.346-28.653-64-64-64h-896c-35.346 0-64 28.653-64 64v18.285zM0 457.144c0 35.347 28.654 64 64 64h896c35.347 0 64-28.653 64-64v-18.285c0-35.347-28.653-64-64-64h-896c-35.346 0-64 28.653-64 64v18.285zM0 164.57c0 35.347 28.654 64 64 64h896c35.347 0 64-28.653 64-64v-18.285c0-35.347-28.653-64-64-64h-896c-35.346 0-64 28.653-64 64v18.285z" />
<glyph unicode="&#xe907;" glyph-name="008" d="M512 960c281.6 0 512-185.6 512-416s-230.4-416-512-416c-25.6 0-51.2 0-76.8 6.4-115.2-108.8-243.2-128-371.2-134.4v25.6c70.4 38.4 128 96 128 166.4 0 12.8 0 19.2 0 25.6-115.2 76.8-192 192-192 326.4 0 230.4 230.4 416 512 416z" />
<glyph unicode="&#xe908;" glyph-name="009" d="M1017.6 717.216c-51.2 61.74-147.2 98.784-249.6 98.784s-198.4-37.044-249.6-98.784c-6.4-6.174-6.4-12.348-6.4-18.522 0 6.174 0 12.348-6.4 18.522-51.2 61.74-147.2 98.784-249.6 98.784s-198.4-37.044-249.6-98.784c-6.4-6.174-6.4-12.348-6.4-18.522v-617.401c0-12.352 6.4-24.698 19.2-30.874 12.8-6.17 25.6 0 38.4 12.352 38.4 43.219 115.2 74.086 198.4 74.086s160-30.867 198.4-74.086c6.4-6.176 12.8-12.352 25.6-12.352h64c6.4 0 19.2 6.176 25.6 12.352 38.4 43.219 115.2 74.086 198.4 74.086s160-30.867 198.4-74.086c6.4-12.352 25.6-12.352 38.4-12.352s19.2 18.522 19.2 30.874v617.401c0 6.174 0 12.348-6.4 18.522zM448 149.203c-51.2 30.874-121.6 49.395-192 49.395s-140.8-18.522-192-49.395v537.142c38.4 43.218 115.2 67.914 192 67.914s153.6-24.696 192-67.914v-537.142zM960 149.203c-51.2 30.874-121.6 49.395-192 49.395s-140.8-18.522-192-49.395v537.142c38.4 43.218 115.2 67.914 192 67.914s153.6-24.696 192-67.914v-537.142zM640 630.781h256v-61.74h-256v61.74zM640 507.3h256v-61.74h-256v61.74zM640 383.82h192v-61.74h-192v61.74zM128 630.781h256v-61.74h-256v61.74zM128 507.3h256v-61.74h-256v61.74zM128 383.82h192v-61.74h-192v61.74z" />
<glyph unicode="&#xe909;" glyph-name="010" d="M576 192c0-38.4-25.6-64-64-64s-64 25.6-64 64c0 38.4 25.6 64 64 64s64-25.6 64-64zM512 960c-281.6 0-512-230.4-512-512s230.4-512 512-512c281.6 0 512 230.4 512 512s-230.4 512-512 512zM512 32c-230.4 0-416 185.6-416 416s185.6 416 416 416c230.4 0 416-185.6 416-416s-185.6-416-416-416zM511.999 320.001c-25.6 0-51.2 19.2-51.2 51.2v25.6c0 32 12.8 64 38.4 89.6 19.2 19.2 44.8 32 64 44.8 44.8 25.6 64 44.8 64 70.4 0 32-19.2 51.2-32 57.6-19.2 25.6-51.2 38.4-83.2 38.4-51.2 0-102.4-32-115.2-83.2-6.4-32-32-44.8-57.6-38.4s-44.8 38.4-32 64c12.8 44.8 38.4 83.2 76.8 108.8s83.2 44.8 128 44.8c57.6 0 108.8-19.2 147.201-51.2 44.8-32 70.4-83.2 70.4-134.4 0-83.2-64-121.6-108.801-153.6-44.8-25.6-64-38.4-64-57.6v-32c0-25.6-19.2-44.8-44.8-44.8z" />
<glyph unicode="&#xe90a;" glyph-name="011" d="M1024 128c-108.8 0-192 83.2-192 192v288c0 140.8-108.8 256-256 288v64h-128v-70.4c-147.2-25.6-256-140.8-256-281.6v-288c0-108.8-83.2-192-192-192v-64h428.8c-6.4-12.8-6.4-25.6-6.4-38.4 0-51.2 38.4-89.6 89.6-89.6s89.6 38.4 89.6 89.6c0 12.8 0 25.6-6.4 38.4h428.8v64z" />
<glyph unicode="&#xe90b;" glyph-name="012" d="M1024 96l-300.8 300.8c25.6 51.2 44.8 115.2 44.8 179.2 0 211.2-172.8 384-384 384s-384-172.8-384-384c0-211.2 172.8-384 384-384 64 0 128 19.2 179.2 44.8l300.8-300.8 160 160zM128 576c0 140.8 115.2 256 256 256s256-115.2 256-256c0-140.8-115.2-256-256-256s-256 115.2-256 256z" />
<glyph unicode="&#xe90c;" glyph-name="013" d="M992 0h-224v32h-32v-32h-320v32h-32v-32h-224v32h-32v-32h-64v288h32v32h-32v224h32v32h-32v224h32v32h-32v128h-64v-1024h1024v96h-32v-32zM441.6 569.6l-19.2-19.2v-249.6l19.2 19.2v249.6zM409.6 537.6l-19.2-19.2v-249.6l19.2 19.2v249.6zM377.6 249.6v268.8l-19.2 6.4v-268.8l19.2-6.4zM537.6 665.6l-19.2-19.2v-249.6l19.2 19.2v249.6zM473.6 601.6l-19.2-19.2v-249.6l19.2 19.2v249.6zM345.6 531.2l-19.2 6.4v-268.8l19.2-6.4v268.8zM505.6 633.6l-19.2-19.2v-249.6l19.2 19.2v249.6zM249.6 582.4l-19.2 6.4v-268.8l19.2-6.4v268.8zM185.6 614.4l-19.2 6.4v-268.8l19.2-6.4v268.8zM313.6 550.4l-19.2 6.4v-268.8l19.2-6.4v268.8zM217.6 595.2l-19.2 6.4v-268.8l19.2-6.4v268.8zM153.6 627.2l-19.2 6.4v-268.8l19.2-6.4v268.8zM569.6 697.6l-19.2-19.2v-249.6l19.2 19.2v249.6zM281.6 563.2l-19.2 6.4v-268.8l19.2-6.4v268.8zM825.6 633.6l-19.2-19.2v-339.2l19.2 25.6v332.8zM857.6 665.6l-19.2-19.2v-326.4l19.2 25.6v320zM889.6 697.6l-19.2-19.2v-307.2l19.2 25.6v300.8zM953.6 761.6l-19.2-19.2v-275.2l19.2 25.6v268.8zM921.6 729.6l-19.2-19.2v-294.4l19.2 25.6v288zM1017.6 825.6l-19.2-19.2v-243.2l19.2 25.6v236.8zM985.6 793.6l-19.2-19.2v-262.4l19.2 25.6v256zM697.6 620.8l-19.2 12.8v-307.2l19.2-19.2v313.6zM665.6 646.4l-19.2 12.8v-288l19.2-19.2v294.4zM601.6 684.8l-19.2 12.8v-243.2l19.2-19.2v249.6zM633.6 665.6l-19.2 12.8v-268.8l19.2-19.2v275.2zM729.6 601.6l-19.2 12.8v-332.8l19.2-19.2v339.2zM793.6 601.6l-19.2-19.2v-358.4l19.2 25.6v352zM761.6 582.4l-19.2 12.8v-352l19.2-19.2v358.4zM768 128l-192 256-192-192-256 128v-256h896v448l-256-384z" />
<glyph unicode="&#xe90d;" glyph-name="014" d="M900.371 960l71.578-569.6-78.086-6.4-58.56 512h-650.673l-58.561-518.4-78.081 12.8 65.067 569.6h787.316zM249.697 832h520.537v-64h-520.537v64zM249.697 704h520.537v-64h-520.537v64zM249.697 576h520.537v-64h-520.537v64zM249.697 448h520.537v-64h-520.537v64zM997.971 320h-976.011c-19.52 0-26.027-12.8-19.52-32l110.615-326.4c0-12.8 19.521-25.6 39.041-25.6h715.745c19.52 0 39.040 12.8 45.542 32l110.618 326.4c0 12.8-13.011 25.6-26.029 25.6zM640.102 192h-260.271v64h260.271v-64z" />
<glyph unicode="&#xe90e;" glyph-name="015" d="M512 748.8c-102.4 0-192-44.8-243.2-115.2l-76.8 57.6c76.8 96 192 160 320 160v108.8l160-160-160-160v108.8zM512 140.8c102.4 0 192 44.8 243.2 121.6l76.8-57.6c-76.8-96-192-160-320-160v-108.8l-160 160 160 160v-115.2zM204.8 448c0-102.4 51.2-192 128-243.2l-64-76.8c-102.4 70.4-166.4 192-166.4 320h-102.4l160 160 160-160h-115.2zM921.6 448h102.4l-160-160-160 160h121.6c0 102.4-51.2 192-128 243.2l57.6 76.8c96-70.4 166.4-185.6 166.4-320z" />
<glyph unicode="&#xe90f;" glyph-name="016" d="M960 768h-256v64c0 38.4-25.6 64-64 64h-256c-38.4 0-64-25.6-64-64v-64h-256c-38.4 0-64-32-64-64v-576c0-32 25.6-64 64-64h896c38.4 0 64 32 64 64v576c0 32-25.6 64-64 64zM384 832h256v-64h-256v64zM960 512h-128v-96c0-19.2-12.8-32-32-32h-64c-19.2 0-32 12.8-32 32v96h-384v-96c0-19.2-12.8-32-32-32h-64c-19.2 0-32 12.8-32 32v96h-128v64h896v-64z" />
<glyph unicode="&#xe910;" glyph-name="017" d="M0 704h1024l-64-640h-896l-64 640zM928 832l32-64h-896l64 128h352l32-64h416z" />
<glyph unicode="&#xe911;" glyph-name="018" horiz-adv-x="1088" d="M979.2 832c-32 12.8-70.4-12.8-76.8-44.8l-6.4-19.2h-601.6l-6.4 70.4c-6.4 32-32 57.6-64 57.6h-160c-38.4 0-64-25.6-64-64s25.6-64 64-64h102.4l57.6-454.4c6.4-32 32-57.6 64-57.6h544c25.6 0 51.2 19.2 64 44.8l128 448c6.4 38.4-12.8 70.4-44.8 83.2zM512 512v64h128v-64h-128zM640 448v-64h-128v64h128zM512 640v64h128v-64h-128zM307.2 704h140.8v-64h-134.4l-6.4 64zM320 576h128v-64h-121.6l-6.4 64zM339.2 448h108.8v-64h-102.4l-6.4 64zM780.8 384h-76.8v64h96l-19.2-64zM819.2 512h-115.2v64h134.4l-19.2-64zM857.6 640h-153.6v64h172.8l-19.2-64zM256 96c0 51.2 44.8 96 96 96s96-44.8 96-96c0-51.2-44.8-96-96-96s-96 44.8-96 96zM640 96c0 51.2 44.8 96 96 96s96-44.8 96-96c0-51.2-44.8-96-96-96s-96 44.8-96 96z" />
<glyph unicode="&#xe912;" glyph-name="019" d="M985.6 896c-339.2-256-659.2-588.8-659.2-588.8l-230.4 204.8-96-96c96-89.6 313.6-326.4 390.4-416 211.2 352 428.8 614.4 633.6 851.2l-38.4 44.8z" />
<glyph unicode="&#xe913;" glyph-name="020" d="M0 256l96-96 416 416 416-416 96 96-512 512-512-512z" />
<glyph unicode="&#xe914;" glyph-name="021" d="M0 672l96 96 416-416 416 416 96-96-512-512-512 512z" />
<glyph unicode="&#xe915;" glyph-name="022" d="M320 960l-96-96 416-416-416-416 96-96 512 512-512 512z" />
<glyph unicode="&#xe916;" glyph-name="023" d="M704 960l96-96-416-416 416-416-96-96-512 512 512 512z" />
<glyph unicode="&#xe917;" glyph-name="024" d="M928 832h-288c0 70.4-57.6 128-128 128s-128-57.6-128-128h-288c-19.2 0-32-12.8-32-32v-832c0-19.2 12.8-32 32-32h832c19.2 0 32 12.8 32 32v832c0 19.2-12.8 32-32 32zM512 896c38.4 0 64-25.6 64-64s-25.6-64-64-64c-38.4 0-64 25.6-64 64s25.6 64 64 64zM896 0h-768v768h128v-96c0-19.2 12.8-32 32-32h448c19.2 0 32 12.8 32 32v96h128v-768zM736 384h-448c-19.2 0-32 12.8-32 32s12.8 32 32 32h448c19.2 0 32-12.8 32-32s-12.8-32-32-32zM736 256h-448c-19.2 0-32 12.8-32 32s12.8 32 32 32h448c19.2 0 32-12.8 32-32s-12.8-32-32-32zM736 128h-448c-19.2 0-32 12.8-32 32s12.8 32 32 32h448c19.2 0 32-12.8 32-32s-12.8-32-32-32z" />
<glyph unicode="&#xe918;" glyph-name="025" d="M384 896h640v-128h-640v128zM384 512h640v-128h-640v128zM384 128h640v-128h-640v128zM0 832c0 70.4 57.6 128 128 128s128-57.6 128-128c0-70.4-57.6-128-128-128s-128 57.6-128 128zM0 448c0 70.4 57.6 128 128 128s128-57.6 128-128c0-70.4-57.6-128-128-128s-128 57.6-128 128zM0 64c0 70.4 57.6 128 128 128s128-57.6 128-128c0-70.4-57.6-128-128-128s-128 57.6-128 128z" />
<glyph unicode="&#xe919;" glyph-name="026" d="M192 960v-1024l320 320 320-320v1024h-640z" />
<glyph unicode="&#xe91a;" glyph-name="027" d="M192 960v-1024l320 320 320-320v1024h-640zM768 89.6l-256 256-256-256v806.4h512v-806.4z" />
<glyph unicode="&#xe91b;" glyph-name="028" d="M0 960h128v-1024h-128v1024zM832 320c83.2 0 153.6 19.2 192 51.2v512c-38.4-32-108.8-51.2-192-51.2s-153.6 19.2-192 51.2v-512c38.4-32 108.8-51.2 192-51.2zM416 960c76.8 0 147.2-12.8 192-32v-512c-44.8 19.2-115.2 32-192 32-96 0-179.2-19.2-224-51.2v512c44.8 32 128 51.2 224 51.2z" />
<glyph unicode="&#xe91c;" glyph-name="029" d="M128 960h-128v-1024h128v1024zM640 851.2c44.8-12.8 102.4-19.2 160-19.2 96 0 179.2 19.2 224 51.2v-512c-44.8-32-128-51.2-224-51.2s-179.2 19.2-224 51.2v57.6c-44.8 12.8-102.4 19.2-160 19.2-96 0-179.2-19.2-224-51.2v512c44.8 32 128 51.2 224 51.2s179.2-19.2 224-51.2v-57.6zM608 480v384c-44.8 19.2-115.2 32-192 32-57.6 0-115.2-6.4-160-19.2v-384c44.8 12.8 102.4 19.2 160 19.2 64 0 128-6.4 179.2-25.6l12.8-6.4zM800 384c70.4 0 121.6 6.4 160 19.2v384c-44.8-12.8-102.4-19.2-160-19.2s-115.2 6.4-160 12.8v-377.6c38.4-12.8 89.6-19.2 160-19.2z" />
<glyph unicode="&#xe91d;" glyph-name="030" d="M192 576l320-320 320 320h-640z" />
<glyph unicode="&#xe91e;" glyph-name="031" d="M192 320l320 320 320-320h-640z" />
<glyph unicode="&#xe91f;" glyph-name="032" d="M889.6 742.4l-89.6 89.6-288-288-294.4 288-89.6-89.6 288-294.4-288-288 89.6-89.6 294.4 288 288-288 89.6 89.6-288 288 288 294.4z" />
<glyph unicode="&#xe920;" glyph-name="033" d="M0 0c0-38.4 25.6-64 64-64h896c38.4 0 64 25.6 64 64v576h-1024v-576zM704 512h256v-128h-256v128zM704 320h256v-128h-256v128zM704 128h256v-128h-256v128zM384 512h256v-128h-256v128zM384 320h256v-128h-256v128zM384 128h256v-128h-256v128zM64 512h256v-128h-256v128zM64 320h256v-128h-256v128zM64 128h256v-128h-256v128zM960 832h-128v89.6c0 19.2-12.8 38.4-32 38.4s-32-19.2-32-38.4v-89.6h-512v89.6c0 19.2-12.8 38.4-32 38.4s-32-19.2-32-38.4v-89.6h-128c-38.4 0-64-25.6-64-64v-128h1024v128c0 38.4-25.6 64-64 64zM224 672c-38.4 0-64 25.6-64 64 0 25.6 12.8 44.8 32 57.6v-57.6c0-19.2 12.8-32 32-32s32 12.8 32 32v57.6c19.2-12.8 32-32 32-57.6 0-38.4-25.6-64-64-64zM800 672c-38.4 0-64 25.6-64 64 0 25.6 12.8 44.8 32 57.6v-57.6c0-19.2 12.8-32 32-32s32 12.8 32 32v57.6c19.2-12.8 32-32 32-57.6 0-38.4-25.6-64-64-64z" />
<glyph unicode="&#xe921;" glyph-name="034" d="M659.2 211.2l-211.2 211.2v281.6h128v-230.4l172.8-172.8-89.6-89.6zM512 960c-281.6 0-512-230.4-512-512s230.4-512 512-512c281.6 0 512 230.4 512 512s-230.4 512-512 512zM512 64c-211.2 0-384 172.8-384 384s172.8 384 384 384c211.2 0 384-172.8 384-384s-172.8-384-384-384z" />
<glyph unicode="&#xe922;" glyph-name="035" d="M512 896c-140.8 0-268.8-57.6-364.8-147.2l-147.2 147.2v-384h384l-140.8 140.8c64 70.4 160 115.2 268.8 115.2 211.2 0 384-172.8 384-384 0-115.2-51.2-217.6-128-288l83.2-96c108.8 96 172.8 230.4 172.8 384 0 281.6-230.4 512-512 512z" />
<glyph unicode="&#xe923;" glyph-name="036" d="M128 640v-640c0-32 32-64 64-64h576c38.4 0 64 32 64 64v640h-704zM320 64h-64v448h64v-448zM448 64h-64v448h64v-448zM576 64h-64v448h64v-448zM704 64h-64v448h64v-448zM851.2 832h-211.2v76.8c0 32-19.2 51.2-44.8 51.2h-224c-32 0-51.2-19.2-51.2-51.2v-76.8h-204.8c-32 0-51.2-19.2-51.2-51.2v-76.8h832v76.8c0 32-19.2 51.2-44.8 51.2zM576 832h-192v64h192v-64z" />
<glyph unicode="&#xe924;" glyph-name="037" d="M1024 588.8l-352 51.2-160 320-160-320-352-51.2 256-249.6-57.6-352 313.6 166.4 313.6-166.4-57.6 352 256 249.6z" />
<glyph unicode="&#xe925;" glyph-name="038" d="M1024 588.8l-352 51.2-160 320-160-320-352-51.2 256-249.6-57.6-352 313.6 166.4 313.6-166.4-57.6 352 256 249.6zM512 230.4l-224-115.2 44.8 249.6-185.6 172.8 256 38.4 108.8 224 108.8-224 249.6-38.4-179.2-179.2 44.8-249.6-224 121.6z" />
<glyph unicode="&#xe926;" glyph-name="039" d="M704 832h-128v64c0 38.4-25.6 64-64 64h-128c-38.4 0-64-25.6-64-64v-64h-128v-128h512v128zM512 832h-128v64h128v-64zM832 640v160c0 19.2-12.8 32-32 32h-64v-64h32v-128h-192l-192-192v-256h-256v576h32v64h-64c-19.2 0-32-12.8-32-32v-640c0-19.2 12.8-32 32-32h288v-192h640v704h-192zM576 550.4v-102.4h-102.4l102.4 102.4zM960 0h-512v384h192v192h320v-576z" />
<glyph unicode="&#xe927;" glyph-name="040" d="M915.2 729.6c-19.2 32-51.2 64-83.2 102.4s-70.4 64-102.4 89.6c-51.2 32-76.8 38.4-89.6 38.4h-492.8c-44.8 0-83.2-38.4-83.2-83.2v-864c0-38.4 38.4-76.8 83.2-76.8h736c44.8 0 83.2 38.4 83.2 83.2v620.8c-6.4 12.8-12.8 38.4-51.2 89.6zM787.2 787.2c32-32 57.6-57.6 70.4-83.2h-153.6v153.6c25.6-19.2 51.2-38.4 83.2-70.4zM896 12.8c0-6.4-6.4-19.2-19.2-19.2h-729.6c-12.8 6.4-19.2 12.8-19.2 19.2v864c0 12.8 6.4 19.2 19.2 19.2h492.8v-224c0-19.2 12.8-32 32-32h224v-627.2z" />
<glyph unicode="&#xe928;" glyph-name="041" horiz-adv-x="1152" d="M576.001 864l428.799-857.6h-857.599l428.8 857.6zM576.001 960c-19.2 0-44.8-12.8-64-44.8l-435.2-870.4c-32-57.6-6.4-108.8 64-108.8h870.399c70.4 0 96 51.2 64 108.8l-435.2 870.4c-19.199 32-44.799 44.8-63.999 44.8zM640 128c0-38.4-25.6-64-64-64s-64 25.6-64 64c0 38.4 25.6 64 64 64s64-25.6 64-64zM576 256c-38.4 0-64 25.6-64 64v192c0 38.4 25.6 64 64 64s64-25.6 64-64v-192c0-38.4-25.6-64-64-64z" />
<glyph unicode="&#xe929;" glyph-name="042" d="M448 652.8c0 32 19.2 51.2 51.2 51.2h32c25.6 0 44.8-19.2 44.8-51.2v-32c0-25.6-19.2-44.8-44.8-44.8h-32c-32 0-51.2 19.2-51.2 44.8v32zM640 192h-256v64h64v192h-64v64h192v-256h64v-64zM512 960c-281.6 0-512-230.4-512-512s230.4-512 512-512c281.6 0 512 230.4 512 512s-230.4 512-512 512zM512 32c-230.4 0-416 185.6-416 416s185.6 416 416 416c230.4 0 416-185.6 416-416s-185.6-416-416-416z" />
<glyph unicode="&#xe92a;" glyph-name="043" d="M576 320v51.2c70.4 38.4 128 140.8 128 236.8 0 160 0 288-192 288s-192-128-192-288c0-96 57.6-198.4 128-236.8v-51.2c-217.6-19.2-384-128-384-256h896c0 128-166.4 236.8-384 256z" />
<glyph unicode="&#xe92b;" glyph-name="044" d="M320 448c0 108.8 83.2 192 192 192s192-83.2 192-192c0-108.8-83.2-192-192-192s-192 83.2-192 192z" />
<glyph unicode="&#xe92c;" glyph-name="045" d="M0 832l384-384v-384l256 64v320l384 384h-1024z" />
<glyph unicode="&#xe92d;" glyph-name="046" d="M480 256h-480v-256h960v256h-480zM896 128h-128v64h128v-64zM224 640l256 256 256-256h-160v-320h-192v320h-160z" />
<glyph unicode="&#xe92e;" glyph-name="047" d="M1024 339.2l-512 396.8-512-396.8v160l512 396.8 512-396.8v-160zM896 352v-384h-256v256h-256v-256h-256v384l384 288 384-288z" />
<glyph unicode="&#xe92f;" glyph-name="048" d="M486.4 960h-12.8l-473.6-256v-454.4l467.2-313.6h19.2l467.2 313.6v454.4l-467.2 256zM403.2 57.6l-19.2 12.8h64v-19.2h-44.8v6.4zM448 38.4v-12.8l-19.2 12.8h19.2zM358.4 89.6l-25.6 19.2h115.2v-19.2h-89.6zM313.6 121.6l-25.6 19.2h160v-19.2h-134.4zM262.4 153.6l-25.6 19.2h211.2v-19.2h-185.6zM217.6 185.6l-25.6 12.8h256v-19.2h-230.4v6.4zM166.4 217.6l-25.6 19.2h307.2v-19.2h-281.6zM121.6 249.6l-25.6 19.2h352v-19.2h-326.4zM70.4 281.6l-6.4 6.4v12.8h384v-19.2h-377.6zM64 313.6v12.8h384v-19.2h-384v6.4zM64 345.6v12.8h384v-19.2h-384v6.4zM64 377.6v12.8h384v-19.2h-384v6.4zM64 409.6v12.8h384v-19.2h-384v6.4zM64 441.6v12.8h332.8l32-19.2h-364.8v6.4zM64 473.6v12.8h275.2l32-19.2h-307.2v6.4zM64 505.6v12.8h211.2l32-19.2h-243.2v6.4zM64 537.6v12.8h153.6l32-19.2h-185.6v6.4zM64 569.6v12.8h96l32-19.2h-128v6.4zM64 601.6v12.8h32l32-12.8h-64zM480 486.4l-377.6 198.4 377.6 204.8 377.6-204.8-377.6-198.4z" />
<glyph unicode="&#xe930;" glyph-name="049" d="M876.8 761.6l-352 192c0 6.4-6.4 6.4-12.8 6.4s-12.8 0-12.8-6.4l-352-192c-12.8 0-19.2-12.8-19.2-25.6v-256c0-140.8 38.4-256 108.8-345.6 57.6-70.4 140.8-134.4 256-192 6.4-6.4 12.8-6.4 19.2-6.4s12.8 0 12.8 6.4c121.6 57.6 198.4 121.6 256 192 76.8 96 108.8 204.8 108.8 345.6v256c6.4 12.8 0 25.6-12.8 25.6zM800 480c0-64-6.4-115.2-25.6-160-12.8-44.8-38.4-89.6-64-128-44.8-57.6-108.8-102.4-198.4-153.6v819.2l288-160v-217.6z" />
<glyph unicode="&#xe931;" glyph-name="050" d="M448 832l128-128h448v-704h-1024v832h448z" />
<glyph unicode="&#xe932;" glyph-name="051" d="M451.765 411.86v536.094c-234.918-30.118-421.647-228.894-421.647-475.859 0-265.036 216.847-481.884 481.882-481.884 246.965 0 445.741 186.729 475.859 421.648h-536.094zM789.082 158.871c-72.282-72.282-174.682-108.424-277.082-108.424-54.212 0-114.447 12.047-162.635 36.141s-96.376 54.212-132.518 90.353c-36.141 36.141-66.259 84.329-90.353 132.518s-36.141 108.425-36.141 162.636c0 102.4 36.141 204.8 108.424 283.106 54.212 60.235 120.471 102.4 192.753 126.494v-530.072h524.047c-24.094-72.282-66.259-144.565-126.494-192.753zM512 953.978c265.035 0 481.882-216.847 481.882-481.883h-481.882v481.883z" />
<glyph unicode="&#xe933;" glyph-name="052" d="M401.167 351.624l110.833-110.833-86.739-110.833c-14.456-19.275-43.369-24.094-62.645-4.819l-77.101 77.101c-19.275 19.275-14.456 48.188 4.819 62.645l110.833 86.739zM989.064 684.124l-115.652-115.652-144.565 144.565 115.652 115.652c-14.456 4.819-28.913 4.819-43.369 4.819-106.014 0-192.753-86.739-192.753-192.753 0-38.551 9.638-72.282 28.913-106.014l-106.014-81.92-163.84 163.84 216.847 216.847h-240.941l-106.014-106.014-9.638 9.638h-53.007v-53.007l9.638-9.638-154.202-154.202 120.471-120.471 144.565 144.565 433.694-433.695 72.282 72.282-187.934 187.935 81.92 106.014c33.732-19.275 67.464-28.913 106.014-28.913 106.014 0 192.753 86.739 192.753 192.753 0 14.456 0 28.913-4.819 43.369z" />
<glyph unicode="&#xe934;" glyph-name="053" d="M891.482 381.741c-48.188 90.353-18.071 198.776 66.259 252.988l-96.376 162.635c-24.094-18.071-60.235-24.094-90.353-24.094-102.4 0-180.706 84.329-180.706 186.729h-192.753c0-30.118-6.024-66.259-24.094-90.353-48.188-96.376-162.635-126.494-246.965-72.282l-96.376-168.659c30.118-12.047 48.188-36.141 66.259-66.259 54.212-84.329 24.094-198.776-66.259-246.965l96.376-162.635c24.094 12.047 54.212 18.071 90.353 18.071 102.4 0 180.706-84.329 180.706-180.706h186.729c0 30.118 6.024 60.235 24.094 90.353 48.188 90.353 162.635 114.447 252.988 66.259l96.376 162.635c-24.094 18.071-48.188 42.165-66.259 72.282zM493.929 279.341c-108.424 0-192.753 84.329-192.753 192.753s84.329 192.753 192.753 192.753c108.424 0 198.776-84.329 198.776-192.753s-90.353-192.753-198.776-192.753z" />
<glyph unicode="&#xe935;" glyph-name="054" d="M891.482 737.131c-18.071 30.118-48.188 60.235-78.306 96.376s-66.259 60.235-96.376 84.33c-48.188 30.118-72.282 36.141-84.329 36.141h-463.812c-42.165 0-78.306-36.141-78.306-78.306v-813.178c0-36.141 36.141-72.282 78.306-72.282h692.706c42.165 0 78.306 36.141 78.306 78.306v584.284c-6.024 12.047-12.047 36.141-48.188 84.329zM771.012 791.342c30.118-30.118 54.212-54.212 66.259-78.306h-144.565v144.565c24.094-18.071 48.188-36.141 78.306-66.259zM873.412 62.494c0-6.024-6.024-18.071-18.071-18.071h-686.682c-12.047 6.024-18.071 12.047-18.071 18.071v813.178c0 12.047 6.024 18.071 18.071 18.071h463.812v-210.824c0-18.071 12.047-30.118 30.118-30.118h210.824v-590.307zM722.824 170.918h-421.647c-18.071 0-30.118 12.047-30.118 30.118s12.047 30.118 30.118 30.118h421.647c18.071 0 30.118-12.047 30.118-30.118s-12.047-30.118-30.118-30.118zM722.824 291.388h-421.647c-18.071 0-30.118 12.047-30.118 30.118s12.047 30.118 30.118 30.118h421.647c18.071 0 30.118-12.047 30.118-30.118s-12.047-30.118-30.118-30.118zM722.824 411.86h-421.647c-18.071 0-30.118 12.047-30.118 30.118s12.047 30.118 30.118 30.118h421.647c18.071 0 30.118-12.047 30.118-30.118s-12.047-30.118-30.118-30.118z" />
<glyph unicode="&#xe936;" glyph-name="055" d="M831.247 737.131c-18.071 30.118-48.188 60.235-78.306 96.376s-66.259 60.235-96.376 84.33c-48.188 30.118-72.282 36.141-84.329 36.141h-463.812c-42.165 0-78.306-36.141-78.306-78.306v-813.178c0-36.141 36.141-72.282 78.306-72.282h379.482c12.047 0 24.094 12.047 24.094 30.118s-12.047 30.118-30.118 30.118h-373.459c-12.047 0-18.071 6.024-18.071 12.047v813.178c0 12.047 6.024 18.071 18.071 18.071h463.812v-210.824c0-18.071 12.047-30.118 30.118-30.118h210.824v-210.824c0-18.071 12.047-30.118 30.118-30.118s30.118 12.047 30.118 30.118v210.824c0 12.047-6.024 36.141-42.165 84.329zM632.471 713.036v144.565c24.094-18.071 48.188-42.165 78.306-66.259s54.212-54.212 66.259-78.306h-144.565zM933.647 231.153h-120.471v120.471h-120.471v-120.471h-120.471v-120.471h120.471v-120.471h120.471v120.471h120.471v120.471z" />
<glyph unicode="&#xe937;" glyph-name="056" d="M632.471-9.788l-180.706 210.824 78.306 78.306 102.4-108.424 240.941 240.942 60.235-60.236-301.176-361.412zM831.247 737.131c-18.071 30.118-48.188 60.235-78.306 96.376s-66.259 60.235-96.376 84.33c-48.188 30.118-72.282 36.141-84.329 36.141h-463.812c-42.165 0-78.306-36.141-78.306-78.306v-813.178c0-36.141 36.141-72.282 78.306-72.282h379.482c12.047 0 24.094 12.047 24.094 30.118s-12.047 30.118-30.118 30.118h-373.459c-12.047 0-18.071 6.024-18.071 12.047v813.178c0 12.047 6.024 18.071 18.071 18.071h463.812v-210.824c0-18.071 12.047-30.118 30.118-30.118h210.824v-150.588c0-18.071 12.047-30.118 30.118-30.118s30.118 12.047 30.118 30.118v150.588c0 12.047-6.024 36.141-42.165 84.329zM632.471 713.036v144.565c24.094-18.071 48.188-42.165 78.306-66.259s54.212-54.212 66.259-78.306h-144.565z" />
<glyph unicode="&#xe938;" glyph-name="057" d="M512 960c-281.6 0-512-230.4-512-512s230.4-512 512-512c281.6 0 512 230.4 512 512s-230.4 512-512 512zM512 0c-64 0-121.6 12.8-179.2 38.4l230.4 262.4c12.8 6.4 12.8 12.8 12.8 19.2v96c0 19.2-12.8 32-32 32-115.2 0-230.4 115.2-230.4 121.6-6.4 0-19.2 6.4-25.6 6.4h-128c-19.2 0-32-12.8-32-32v-192c0-12.8 6.4-25.6 19.2-25.6l108.8-57.6v-185.6c-115.2 76.8-192 211.2-192 364.8 0 70.4 12.8 134.4 44.8 192h115.2c6.4 0 19.2 6.4 25.6 6.4l128 128c0 6.4 6.4 19.2 6.4 25.6v76.8c38.4 12.8 83.2 19.2 128 19.2 70.4 0 134.4-19.2 198.4-44.8-6.4-6.4-6.4-6.4-12.8-12.8-38.4-32-57.6-83.2-57.6-134.4s19.2-102.4 57.6-134.4c32-38.4 83.2-57.6 134.4-57.6h6.4c12.8-51.2 38.4-185.6-6.4-371.2v-6.4c-83.2-83.2-192-134.4-320-134.4z" />
<glyph unicode="&#xe939;" glyph-name="058" d="M704 192l288 288-288 288v-192h-448v-192h448v-192zM64 960h704v-128h-640v-704h640v-128h-704c-38.4 0-64 25.6-64 64v832c0 38.4 25.6 64 64 64z" />
<glyph unicode="&#xe93a;" glyph-name="059" d="M896 704v128h-896v-704c0-38.4 25.6-64 64-64h864c51.2 0 96 44.8 96 96v544h-128zM832 128h-768v640h768v-640zM128 640h640v-64h-640v64zM512 512h256v-64h-256v64zM512 384h256v-64h-256v64zM512 256h192v-64h-192v64zM128 512h320v-320h-320v320z" />
<glyph unicode="&#xe93b;" glyph-name="060" d="M921.6 779.294c24.094 0 42.165 18.071 42.165 42.165v90.353c0 30.118-18.071 48.188-42.165 48.188h-90.353c-30.118 0-48.188-18.071-48.188-48.188v-12.047h-602.353v12.047c0 30.118-18.071 48.188-42.165 48.188h-90.353c-30.118 0-48.188-18.071-48.188-48.188v-90.353c0-24.094 18.071-42.165 48.188-42.165h12.047v-602.353h-12.047c-30.118 0-48.188-18.071-48.188-48.188v-90.353c0-24.094 18.071-42.165 48.188-42.165h90.353c24.094 0 42.165 18.071 42.165 42.165v18.071h602.353v-18.071c0-24.094 18.071-48.188 48.188-48.188h90.353c24.094 0 48.188 18.071 48.188 48.188v90.353c0 24.094-18.071 48.188-48.188 48.188h-18.071v602.353h18.071zM843.294 899.765h60.235v-60.235h-60.235v60.235zM60.235 899.765h60.235v-60.235h-60.235v60.235zM120.471 56.471h-60.235v60.235h60.235v-60.235zM903.529 56.471h-60.235v60.235h60.235v-60.235zM843.294 176.941h-18.071c-24.094 0-48.188-18.071-48.188-48.188v-12.047h-596.329v18.071c0 24.094-18.071 42.165-42.165 42.165h-18.071v602.353h18.071c24.094 0 42.165 18.071 42.165 42.165v18.071h602.353v-18.071c0-24.094 18.071-42.165 48.188-42.165h12.047v-602.353zM481.882 719.059v-240.941h240.941c0 132.518-108.424 240.941-240.941 240.941zM421.647 417.882v295.153c-102.4-30.118-180.706-120.471-180.706-234.918 0-132.518 108.424-240.941 240.941-240.941 114.447 0 204.8 78.306 234.918 180.706h-295.153z" />
<glyph unicode="&#xe93c;" glyph-name="061" d="M928 512h-416v128h96c19.2 0 32 12.8 32 32v256c0 19.2-12.8 32-32 32h-256c-19.2 0-32-12.8-32-32v-256c0-19.2 12.8-32 32-32h96v-128h-416c-19.2 0-32-12.8-32-32s12.8-32 32-32h160v-128h-96c-19.2 0-32-12.8-32-32v-256c0-19.2 12.8-32 32-32h256c19.2 0 32 12.8 32 32v256c0 19.2-12.8 32-32 32h-96v128h448v-128h-96c-19.2 0-32-12.8-32-32v-256c0-19.2 12.8-32 32-32h256c19.2 0 32 12.8 32 32v256c0 19.2-12.8 32-32 32h-96v128h160c19.2 0 32 12.8 32 32s-12.8 32-32 32zM384 896h192v-192h-192v192zM320 64h-192v192h192v-192zM832 64h-192v192h192v-192z" />
<glyph unicode="&#xe93d;" glyph-name="062" d="M832 960h-640l-192-256h1024l-192 256zM0 640v-192h1024v192h-1024zM960 512h-64v64h64v-64zM0 384v-192h1024v192h-1024zM960 256h-64v64h64v-64zM0 128v-192h1024v192h-1024zM960 0h-64v64h64v-64z" />
<glyph unicode="&#xe93e;" glyph-name="063" d="M915.2 729.6c-19.2 32-51.2 64-83.2 102.4s-70.4 64-102.4 89.6c-51.2 32-76.8 38.4-89.6 38.4h-492.8c-44.8 0-83.2-38.4-83.2-83.2v-864c0-38.4 38.4-76.8 83.2-76.8h736c44.8 0 83.2 38.4 83.2 83.2v620.8c-6.4 12.8-12.8 38.4-51.2 89.6zM787.2 787.2c32-32 57.6-57.6 70.4-83.2h-153.6v153.6c25.6-19.2 51.2-38.4 83.2-70.4zM896 12.8c0-6.4-6.4-19.2-19.2-19.2h-729.6c-12.8 6.4-19.2 12.8-19.2 19.2v864c0 12.8 6.4 19.2 19.2 19.2h492.8v-224c0-19.2 12.8-32 32-32h224v-627.2zM192 512v-448h640v448h-640zM384 128h-128v128h128v-128zM384 320h-128v128h128v-128zM576 128h-128v128h128v-128zM576 320h-128v128h128v-128zM768 128h-128v128h128v-128zM768 320h-128v128h128v-128z" />
<glyph unicode="&#xe93f;" glyph-name="064" d="M851.2 729.6c-19.2 32-51.2 64-83.2 102.4s-70.4 64-102.4 83.2c-51.2 38.4-76.8 44.8-89.6 44.8h-428.8c-44.8 0-83.2-38.4-83.2-83.2v-236.8l32-704 32 704v236.8c0 12.8 6.4 19.2 19.2 19.2h428.8v-224c0-19.2 12.8-32 32-32h224l32-704 32 704c0 12.8-6.4 38.4-44.8 89.6zM640 704v153.6c25.6-19.2 51.2-44.8 83.2-70.4s57.6-57.6 70.4-83.2h-153.6zM576 512h-192v-320h-160l256-256 256 256h-160v320z" />
<glyph unicode="&#xe940;" glyph-name="065" d="M364.8 236.8l38.4 57.6-44.8 44.8-57.6-38.4c-12.8 6.4-19.2 12.8-32 12.8l-12.8 70.4h-64l-12.8-70.4c-12.8-6.4-25.6-6.4-32-12.8l-57.6 38.4-44.8-44.8 38.4-57.6c-6.4-12.8-12.8-19.2-12.8-32l-70.4-12.8v-64l70.4-12.8c6.4-12.8 6.4-25.6 12.8-32l-38.4-57.6 44.8-44.8 57.6 38.4c12.8-6.4 19.2-12.8 32-12.8l12.8-70.4h64l12.8 70.4c12.8 6.4 25.6 6.4 32 12.8l57.6-38.4 44.8 44.8-38.4 57.6c6.4 12.8 12.8 19.2 12.8 32l70.4 12.8v64l-70.4 12.8c0 12.8-6.4 19.2-12.8 32zM224 96c-38.4 0-64 25.6-64 64s25.6 64 64 64c38.4 0 64-25.6 64-64s-25.6-64-64-64zM1024 576v64l-70.4 12.8c0 6.4 0 19.2-6.4 25.6l57.6 38.4-25.6 57.6-64-12.8c-6.4 6.4-6.4 12.8-12.8 19.2l38.4 51.2-44.8 44.8-57.6-38.4c-6.4 6.4-12.8 6.4-19.2 12.8l12.8 64-57.6 25.6-38.4-57.6c-6.4 0-12.8 6.4-25.6 6.4l-6.4 70.4h-64l-12.8-70.4c-6.4 0-19.2 0-25.6-6.4l-32 64-64-25.6 12.8-64c-6.4-6.4-12.8-12.8-19.2-19.2l-51.2 38.4-44.8-44.8 38.4-57.6c-6.4 0-12.8-12.8-12.8-19.2l-64 12.8-32-57.6 57.6-38.4c0-6.4-6.4-12.8-6.4-25.6l-64-6.4v-64l64-12.8c0-6.4 0-19.2 6.4-25.6l-57.6-32 25.6-57.6 64 12.8c6.4-12.8 12.8-19.2 19.2-25.6l-38.4-51.2 44.8-44.8 57.6 38.4c0-6.4 6.4-12.8 19.2-12.8l-12.8-64 57.6-25.6 38.4 57.6c6.4 0 12.8-6.4 25.6-6.4l6.4-70.4h64l12.8 70.4c6.4 0 19.2 0 25.6 6.4l38.4-57.6 57.6 25.6-12.8 64c6.4 6.4 12.8 6.4 19.2 12.8l51.2-38.4 44.8 44.8-38.4 57.6c6.4 6.4 6.4 12.8 12.8 19.2l64-12.8 25.6 57.6-57.6 38.4c0 6.4 6.4 12.8 6.4 25.6l70.4 6.4zM672 467.2c-76.8 0-140.8 64-140.8 140.8s64 140.8 140.8 140.8c76.8 0 140.8-64 140.8-140.8s-64-140.8-140.8-140.8z" />
<glyph unicode="&#xe941;" glyph-name="066" d="M864 960h-832c-19.2 0-32-12.8-32-32v-960c0-19.2 12.8-32 32-32h960c19.2 0 32 12.8 32 32v832l-160 160zM256 928h512v-256c0-19.2-12.8-32-32-32h-448c-19.2 0-32 12.8-32 32v256zM896-32h-768v416c0 38.4 25.6 64 64 64h640c38.4 0 64-25.6 64-64v-416zM576 896h128v-192h-128v192zM256 384h512v-64h-512v64zM256 256h512v-64h-512v64zM256 128h512v-64h-512v64z" />
<glyph unicode="&#xe942;" glyph-name="067" d="M960 512h-384v384h-128v-384h-384v-128h384v-384h128v384h384v128z" />
<glyph unicode="&#xe943;" glyph-name="068" d="M768 416v-352h-640v640h352l128 128h-512c-51.2 0-96-44.8-96-96v-704c0-51.2 44.8-96 96-96h704c51.2 0 96 44.8 96 96v512l-128-128zM864 960l-608-608v-160h160l608 608c0 96-64 160-160 160z" />
<glyph unicode="&#xe944;" glyph-name="069" d="M896 256v-128h-768v128h-128v-256h1024v256h-128zM768 576h-192v320h-128v-320h-192l256-384 256 384z" />
<glyph unicode="&#xe945;" glyph-name="070" d="M640 704v256h-448l-192-192v-576h384v-256h640v768h-384zM192 870.4v-102.4h-102.4l102.4 102.4zM64 256v448h192v192h320v-192l-192-192v-256h-320zM576 614.4v-102.4h-102.4l102.4 102.4zM960 0h-512v448h192v192h320v-640z" />
<glyph unicode="&#xe946;" glyph-name="071" d="M0 896v-896h1024v896h-1024zM384 320v192h256v-192h-256zM640 256v-192h-256v192h256zM640 768v-192h-256v192h256zM320 768v-192h-256v192h256zM64 512h256v-192h-256v192zM704 512h256v-192h-256v192zM704 576v192h256v-192h-256zM64 256h256v-192h-256v192zM704 64v192h256v-192h-256z" />
<glyph unicode="&#xe947;" glyph-name="072" d="M384 224c0 153.6 96 281.6 230.4 332.8 12.8 32 25.6 76.8 25.6 115.2 0 160 0 288-192 288s-192-128-192-288c0-96 57.6-198.4 128-236.8v-51.2c-217.6-19.2-384-128-384-256h396.8c-6.4 32-12.8 64-12.8 96zM736 512c-160 0-288-128-288-288s128-288 288-288c160 0 288 128 288 288s-128 288-288 288zM896 192h-128v-128h-64v128h-128v64h128v128h64v-128h128v-64z" />
<glyph unicode="&#xe948;" glyph-name="073" d="M512 768c-224 0-416-128-512-320 96-192 288-320 512-320s416 128 512 320c-96 192-288 320-512 320zM761.6 595.2c57.6-38.4 108.8-89.6 147.2-147.2-38.4-57.6-89.6-108.8-147.2-147.2-70.4-51.2-160-76.8-249.6-76.8s-179.2 25.6-249.6 76.8c-64 38.4-115.2 89.6-153.6 147.2 38.4 57.6 89.6 108.8 147.2 147.2 6.4 0 6.4 6.4 12.8 6.4-6.4-25.6-12.8-51.2-12.8-83.2 0-140.8 115.2-256 256-256s256 115.2 256 256c0 32-6.4 57.6-12.8 89.6 0-6.4 6.4-6.4 6.4-12.8zM512 544c0-51.2-44.8-96-96-96s-96 44.8-96 96c0 51.2 44.8 96 96 96s96-44.8 96-96z" />
<glyph unicode="&#xe949;" glyph-name="074" d="M864 960h-768c-51.2 0-96-44.8-96-96v-832c0-51.2 44.8-96 96-96h768c51.2 0 96 44.8 96 96v832c0 51.2-44.8 96-96 96zM832 64h-704v768h704v-768zM256 512h448v-64h-448v64zM256 384h448v-64h-448v64zM256 256h448v-64h-448v64zM256 640h448v-64h-448v64z" />
<glyph unicode="&#xe94a;" glyph-name="075" d="M512 960c-281.6 0-512-230.4-512-512s230.4-512 512-512c281.6 0 512 230.4 512 512s-230.4 512-512 512zM448 716.8c0 32 19.2 51.2 51.2 51.2h32c25.6 0 44.8-19.2 44.8-51.2v-32c0-25.6-19.2-44.8-44.8-44.8h-32c-32 0-51.2 19.2-51.2 44.8v32zM640 128h-256v64h64v256h-64v64h192v-320h64v-64z" />
<glyph unicode="&#xe94b;" glyph-name="076" d="M512 960c-281.6 0-512-230.4-512-512s230.4-512 512-512c281.6 0 512 230.4 512 512s-230.4 512-512 512zM768 288l-96-96-160 160-160-160-96 96 160 160-160 160 96 96 160-160 160 160 96-96-160-160 160-160z" />
<glyph unicode="&#xe94c;" glyph-name="077" horiz-adv-x="1088" d="M1012.019 44.8l-435.198 870.4c-19.2 32-44.8 44.8-64 44.8s-44.8-12.8-64-44.8l-435.2-870.4c-32-57.6-6.4-108.8 64-108.8h870.398c70.4 0 96 51.2 64 108.8zM512.821 64c-38.4 0-64 25.6-64 64s25.6 64 64 64c38.4 0 64-25.6 64-64s-25.6-64-64-64zM576.821 320c0-38.4-25.6-64-64-64s-64 25.6-64 64v192c0 38.4 25.6 64 64 64s64-25.6 64-64v-192z" />
<glyph unicode="&#xe94d;" glyph-name="078" d="M512 960c-281.6 0-512-230.4-512-512s230.4-512 512-512c281.6 0 512 230.4 512 512s-230.4 512-512 512zM416 192l-179.2 211.2 64 64 115.2-115.2 332.8 288 44.8-44.8-377.6-403.2z" />
<glyph unicode="&#xe94e;" glyph-name="079" d="M864 832l-480-480-224 224-160-160 384-384 640 640-160 160z" />
<glyph unicode="&#xe94f;" glyph-name="080" d="M960 768h-192c-6.4 0-12.8 6.4-19.2 12.8l-38.4 70.4c-6.4 25.6-38.4 44.8-70.4 44.8h-256c-32 0-64-19.2-76.8-44.8l-32-70.4c-6.4-6.4-12.8-12.8-19.2-12.8v32c0 19.2-12.8 32-32 32h-128c-19.2 0-32-12.8-32-32v-32c-38.4 0-64-32-64-64v-576c0-38.4 25.6-64 64-64h896c38.4 0 64 25.6 64 64v576c0 32-25.6 64-64 64zM64 128v576h192c32 0 64 19.2 76.8 44.8l38.4 70.4c0 6.4 6.4 12.8 12.8 12.8h256c6.4 0 12.8-6.4 19.2-12.8l38.4-70.4c6.4-25.6 38.4-44.8 70.4-44.8h192v-576h-896zM512.001 710.399c-147.2 0-262.4-115.2-262.4-262.4s115.2-262.399 262.4-262.399c147.199 0 262.399 121.6 262.399 262.399s-115.2 262.4-262.399 262.4zM512.001 249.6c-108.8 0-198.4 89.599-198.4 198.399s89.6 198.4 198.4 198.4c108.8 0 198.399-89.6 198.399-198.4s-89.599-198.399-198.399-198.399zM640 448c0-70.4-57.6-128-128-128s-128 57.6-128 128c0 70.4 57.6 128 128 128s128-57.6 128-128zM832 640h64v-64h-64v64z" />
<glyph unicode="&#xe950;" glyph-name="081" d="M960 896v-896h-896v896h896zM0 960v-1024h1024v1024h-1024zM128 832h320v-768h-320v768zM576 832h320v-384h-320v384z" />
<glyph unicode="&#xe951;" glyph-name="082" d="M0 960h64v-960h960v-64h-1024v1024zM448 832h-320v128h320v-128zM704 640h-448v128h448v-128zM448 448h-192v128h192v-128zM1024 64h-192v128h192v-128zM896 256h-512v128h512v-128z" />
<glyph unicode="&#xe952;" glyph-name="083" d="M0 864c0 53.019 42.981 96 96 96h448c17.673 0 32-14.327 32-32s-14.327-32-32-32h-448c-17.673 0-32-14.327-32-32v-832c0-17.67-14.327-32-32-32s-32 14.33-32 32v832zM768-64c-141.385 0-256 114.611-256 256 0 141.391 114.615 256 256 256 141.382 0 256-114.609 256-256 0-141.389-114.618-256-256-256zM768 55.597l196.205 196.198-72.41 72.408-123.795-123.8-59.795 59.802-72.409-72.41 132.204-132.198zM224 768c-17.673 0-32-14.327-32-32v-704c0-17.67 14.327-32 32-32h287.976c18.202-24.23 39.763-45.798 63.992-64h-351.969c-53.020 0-96 42.982-96 96v704c0 53.020 42.98 96 96 96h357.491c25.46 0 49.878-10.115 67.879-28.118l154.515-154.509c18.003-18.004 28.115-42.422 28.115-67.882v-75.892c-20.678 4.198-42.080 6.401-64 6.401v64h-192v192h-352zM567.725 441.594h-247.725v-115.2h157.505c20.881 45.060 51.938 84.443 90.22 115.2zM451.111 236.8h-131.111v-89.6h131.112c-2.051 14.637-3.112 29.594-3.112 44.8s1.060 30.157 3.111 44.8z" />
<glyph unicode="&#xe953;" glyph-name="084" d="M192 288l-192-96 512-256 512 256-192 96-71.552-35.776 120.442-60.224-368.89-184.448-368.892 184.448 120.445 60.224-71.554 35.776zM0 704l512 256 512-256-512-256-512 256zM192 544l-192-96 512-256 512 256-192 96-71.552-35.777 120.442-60.223-368.89-184.448-368.892 184.448 120.445 60.223-71.554 35.777z" />
<glyph unicode="&#xe954;" glyph-name="085" d="M950.272 655.562c6.355-10.172 9.728-21.922 9.728-33.922v-557.64c0-35.341-28.653-64-64-64h-64v320c0 53.016-42.982 96-96 96h-448c-53.020 0-96-42.984-96-96v-320h-64c-35.347 0-64 28.659-64 64v768c0 35.344 28.653 64 64 64h96v-160c0-53.016 42.98-96 96-96h288c53.018 0 96 42.984 96 96v160h60.531c22.061 0 42.573-11.375 54.266-30.078l131.475-210.36zM640 896h-352v-160c0-17.672 14.327-32 32-32h288c17.673 0 32 14.328 32 32v160zM256 0h512v128h-512v-128zM288 352c-17.673 0-32-14.328-32-32h512c0 17.672-14.33 32-32 32h-448zM256 192v64h512v-64h-512z" />
<glyph unicode="&#xe955;" glyph-name="086" d="M102.824 917.332l-60.16-60.16 88.264-88.264c-1.912-7.098-2.931-14.556-2.931-22.243v-597.334c0-46.931 38.4-85.331 85.333-85.331h597.332c7.68 0 15.13 1.024 22.221 2.95l63.539-63.539 60.16 60.16-853.758 853.761zM495.546 404.291l143.41-143.407c-8.044-63.027-61.707-111.552-126.958-111.552-70.827 0-128 57.171-128 128 0 65.252 48.526 118.915 111.548 126.959zM323.837 575.999l-107.554 107.554c-1.925-7.091-2.953-14.542-2.953-22.221 0-46.933 38.4-85.333 85.334-85.333h25.173zM639.997 661.332c0-45.618-36.278-83.174-81.409-85.244l337.412-337.407v387.237c0 22.613-8.96 44.373-25.178 60.16l-120.32 120.747c-16.211 16.213-37.971 25.173-60.582 25.173h-387.242l85.333-85.333h166.653c46.933 0 85.333-38.4 85.333-85.334z" />
<glyph unicode="&#xe956;" glyph-name="087" d="M750.509 806.827c-16.218 16.213-37.978 25.173-60.589 25.173h-476.587c-47.36 0-85.333-38.4-85.333-85.333v-597.336c0-46.931 38.4-85.331 85.333-85.331h597.336c46.931 0 85.331 38.4 85.331 85.331v476.589c0 22.613-8.96 44.373-25.171 60.16l-120.32 120.747zM512 149.331c-70.827 0-128 57.178-128 128 0 70.829 57.173 128.002 128 128.002s128-57.173 128-128.002c0-70.822-57.173-128-128-128zM298.667 576c-46.934 0-85.334 38.4-85.334 85.333s38.4 85.334 85.334 85.334h256c46.933 0 85.333-38.4 85.333-85.334s-38.4-85.333-85.333-85.333h-256z" />
<glyph unicode="&#xe957;" glyph-name="088" d="M851.2 768h-211.2v76.8c0 32-19.2 51.2-44.8 51.2h-160c-32 0-51.2-19.2-51.2-51.2v-76.8h-204.8c-32 0-51.2-19.2-51.2-51.2v-76.8h768v76.8c0 32-19.2 51.2-44.8 51.2zM576 768h-128v64h128v-64zM832 576v-512c0-35.347-28.653-64-64-64h-512c-35.346 0-64 28.653-64 64v512h640zM384 512h-64v-448h64v448zM704 512h-64v-448h64v448zM480 64h64v448h-64v-448z" />
<glyph unicode="&#xe958;" glyph-name="089" d="M512 960c-56.32 0-102.4-46.080-102.4-102.4v-307.2h-307.2c-56.32 0-102.4-46.080-102.4-102.4s46.080-102.4 102.4-102.4h307.2v-307.2c0-56.32 46.080-102.4 102.4-102.4s102.4 46.080 102.4 102.4v307.2h307.2c56.32 0 102.4 46.080 102.4 102.4s-46.080 102.4-102.4 102.4h-307.2v307.2c0 56.32-46.080 102.4-102.4 102.4z" />
<glyph unicode="&#xe959;" glyph-name="090" d="M883.622 719.681c16.64-16.64 16.64-43.52 0-60.16l-78.080-78.080-160 160 78.080 78.080c7.968 7.989 18.79 12.479 30.080 12.479 11.283 0 22.106-4.49 30.080-12.479l99.84-99.84zM128 85.229v129.709c0 5.971 2.133 11.091 6.4 15.36l465.493 465.494 159.998-160-465.918-465.494c-3.84-4.269-9.386-6.4-14.933-6.4h-129.707c-11.946 0-21.333 9.389-21.333 21.331z" />
<glyph unicode="&#xe95a;" glyph-name="091" d="M323.395 619.371l236.373 236.373c24.747 25.173 64.854 25.173 90.024 0.427 15.36-15.36 21.76-37.12 17.498-58.454l-40.534-195.413h241.066c91.731 0 153.6-93.867 117.76-178.347l-139.091-324.693c-13.658-31.149-44.378-51.629-78.509-51.629h-383.999c-46.934 0-85.334 38.4-85.334 85.338v426.238c0 22.613 8.96 44.373 24.747 60.16zM213.315 132.966c0-46.931-38.4-85.331-85.333-85.331s-85.334 38.4-85.334 85.331v341.336c0 46.934 38.4 85.334 85.334 85.334s85.333-38.4 85.333-85.334v-341.336z" />
<glyph unicode="&#xe95b;" glyph-name="092" d="M608.205 590.017v69.866c0 39.107 47.149 58.881 74.65 31.198l200.378-201.689c17.024-17.137 17.024-44.82 0-61.956l-200.378-201.688c-27.501-27.686-74.65-8.352-74.65 30.758v74.26c-218.275 0-371.068-70.305-480.205-224.097 43.655 219.702 174.62 439.407 480.205 483.348z" />
<glyph unicode="&#xe95c;" glyph-name="093" d="M823.040 289.709l-195.411-195.418c-16.64-16.64-43.947-16.64-60.587 0s-16.64 43.949 0 60.589l122.877 122.451h-433.917c-23.467 0-42.667 19.2-42.667 42.669v426.667c0 23.466 19.2 42.666 42.667 42.666s42.667-19.2 42.667-42.666v-384h391.251l-122.877 122.453c-16.64 16.64-16.64 43.947 0 60.587s43.947 16.64 60.587 0l195.411-195.414c16.64-16.64 16.64-43.945 0-60.585z" />
<glyph unicode="&#xe95d;" glyph-name="094" d="M371.261 38.4c-35.244 0.173-70.103 7.424-102.547 21.338-32.444 13.92-61.825 34.214-86.434 59.712-24.424 23.398-44.044 51.43-57.736 82.496s-21.189 64.557-22.061 98.554c-0.872 33.999 4.899 67.837 16.98 99.579s30.239 60.764 53.431 85.405l313.972 320.332c16.767 16.914 36.751 30.219 58.748 39.111s45.546 13.187 69.23 12.625c25.372-0.087 50.467-5.279 73.833-15.272s44.525-24.587 62.253-42.931c35.277-34.328 55.738-81.334 56.934-130.813s-16.96-97.44-50.541-133.471l-315.676-320.331c-10.111-10.285-22.143-18.445-35.398-23.994s-27.468-8.384-41.816-8.339c-15.499-0.026-30.845 3.098-45.133 9.165-14.287 6.074-27.226 14.976-38.052 26.189-21.64 21.171-34.138 50.125-34.776 80.557-0.639 30.434 10.632 59.894 31.363 81.977l291.363 295.757c8.292 5.565 18.25 8.026 28.147 6.954s19.112-5.609 26.049-12.824c6.937-7.215 11.158-16.655 11.934-26.685s-1.944-20.018-7.687-28.235l-291.363-295.754c-4.859-5.92-7.224-13.53-6.586-21.19s4.229-14.758 9.998-19.77c6.003-6.112 14.095-9.658 22.609-9.914 3.154-0.051 6.286 0.538 9.215 1.722s5.596 2.944 7.849 5.171l315.251 320.333c17.696 19.868 26.944 45.974 25.747 72.678s-12.742 51.858-32.147 70.026c-18.016 18.908-42.522 30.116-68.471 31.32-25.948 1.203-51.366-7.692-71.023-24.852l-315.252-318.607c-15.33-16.641-27.252-36.18-35.082-57.496s-11.411-43.984-10.539-66.702c0.872-22.72 6.181-45.043 15.621-65.677 9.44-20.64 22.825-39.187 39.384-54.579 16.606-17.395 36.477-31.277 58.45-40.826s45.61-14.573 69.528-14.79c20.623-0.166 41.075 3.782 60.182 11.622 19.107 7.846 36.493 19.424 51.159 34.080l315.252 320.331c3.949 4.020 8.646 7.214 13.818 9.4 5.165 2.186 10.714 3.322 16.32 3.341s11.162-1.076 16.346-3.225c5.184-2.149 9.901-5.31 13.882-9.302 3.974-3.991 7.136-8.735 9.299-13.962s3.29-10.831 3.309-16.496c0.019-5.665-1.069-11.278-3.194-16.52s-5.254-10.008-9.203-14.028l-315.252-320.328c-22.383-23.027-49.069-41.318-78.509-53.83-29.439-12.506-61.045-18.976-92.98-19.034z" />
<glyph unicode="&#xe95e;" glyph-name="095" d="M162.132 85.978l744.531 319.148c34.56 14.933 34.56 63.573 0 78.506l-744.531 319.147c-28.16 12.373-59.307-8.533-59.307-38.827l-0.426-196.693c0-21.333 15.786-39.68 37.12-42.24l602.881-80.64-602.881-80.213c-21.334-2.987-37.12-21.334-37.12-42.667l0.426-196.692c0-30.291 31.147-51.2 59.307-38.829z" />
<glyph unicode="&#xe95f;" glyph-name="096" d="M183.108 447.851c0 215.467 177.92 389.974 395.094 384 200.109-5.546 367.36-172.8 372.909-372.906 5.971-217.172-168.538-395.092-384.003-395.092-89.173 0-170.666 30.291-235.52 81.491-20.053 15.36-21.333 45.651-3.413 63.571 15.36 15.36 39.253 16.64 56.32 3.418 50.347-39.68 113.92-63.149 182.613-63.149 166.403 0 300.803 136.109 298.665 302.934-2.131 158.72-135.68 292.267-294.398 294.4-167.253 2.133-302.933-132.267-302.933-298.667h76.373c19.2 0 28.587-23.040 15.36-36.266l-119.040-119.469c-8.533-8.531-21.76-8.531-30.293 0l-119.040 119.469c-13.654 13.226-4.267 36.266 14.933 36.266h76.373zM524.432 586.518c0 17.493 14.507 32 32 32s32-14.507 32-31.574v-145.066l122.883-72.96c14.931-8.96 20.051-28.587 11.091-43.947-8.96-14.936-28.589-20.056-43.949-11.096l-133.119 78.936c-12.8 7.68-20.907 21.76-20.907 36.693v157.014z" />
<glyph unicode="&#xe960;" glyph-name="097" d="M876.371 736.853l-59.302 71.68c-11.52 14.507-29.018 23.467-49.069 23.467h-512c-20.053 0-37.547-8.96-49.493-23.467l-58.88-71.68c-12.374-14.506-19.627-33.706-19.627-54.186v-533.336c0-46.931 38.4-85.331 85.333-85.331h597.336c46.931 0 85.331 38.4 85.331 85.331v533.336c0 20.48-7.251 39.68-19.629 54.186zM497.067 228.269l-219.734 219.731h149.334v85.333h170.666v-85.333h149.336l-219.736-219.731c-8.106-8.109-21.76-8.109-29.866 0zM253.018 789.333l-34.56-42.666h586.668l-40.109 42.666h-511.999z" />
<glyph unicode="&#xe961;" glyph-name="098" d="M921.581 960h-819.183c-56.319 0-102.398-46.078-102.398-102.396v-921.56l204.796 204.794h716.785c56.32 0 102.4 46.074 102.4 102.394v614.372c0 56.318-46.080 102.396-102.4 102.396zM921.626 243.251h-759.278l-59.903-59.898v674.271h819.181v-614.374zM358.444 601.601h-102.398v-102.396h102.398v102.396zM665.619 601.601h102.394v-102.396h-102.394v102.396zM563.22 601.601h-102.397v-102.396h102.397v102.396z" />
<glyph unicode="&#xe962;" glyph-name="099" d="M597.331 746.667c0-47.128-38.205-85.333-85.333-85.333s-85.333 38.205-85.333 85.333c0 47.128 38.205 85.333 85.333 85.333s85.333-38.205 85.333-85.333zM597.331 448.001c0-47.128-38.205-85.333-85.333-85.333s-85.333 38.205-85.333 85.333c0 47.128 38.205 85.333 85.333 85.333s85.333-38.205 85.333-85.333zM597.331 149.331c0-47.128-38.205-85.333-85.333-85.333s-85.333 38.205-85.333 85.333c0 47.128 38.205 85.333 85.333 85.333s85.333-38.205 85.333-85.333z" />
<glyph unicode="&#xe963;" glyph-name="100" d="M270.95 213.024l-97.087-144.448 10.332-47.245 48.889 10.093 97.041 144.358c-20.867 10.643-40.676 23.11-59.174 37.242zM681.99 263.475c0.646 1.286 1.056 2.707 1.658 4.083 2.445 5.203 4.614 10.406 6.368 15.872 0.275 0.973 0.41 1.952 0.736 2.842 1.798 5.971 3.309 12.026 4.518 18.138v0.928c8.992 51.96-6.688 109.917-42.566 162.273l51.194 76.18c58.989-7.245 109.997 7.067 134.534 43.645 42.573 63.246-9.222 168.538-115.533 235.251-106.404 66.758-227.059 69.558-269.537 6.401-24.629-36.623-17.434-87.425 13.514-136.582l-51.287-76.18c-64.063 10.356-125.267 0.711-170.79-28.445-0.276-0.089-0.6-0.178-0.784-0.356-5.319-3.485-10.431-7.254-15.313-11.289-0.784-0.622-1.706-1.2-2.352-1.822-4.428-3.771-8.603-7.809-12.499-12.090-0.922-1.067-2.214-2-3.090-3.111-4.913-5.361-9.384-11.082-13.375-17.112-63.833-94.803-9.363-238.275 121.439-320.406 130.894-82.138 288.723-71.738 352.42 23.066 4.013 5.997 7.699 12.269 10.746 18.714zM644.397 706.061c-40.908 25.645-60.879 66.091-44.506 90.492 16.327 24.312 62.771 23.201 103.59-2.445 41.005-25.645 60.787-66.179 44.506-90.491s-62.63-23.201-103.59 2.444z" />
<glyph unicode="&#xe964;" glyph-name="101" d="M704 490.668l-149.331 149.333 59.733 59.733 89.597-89.6 179.2 179.2 59.738-59.733-238.938-238.933zM469.336 661.334h-384v-85.333h384v85.333zM896 388.268l-59.731 59.733-110.931-110.933-110.935 110.933-59.733-59.733 110.931-110.936-110.931-110.931 59.733-59.731 110.935 110.931 110.931-110.931 59.731 59.731-110.931 110.931 110.931 110.936zM469.336 320.001h-384v-85.332h384v85.332z" />
<glyph unicode="&#xe965;" glyph-name="102" d="M569.755 58.426c-32.427-29.44-82.347-29.44-114.773 0.429l-4.694 4.262c-224 202.669-370.346 335.363-364.8 500.909 2.56 72.533 39.68 142.080 99.84 183.040 112.64 76.8 251.734 40.96 326.827-46.934 75.093 87.894 214.188 124.16 326.828 46.934 60.16-40.96 97.28-110.507 99.84-183.040 5.971-165.547-140.8-298.241-364.801-501.761l-4.267-3.84z" />
<glyph unicode="&#xe966;" glyph-name="103" d="M512.179 700.132c75.093 87.894 214.189 123.734 326.829 46.934 59.731-40.96 97.28-110.080 99.84-182.614 5.542-165.546-140.8-298.238-364.803-501.336l-4.693-4.262c-32.427-29.869-82.347-29.869-114.773-0.429l-4.267 3.84-2.577 2.342c-222.548 202.195-368.173 334.507-362.223 499.418 2.56 72.96 40.107 142.080 99.84 183.040 112.64 77.226 251.733 40.96 326.827-46.934zM512.177 121.574l4.266 4.262c203.096 183.898 337.067 305.496 337.067 428.803 0 85.334-64 149.334-149.331 149.334-65.709 0-129.709-42.24-151.896-100.694h-79.786c-22.614 58.454-86.614 100.694-152.32 100.694-85.334 0-149.334-64-149.334-149.334 0-123.306 133.974-244.905 337.067-428.803l4.267-4.262z" />
<glyph unicode="&#xe967;" glyph-name="104" d="M0 960v-1024h1024v1024h-1024zM384 256v192h256v-192h-256zM640 192v-192h-256v192h256zM640 704v-192h-256v192h256zM320 704v-192h-256v192h256zM64 448h256v-192h-256v192zM704 448h256v-192h-256v192zM704 512v192h256v-192h-256zM64 192h256v-192h-256v192zM704 0v192h256v-192h-256z" />
<glyph unicode="&#xe968;" glyph-name="105" d="M706.669 467.948l-351.576 351.573c-7.971 7.989-18.794 12.479-30.080 12.479s-22.108-4.49-30.080-12.479c-16.64-16.64-16.64-43.52 0-60.16l71.68-71.68-219.733-219.733c-25.173-25.174-25.173-65.707 0-90.454l234.667-234.665c12.373-12.378 29.013-18.778 45.226-18.778s32.854 6.4 45.227 18.778l234.669 234.665c25.171 24.747 25.171 65.28 0 90.454zM222.396 422.731l204.374 204.373 204.373-204.373h-408.747zM725.44 209.395c0 56.749 85.331 149.334 85.331 149.334s85.331-92.585 85.331-149.334c0-46.931-38.4-85.331-85.331-85.331s-85.331 38.4-85.331 85.331z" />
<glyph unicode="&#xe969;" glyph-name="106" d="M896 448h-128v128c0 35.2-28.8 64-64 64s-64-28.8-64-64v-128h-128c-35.2 0-64-28.8-64-64s28.8-64 64-64h128v-128c0-35.2 28.8-64 64-64s64 28.8 64 64v128h128c35.2 0 64 28.8 64 64s-28.8 64-64 64zM250.672 896h-53.344v-64h53.344v64zM384 746.656h-64v-59.718h64v59.718zM384 567.469h-64v-59.75h64v59.75zM384 388.281h-64v-59.75h64v59.75zM384 209.062h-64v-59.718h64v59.718zM250.672 0v64h-53.344v-64h53.344zM64 149.344h64v59.718h-64v-59.718zM64 328.531h64v59.75h-64v-59.75zM64 507.719h64v59.75h-64v-59.75zM64 686.938h64v59.718h-64v-59.718zM64 896h64v-64h-64v64zM128 64h-64v-64h64v64zM320 896h64v-64h-64v64zM384 64h-64v-64h64v64z" />
<glyph unicode="&#xe96a;" glyph-name="107" d="M810.323 269.709c48.141-26.976 75.648-75.072 72.211-123.162-2.298-29.325-3.443-30.496-40.115-35.187-22.925-3.52-167.341-4.691-316.339-4.691-168.483 0-344.989 3.52-357.597 7.034-50.43 12.902-22.923 106.746 43.554 151.315 51.576 34.016 157.022 85.627 185.676 91.492 38.969 8.211 43.553 32.843 0 112.605-10.316 17.594-21.777 71.551-22.923 127.853-1.146 91.491 16.046 153.658 93.984 184.156 16.046 5.865 32.092 8.211 46.992 8.211 51.576 0 99.715-29.324 119.199-72.724 28.652-57.475 17.189-211.134-12.608-266.263-34.385-62.168-30.946-82.108 6.877-92.665 25.218-7.037 103.151-44.575 181.090-87.973zM186.821 304.896c-18.339-12.902-35.53-29.318-49.284-45.741-43.553 0-76.792 1.171-80.23 2.342-28.654 7.040-12.608 60.996 25.215 84.455 28.654 18.767 87.107 48.092 103.153 51.61 20.631 4.692 25.215 17.595 0 62.168-5.731 9.384-12.607 39.88-12.607 71.551-1.146 51.61 9.169 86.799 52.723 102.048 36.676 14.076 77.938-3.519 92.838-35.189 14.9-32.843 6.877-117.297-9.169-147.793-18.338-36.362-14.9-45.746 5.731-51.611 4.584-1.173 13.754-5.865 26.361-11.73-50.43-21.113-119.199-59.821-154.73-82.11zM940.986 349.471c27.507-15.249 42.406-41.055 40.115-68.031-1.146-16.422-1.146-17.594-21.779-19.942-5.728-1.171-32.090-2.342-66.477-2.342-14.899 19.936-35.526 38.707-60.742 51.61-46.995 28.15-104.301 58.647-146.707 77.414 11.462 4.692 21.779 8.211 26.362 9.384 21.773 4.692 25.216 17.595 0 62.168-4.582 9.384-12.608 39.88-12.608 71.551-1.146 51.61 8.026 86.799 51.578 102.048 37.824 14.076 79.085-3.519 92.838-35.189 14.899-32.843 9.165-117.297-6.88-147.793-18.336-36.362-16.045-45.746 3.437-51.611 13.754-4.692 57.312-25.805 100.864-49.265z" />
<glyph unicode="&#xe96b;" glyph-name="108" d="M42.664 746.667c0 42.666 42.666 85.333 85.333 85.333v-85.333h-85.333zM640.006 832h-85.332v-85.333h85.332v85.333zM981.344 490.667h-85.338v-85.334h85.338v85.334zM981.344 320h-85.338v-85.331h85.338v85.331zM981.344 149.331h-85.338v-85.331c42.669 0 85.338 42.669 85.338 85.331zM896.006 661.333h85.338v-85.333h-85.338v85.333zM896.006 746.667v85.333c42.669 0 85.338-42.667 85.338-85.333h-85.338zM42.674 661.333h85.333v-85.333h-85.333v85.333zM810.675 832h-85.331v-85.333h85.331v85.333zM725.344 149.331h85.331v-85.331h-85.331v85.331zM384.008 832h85.334v-85.333h-85.334v85.333zM298.675 832h-85.333v-85.333h85.333v85.333zM42.674 490.667v-341.336c0-46.931 38.4-85.331 85.333-85.331h511.999v341.333c0 46.934-38.399 85.334-85.332 85.334h-512zM218.465 265.382l-63.573-81.498c-11.094-14.080-0.854-34.56 16.64-34.982h340.479c17.494 0 27.734 20.051 17.067 34.131l-94.72 126.291c-8.106 11.522-25.173 11.522-33.706 0.429l-89.6-115.2-59.307 71.251c-8.96 10.669-24.747 10.24-33.28-0.422z" />
<glyph unicode="&#xe96c;" glyph-name="109" d="M426.667 960c-23.564 0-42.667-19.103-42.667-42.667v-170.666c0-23.564 19.103-42.667 42.667-42.667h170.666c23.564 0 42.667 19.103 42.667 42.667v63.999h192v-64.001h-64l85.331-85.334 85.338 85.334h-64v106.668h-234.669v64.001c0 23.564-19.103 42.667-42.667 42.667h-170.666zM426.667 192c-23.564 0-42.667-19.104-42.667-42.669v-170.662c0-23.565 19.103-42.669 42.667-42.669h170.666c23.564 0 42.667 19.104 42.667 42.669v170.662c0 23.565-19.103 42.669-42.667 42.669h-170.666zM170.662 234.669l85.333-85.331h-64v-64.006h192v-42.662h-234.667v106.669h-64l85.334 85.331zM170.667 277.331l-170.667 170.668 170.667 170.667 170.666-170.667-170.666-170.668zM250.824 447.999l-80.157 80.157-80.157-80.157 80.157-80.157 80.157 80.157zM682.662 447.999l170.669-170.668 170.669 170.668-170.669 170.667-170.669-170.667zM853.331 528.156l80.154-80.157-80.154-80.157-80.16 80.157 80.16 80.157zM874.669 256v-42.669h-42.669v42.669h42.669zM874.669 170.669v-42.669h-42.669v42.669h42.669zM704 42.669h-42.662v42.662h42.662v-42.662zM789.338 42.669h-42.669v42.662h42.669v-42.662zM832 42.669v42.662h42.669v-42.662h-42.669zM149.331 682.667v-42.667h42.667v42.667h-42.667zM149.331 768v-42.667h42.667v42.667h-42.667zM362.664 853.333h-42.667v-42.666h42.667v42.666zM277.331 853.333h-42.666v-42.666h42.666v42.666zM191.997 810.667v42.666h-42.667v-42.666h42.667z" />
<glyph unicode="&#xe96d;" glyph-name="110" d="M981.331 494.932l-117.331 17.067-53.331 106.667-53.338-106.667-117.331-17.067 85.331-83.2-19.2-117.332 104.538 55.466 104.531-55.466-19.2 117.332 85.331 83.2zM481.521 287.181v44.636c60.343 33.476 109.714 122.748 109.714 206.441 0 139.487 0 251.076-164.571 251.076s-164.572-111.59-164.572-251.076c0-83.693 49.372-172.964 109.714-206.441v-44.636c-186.514-16.736-329.143-111.59-329.143-223.181h767.998c0 111.59-142.624 206.445-329.141 223.181z" />
<glyph unicode="&#xe96e;" glyph-name="111" d="M481.521 287.181v44.636c60.343 33.476 109.714 122.748 109.714 206.441 0 139.487 0 251.076-164.571 251.076s-164.572-111.59-164.572-251.076c0-83.693 49.372-172.964 109.714-206.441v-44.636c-186.514-16.736-329.143-111.59-329.143-223.181h767.998c0 111.59-142.624 206.445-329.141 223.181zM723.968 276.518c8.8-5.043 17.293-10.323 25.459-15.827 68.026-45.862 120.979-113.51 120.979-196.691h110.931c0 96.768-107.258 180.947-257.37 212.518zM652.198 309.997v21.819c60.333 33.478 109.709 122.749 109.709 206.442 0 139.487 0 251.076-164.572 251.076-1.453 0-2.895-0.009-4.323-0.026 13.542-14.47 24.057-30.901 32.052-48.522 14.328-31.585 20.298-66.328 23.121-99.363 2.784-32.57 2.784-67.772 2.784-101.505v-1.66c0-53.043-15.457-105.93-39.352-150.351-10.385-19.305-22.891-37.965-37.281-54.838 27.151-6.106 53.219-13.843 77.862-23.071z" />
</font>
</defs>
</svg>
