<svg width="55" height="55" viewBox="0 0 55 55" fill="none" xmlns="http://www.w3.org/2000/svg">
<g clip-path="url(#clip0)">
<rect width="55" height="55" rx="23.5" fill="#DD414B"/>
<rect x="0.25" y="0.25" width="54.5" height="54.5" rx="23.25" stroke="white" stroke-opacity="0.3" stroke-width="0.5"/>
<g filter="url(#filter0_dddddd)">
<path d="M39.2117 19H34.0731C33.7574 19 33.5 19.2574 33.5 19.5749V37.0803C33.5 37.3978 33.7574 37.6533 34.0731 37.6533H39.2117C39.5293 37.6533 39.7848 37.3959 39.7848 37.0803V19.5749C39.7848 19.2574 39.5274 19 39.2117 19ZM36.6415 36.2329C35.858 36.2329 35.2229 35.5978 35.2229 34.8144C35.2229 34.0309 35.858 33.3958 36.6415 33.3958C37.4249 33.3958 38.06 34.0309 38.06 34.8144C38.06 35.5978 37.4268 36.2329 36.6415 36.2329ZM38.6706 29.2041C38.6706 29.2867 38.603 29.3525 38.5203 29.3525H34.7645C34.6818 29.3525 34.6142 29.2849 34.6142 29.2041V20.721C34.6142 20.6384 34.6818 20.5707 34.7645 20.5707H35.4033L36.5005 21.668C36.5795 21.7469 36.7072 21.7469 36.7861 21.668L37.8815 20.5726H38.5203C38.603 20.5726 38.6706 20.6402 38.6706 20.7229V29.2041Z" fill="white"/>
<path d="M38.0618 23.1541H35.2229C35.0669 23.1541 34.941 23.0282 34.941 22.8723C34.941 22.7163 35.0669 22.5904 35.2229 22.5904H38.0618C38.2178 22.5904 38.3437 22.7163 38.3437 22.8723C38.3437 23.0282 38.2178 23.1541 38.0618 23.1541Z" fill="white"/>
<path d="M38.0618 24.4056H35.2229C35.0669 24.4056 34.941 24.2797 34.941 24.1237C34.941 23.9677 35.0669 23.8419 35.2229 23.8419H38.0618C38.2178 23.8419 38.3437 23.9677 38.3437 24.1237C38.3437 24.2797 38.2178 24.4056 38.0618 24.4056Z" fill="white"/>
<path d="M38.0618 25.6587H35.2229C35.0669 25.6587 34.941 25.5329 34.941 25.3769C34.941 25.221 35.0669 25.0951 35.2229 25.0951H38.0618C38.2178 25.0951 38.3437 25.221 38.3437 25.3769C38.3437 25.5329 38.2178 25.6587 38.0618 25.6587Z" fill="white"/>
<path d="M38.0618 26.9118H35.2229C35.0669 26.9118 34.941 26.786 34.941 26.63C34.941 26.4741 35.0669 26.3482 35.2229 26.3482H38.0618C38.2178 26.3482 38.3437 26.4741 38.3437 26.63C38.3437 26.786 38.2178 26.9118 38.0618 26.9118Z" fill="white"/>
<path d="M38.0618 28.1633H35.2229C35.0669 28.1633 34.941 28.0374 34.941 27.8815C34.941 27.7256 35.0669 27.5997 35.2229 27.5997H38.0618C38.2178 27.5997 38.3437 27.7256 38.3437 27.8815C38.3437 28.0374 38.2178 28.1633 38.0618 28.1633Z" fill="white"/>
<path d="M21.2118 19H16.0731C15.7575 19 15.5 19.2574 15.5 19.5749V37.0803C15.5 37.3978 15.7575 37.6533 16.0731 37.6533H21.2118C21.5293 37.6533 21.7848 37.3959 21.7848 37.0803V19.5749C21.7848 19.2574 21.5274 19 21.2118 19ZM18.6415 36.2329C17.858 36.2329 17.223 35.5978 17.223 34.8144C17.223 34.0309 17.858 33.3958 18.6415 33.3958C19.425 33.3958 20.06 34.0309 20.06 34.8144C20.06 35.5978 19.4269 36.2329 18.6415 36.2329ZM20.6707 29.2041C20.6707 29.2867 20.603 29.3525 20.5204 29.3525H16.7645C16.6818 29.3525 16.6142 29.2849 16.6142 29.2041V20.721C16.6142 20.6384 16.6818 20.5707 16.7645 20.5707H17.4033L18.5006 21.668C18.5795 21.7469 18.7072 21.7469 18.7861 21.668L19.8816 20.5726H20.5204C20.603 20.5726 20.6707 20.6402 20.6707 20.7229V29.2041Z" fill="white"/>
<path d="M20.0618 23.1541H17.2229C17.0669 23.1541 16.941 23.0282 16.941 22.8723C16.941 22.7163 17.0669 22.5904 17.2229 22.5904H20.0618C20.2178 22.5904 20.3436 22.7163 20.3436 22.8723C20.3436 23.0282 20.2178 23.1541 20.0618 23.1541Z" fill="white"/>
<path d="M20.0618 24.4056H17.2229C17.0669 24.4056 16.941 24.2797 16.941 24.1237C16.941 23.9677 17.0669 23.8419 17.2229 23.8419H20.0618C20.2178 23.8419 20.3436 23.9677 20.3436 24.1237C20.3436 24.2797 20.2178 24.4056 20.0618 24.4056Z" fill="white"/>
<path d="M20.0618 25.6587H17.2229C17.0669 25.6587 16.941 25.5329 16.941 25.3769C16.941 25.221 17.0669 25.0951 17.2229 25.0951H20.0618C20.2178 25.0951 20.3436 25.221 20.3436 25.3769C20.3436 25.5329 20.2178 25.6587 20.0618 25.6587Z" fill="white"/>
<path d="M20.0618 26.9118H17.2229C17.0669 26.9118 16.941 26.786 16.941 26.63C16.941 26.4741 17.0669 26.3482 17.2229 26.3482H20.0618C20.2178 26.3482 20.3436 26.4741 20.3436 26.63C20.3436 26.786 20.2178 26.9118 20.0618 26.9118Z" fill="white"/>
<path d="M20.0618 28.1633H17.2229C17.0669 28.1633 16.941 28.0374 16.941 27.8815C16.941 27.7256 17.0669 27.5997 17.2229 27.5997H20.0618C20.2178 27.5997 20.3436 27.7256 20.3436 27.8815C20.3436 28.0374 20.2178 28.1633 20.0618 28.1633Z" fill="white"/>
<path d="M25.5005 28.3743V29.1241H31.1234C31.2228 29.1241 31.3182 29.1636 31.3885 29.2339C31.4588 29.3042 31.4983 29.3995 31.4983 29.4989V29.7488C31.4983 29.8483 31.4588 29.9436 31.3885 30.0139C31.3182 30.0842 31.2228 30.1237 31.1234 30.1237H25.5005V30.8734C25.5005 31.2083 25.0953 31.3733 24.8601 31.139L23.6105 29.8894C23.5402 29.8191 23.5007 29.7238 23.5007 29.6244C23.5007 29.5249 23.5402 29.4296 23.6105 29.3593L24.8601 28.1098C25.0965 27.8736 25.5005 28.0418 25.5005 28.3743Z" fill="white"/>
<path d="M31.3902 26.3599C31.425 26.3947 31.4527 26.436 31.4715 26.4815C31.4904 26.527 31.5001 26.5758 31.5001 26.625C31.5001 26.6742 31.4904 26.723 31.4715 26.7685C31.4527 26.814 31.425 26.8553 31.3902 26.8901L30.1407 28.1397C29.9064 28.374 29.5003 28.2098 29.5003 27.8742V27.1244H23.8773C23.7779 27.1244 23.6825 27.0849 23.6122 27.0146C23.5419 26.9443 23.5024 26.849 23.5024 26.7496V26.4997C23.5024 26.4002 23.5419 26.3049 23.6122 26.2346C23.6825 26.1643 23.7779 26.1248 23.8773 26.1248H29.5003V25.3751C29.5003 25.0414 29.9048 24.8752 30.1407 25.1095L31.3902 26.3599Z" fill="white"/>
</g>
</g>
<defs>
<filter id="filter0_dddddd" x="-64.5" y="16" width="184.285" height="204" filterUnits="userSpaceOnUse" color-interpolation-filters="sRGB">
<feFlood flood-opacity="0" result="BackgroundImageFix"/>
<feColorMatrix in="SourceAlpha" type="matrix" values="0 0 0 0 0 0 0 0 0 0 0 0 0 0 0 0 0 0 127 0"/>
<feOffset dy="2.76726"/>
<feGaussianBlur stdDeviation="1.1069"/>
<feColorMatrix type="matrix" values="0 0 0 0 0.74902 0 0 0 0 0.133333 0 0 0 0 0.172549 0 0 0 0.123704 0"/>
<feBlend mode="normal" in2="BackgroundImageFix" result="effect1_dropShadow"/>
<feColorMatrix in="SourceAlpha" type="matrix" values="0 0 0 0 0 0 0 0 0 0 0 0 0 0 0 0 0 0 127 0"/>
<feOffset dy="6.6501"/>
<feGaussianBlur stdDeviation="2.66004"/>
<feColorMatrix type="matrix" values="0 0 0 0 0.74902 0 0 0 0 0.133333 0 0 0 0 0.172549 0 0 0 0.177713 0"/>
<feBlend mode="normal" in2="effect1_dropShadow" result="effect2_dropShadow"/>
<feColorMatrix in="SourceAlpha" type="matrix" values="0 0 0 0 0 0 0 0 0 0 0 0 0 0 0 0 0 0 127 0"/>
<feOffset dy="12.5216"/>
<feGaussianBlur stdDeviation="5.00862"/>
<feColorMatrix type="matrix" values="0 0 0 0 0.74902 0 0 0 0 0.133333 0 0 0 0 0.172549 0 0 0 0.22 0"/>
<feBlend mode="normal" in2="effect2_dropShadow" result="effect3_dropShadow"/>
<feColorMatrix in="SourceAlpha" type="matrix" values="0 0 0 0 0 0 0 0 0 0 0 0 0 0 0 0 0 0 127 0"/>
<feOffset dy="22.3363"/>
<feGaussianBlur stdDeviation="8.93452"/>
<feColorMatrix type="matrix" values="0 0 0 0 0.74902 0 0 0 0 0.133333 0 0 0 0 0.172549 0 0 0 0.262287 0"/>
<feBlend mode="normal" in2="effect3_dropShadow" result="effect4_dropShadow"/>
<feColorMatrix in="SourceAlpha" type="matrix" values="0 0 0 0 0 0 0 0 0 0 0 0 0 0 0 0 0 0 127 0"/>
<feOffset dy="41.7776"/>
<feGaussianBlur stdDeviation="16.711"/>
<feColorMatrix type="matrix" values="0 0 0 0 0.74902 0 0 0 0 0.133333 0 0 0 0 0.172549 0 0 0 0.316296 0"/>
<feBlend mode="normal" in2="effect4_dropShadow" result="effect5_dropShadow"/>
<feColorMatrix in="SourceAlpha" type="matrix" values="0 0 0 0 0 0 0 0 0 0 0 0 0 0 0 0 0 0 127 0"/>
<feOffset dy="100"/>
<feGaussianBlur stdDeviation="40"/>
<feColorMatrix type="matrix" values="0 0 0 0 0.74902 0 0 0 0 0.133333 0 0 0 0 0.172549 0 0 0 0.44 0"/>
<feBlend mode="normal" in2="effect5_dropShadow" result="effect6_dropShadow"/>
<feBlend mode="normal" in="SourceGraphic" in2="effect6_dropShadow" result="shape"/>
</filter>
<clipPath id="clip0">
<path d="M0 23.5C0 10.5213 10.5213 0 23.5 0H31.5C44.4787 0 55 10.5213 55 23.5V31.5C55 44.4787 44.4787 55 31.5 55H23.5C10.5213 55 0 44.4787 0 31.5V23.5Z" fill="white"/>
</clipPath>
</defs>
</svg>
