<svg width="55" height="55" viewBox="0 0 55 55" fill="none" xmlns="http://www.w3.org/2000/svg">
<g clip-path="url(#clip0)">
<rect width="55" height="55" rx="23.5" fill="#03A9F4"/>
<rect x="0.25" y="0.25" width="54.5" height="54.5" rx="23.25" stroke="white" stroke-opacity="0.3" stroke-width="0.5"/>
<g filter="url(#filter0_dddddd)">
<path d="M40.6503 11.8133C41.3846 11.4575 42.2491 11.3862 43.0355 11.6002C43.7372 11.7837 44.3765 12.194 44.8342 12.7565C45.385 13.4341 45.6729 14.3253 45.6033 15.1975C45.5062 16.5197 44.5759 17.7353 43.3259 18.1766C42.5895 18.44 41.7623 18.455 41.0232 18.1938C40.8445 18.137 40.6786 18.0498 40.5068 17.9781C40.3895 17.9574 40.2773 18.0094 40.166 18.0356C39.6573 18.1693 39.149 18.3042 38.6398 18.437C38.8022 17.8745 38.9556 17.3099 39.1133 16.7461C39.1532 16.628 39.066 16.5266 39.0205 16.4256C38.5079 15.4081 38.5715 14.1362 39.1636 13.166C39.5107 12.5807 40.0337 12.1021 40.6503 11.8133ZM41.6562 12.0363C41.92 12.0526 42.186 12.0522 42.4507 12.041C42.1937 11.974 41.9161 11.9968 41.6562 12.0363ZM40.4715 12.585C39.9525 12.9743 39.5327 13.517 39.3573 14.1474C39.1408 14.8925 39.2641 15.7192 39.6594 16.383C39.7174 16.4767 39.7797 16.5863 39.7338 16.6993C39.6431 16.9979 39.5662 17.3 39.4824 17.6008C39.8296 17.5582 40.16 17.4302 40.5016 17.3576C40.5704 17.3374 40.6348 17.3778 40.6928 17.4096C41.3189 17.7825 42.094 17.8925 42.8013 17.7207C43.5142 17.5617 44.157 17.1135 44.5561 16.5021C44.9351 15.9327 45.1018 15.2207 44.994 14.5435C44.8965 13.9184 44.6262 13.3078 44.1716 12.86C43.5915 12.2993 42.7635 12.0436 41.9673 12.0673C41.4297 12.0703 40.9021 12.2675 40.4715 12.585Z" fill="white"/>
<path d="M40.871 13.34C41.0025 13.3168 41.2028 13.2897 41.2621 13.4469C41.3622 13.6884 41.47 13.9273 41.5628 14.1714C41.5783 14.3699 41.3802 14.4889 41.2827 14.6385C41.2767 14.6866 41.2848 14.7317 41.308 14.7742C41.5676 15.2233 41.9792 15.5842 42.4622 15.7754C42.5236 15.7965 42.6074 15.8141 42.6581 15.7591C42.7827 15.6362 42.8738 15.4849 42.9937 15.3578C43.0715 15.3346 43.145 15.3853 43.215 15.4128C43.4178 15.5129 43.6284 15.5975 43.8286 15.7028C43.9506 15.775 43.9004 15.9404 43.8784 16.053C43.8024 16.3503 43.5033 16.5239 43.2197 16.5776C42.8828 16.6301 42.552 16.505 42.2482 16.3727C41.5482 16.0624 40.9944 15.4897 40.5965 14.8456C40.3984 14.5207 40.3038 14.0992 40.468 13.7404C40.5539 13.5728 40.6699 13.3778 40.871 13.34Z" fill="white"/>
<path d="M41.6559 12.0362C41.9158 11.9967 42.1934 11.9739 42.4504 12.0409C42.1857 12.0521 41.9197 12.0525 41.6559 12.0362Z" fill="white"/>
<path d="M30.1945 17.3944C30.4875 17.6922 30.8802 17.8533 31.2614 18.0063C31.5682 18.1288 31.8801 18.28 32.0915 18.543C32.2557 18.7424 32.3528 18.9882 32.4043 19.2395C32.3914 18.94 32.455 18.6367 32.605 18.3758C32.611 18.5219 32.614 18.6723 32.6716 18.8098C32.953 19.5132 33.6508 19.9769 33.8463 20.7237C33.9589 21.1594 33.7368 21.5976 33.433 21.8993C33.729 22.2409 33.9104 22.6822 33.925 23.1351C33.5237 22.8682 33.0574 22.6087 32.5564 22.6946C32.565 22.7561 32.5784 22.8171 32.6071 22.8734C32.8164 23.3224 33.1309 23.7134 33.3363 24.1646C33.4205 24.3476 33.4781 24.5556 33.4278 24.7567C33.3668 24.9698 33.1692 25.1121 32.9681 25.1808C32.6656 25.2895 32.3003 25.1808 32.1083 24.9226C31.9089 24.6583 31.7976 24.3395 31.7095 24.0237C31.5729 23.4973 31.5248 22.9365 31.6485 22.4029C31.9304 22.3346 32.2234 22.3406 32.5118 22.3466C32.8757 22.3565 33.2315 22.4725 33.537 22.6689C33.0957 22.2834 32.5075 22.1489 31.9463 22.0467C32.1005 21.9448 32.2449 21.8284 32.3652 21.687C32.3236 21.2225 32.0803 20.7825 31.6958 20.5153C30.9799 20.0009 30.0866 19.8222 29.3506 19.3426C28.9355 19.0479 28.7481 18.485 28.8904 17.9977C29.3725 18.1601 29.8954 18.3737 30.4067 18.2177C30.2795 17.9612 30.1811 17.6853 30.1945 17.3944Z" fill="#D83E34"/>
<path d="M36.9579 18.3226C37.5668 18.186 38.2332 18.5624 38.4287 19.1545C38.653 19.7419 38.363 20.4616 37.7966 20.7319C37.2174 21.0464 36.4238 20.8118 36.1058 20.2356C35.7849 19.7165 35.912 18.9796 36.3886 18.5985C36.5501 18.4584 36.7495 18.366 36.9579 18.3226ZM36.9875 18.7665C36.6898 18.8481 36.447 19.1021 36.386 19.4059C36.3048 19.7376 36.4612 20.1076 36.7474 20.291C36.9798 20.4504 37.2931 20.4728 37.5513 20.3645C37.816 20.2494 38.0154 19.9941 38.0553 19.7075C38.1077 19.3887 37.9531 19.0497 37.6819 18.8756C37.48 18.7416 37.2204 18.7008 36.9875 18.7665Z" fill="white"/>
<path d="M29.346 21.1796C29.6812 20.9282 30.0352 20.6983 30.4147 20.5187C29.5768 21.5577 28.7406 22.6448 28.3105 23.9261C28.0548 24.6678 28.0067 25.4644 28.0849 26.2409C28.1584 27.0255 28.292 27.814 28.2013 28.6033C28.1343 29.3625 27.8812 30.09 27.5697 30.7809C28.4523 30.405 29.2107 29.769 29.7684 28.9917C29.7907 29.2229 29.8453 29.4532 29.8337 29.6865C29.795 29.8223 29.7843 29.9633 29.7933 30.1042C29.8041 30.2967 29.771 30.4939 29.8256 30.6826C29.8453 30.472 29.8268 30.2602 29.8582 30.0505C29.9089 31.2497 29.5806 32.5324 28.7058 33.3947C28.4669 33.2306 28.0965 33.3823 28.063 33.6758C28.0037 33.9727 28.3401 34.249 28.6181 34.1269C28.8154 34.0629 28.9181 33.8451 28.8845 33.6478C29.4565 33.0841 29.8393 32.3446 30.0155 31.5638C30.2252 30.6482 30.1891 29.6925 30.0262 28.7726C30.0193 28.7051 29.982 28.6291 30.0275 28.5676C30.4662 27.8028 30.7661 26.9619 30.9359 26.0978C30.9298 26.9086 31.0141 27.7199 31.2014 28.5096C31.3763 29.3114 31.6642 30.0952 31.7033 30.9215C31.7063 31.114 31.7102 31.3172 31.6242 31.4951C31.0789 32.816 30.0898 33.9078 28.9593 34.7603C28.4652 35.1341 27.9414 35.4676 27.3991 35.767C27.1628 35.5745 26.7683 35.734 26.7348 36.0356C26.6893 36.2921 26.9265 36.5401 27.1834 36.51C27.421 36.4975 27.5985 36.2556 27.5594 36.024C28.9731 35.2269 30.3089 34.2167 31.2349 32.8658C31.4992 32.5006 31.6784 32.0846 31.9211 31.7065C32.2975 31.0375 32.4501 30.267 32.4935 29.5078C32.5605 28.0035 32.2563 26.5107 31.8369 25.0738C32.1587 25.467 32.408 25.9156 32.6361 26.3685C33.0323 27.1097 33.3421 27.9025 33.5067 28.7283C33.7129 29.7746 33.6562 30.8806 33.2897 31.8861C32.8067 33.2366 31.8558 34.3637 30.7825 35.2901C30.5448 35.4856 30.3175 35.6974 30.0503 35.853C29.2743 36.3351 28.5081 36.84 27.8108 37.4325C27.5156 37.7006 27.2109 37.9735 27.012 38.3241C27.4567 37.986 27.8894 37.6216 28.3852 37.3582C27.9001 37.9718 27.4133 38.5884 27.006 39.2578C26.8521 39.5169 26.7022 39.7842 26.6231 40.0772C26.584 40.201 26.6141 40.3312 26.5995 40.4579C26.5131 40.9392 26.4358 41.4239 26.4134 41.9129C28.9851 41.9361 31.5499 42.3335 34.0159 43.0619C33.5157 43.0962 33.013 43.0683 32.5115 43.0777C27.9285 43.0777 23.345 43.0782 18.7616 43.0777C18.6198 43.0786 18.4763 43.0859 18.337 43.055C20.1417 42.5282 21.9971 42.1655 23.8723 42.0156C24.5413 41.9502 25.2133 41.9374 25.8849 41.9167C25.8944 41.2314 25.7934 40.5477 25.6099 39.8886C24.149 39.0095 22.9536 37.6817 22.2824 36.1104C22.2575 36.1486 22.2369 36.1894 22.2214 36.2333C22.0641 36.6823 21.8132 37.0986 21.4905 37.4488C21.5047 36.7244 21.5906 36.0029 21.7122 35.2892C21.4613 35.5818 21.2623 35.9204 21.1502 36.2908C21.0776 36.5031 21.0587 36.7278 21.017 36.9474C20.7089 36.0425 20.7789 35.0649 20.8907 34.1317C20.6797 34.3044 20.5422 34.5467 20.4361 34.7938C20.2895 35.1517 20.2087 35.5329 20.1507 35.914C20.0867 35.8594 20.0773 35.7713 20.0545 35.6957C19.9767 35.3515 19.9754 34.9966 19.975 34.646C19.5376 34.695 19.0937 34.6417 18.667 34.5416C17.7402 34.3272 16.929 33.7961 16.0159 33.5421C16.1697 32.8757 16.4778 32.2281 16.9762 31.7503C17.424 31.3176 18.0178 31.0474 18.6327 30.9657C18.7568 31.1342 19.0241 31.1913 19.1818 31.0375C19.3326 30.912 19.327 30.6843 19.2179 30.5335C19.5569 29.7927 20.0648 29.1052 20.7618 28.6673C21.0492 28.4954 21.3625 28.3442 21.6989 28.3055C21.7036 28.3811 21.7148 28.4572 21.7105 28.5337C21.6491 28.7979 21.7053 29.0661 21.7174 29.332C21.7333 29.8425 21.7539 30.3573 21.6598 30.8617C21.1996 31.2794 20.9744 31.8835 20.7875 32.461C21.0883 31.8887 21.5953 31.4642 22.1037 31.0817C22.7508 30.5992 23.4357 30.1622 24.0274 29.6092C24.1288 29.5151 24.2164 29.4068 24.329 29.3252C24.2693 29.7059 24.1803 30.0806 24.0935 30.4552C24.2646 30.3109 24.3672 30.0999 24.4184 29.8851C24.9598 28.0662 25.6232 26.2735 26.5423 24.6089C27.2655 23.316 28.1571 22.0832 29.346 21.1796ZM28.0136 24.9862C27.9676 25.3824 27.9826 25.7854 28.0097 26.1833L28.032 26.1829C28.0355 25.8859 28.0273 25.5886 28.0329 25.2913C28.0333 25.1894 28.0419 25.0854 28.0136 24.9862Z" fill="white"/>
<path d="M13.4532 23.2944C14.3177 22.6967 15.3932 22.4157 16.4399 22.5034C17.579 22.5872 18.6704 23.089 19.5126 23.8543C20.5757 24.8134 21.2524 26.1493 21.5489 27.5389C20.3887 27.5522 19.2458 28.0163 18.3954 28.8039C18.3224 28.7871 18.2777 28.7025 18.2008 28.6848C18.0255 28.6157 17.8403 28.7248 17.7518 28.8769C16.8223 28.9315 15.8925 29.2293 15.1573 29.8111C14.2545 30.5222 13.68 31.5857 13.4158 32.6908C13.3096 31.6295 13.6057 30.5445 14.1802 29.6512C14.2128 29.5949 14.2631 29.5524 14.319 29.5214C15.0073 29.1008 15.764 28.7854 16.5564 28.6281C16.632 28.6952 16.7188 28.7721 16.8288 28.7523C17.0131 28.7377 17.1339 28.507 17.0333 28.3493C16.9525 28.1843 16.6883 28.1688 16.5843 28.317C16.5426 28.375 16.5357 28.4485 16.5151 28.5155C15.7077 28.6921 14.9253 29.0011 14.2287 29.4484C14.1248 29.5227 14.0092 29.5773 13.888 29.6173C13.1674 29.8905 12.5951 30.4814 12.2921 31.1848C12.275 31.0576 12.2367 30.9265 12.2608 30.7989C12.7657 29.7689 13.6031 28.8945 14.6361 28.3866C15.6742 27.8607 16.8627 27.7073 18.0147 27.7627C18.1007 27.8745 18.2253 27.975 18.3765 27.9501C18.6541 27.9505 18.8131 27.5651 18.6193 27.3687C18.4831 27.1908 18.1857 27.2007 18.059 27.3838C17.7028 27.4044 17.344 27.3627 16.9895 27.4156C17.3358 27.4521 17.6847 27.4194 18.0319 27.4349C17.9821 27.474 17.9163 27.4564 17.8583 27.4594C16.9822 27.4293 16.0953 27.5238 15.2604 27.8005C14.0272 28.1997 12.95 29.0518 12.2775 30.16C12.3824 29.0131 13.0931 27.9604 14.0745 27.3717C13.2495 27.5784 12.4752 27.9535 11.7731 28.4292C12.1963 27.8147 12.7863 27.3197 13.4527 26.9859C14.392 26.5188 15.4671 26.3925 16.5035 26.4861C16.5379 26.6168 16.6036 26.7556 16.7424 26.8011C16.953 26.8918 17.2146 26.7259 17.2297 26.4995C17.2537 26.282 17.0441 26.0775 16.8262 26.1149C16.6793 26.1209 16.5817 26.2459 16.5185 26.3654C15.4486 26.2842 14.3349 26.4045 13.3715 26.9042C12.779 27.1973 12.2694 27.6334 11.8427 28.134C12.2402 27.1418 12.9307 26.2674 13.8175 25.6684C14.435 25.2396 15.1393 24.9577 15.8555 24.7412C14.5755 24.513 13.2035 24.7622 12.1031 25.4609C12.116 25.4347 12.1297 25.4093 12.1448 25.3849C12.8048 24.6475 13.6779 24.0992 14.6352 23.8427C15.6789 23.6201 16.8094 23.8599 17.677 24.4808C17.6946 24.5336 17.7058 24.5904 17.7324 24.6406C17.851 24.8671 18.2107 24.877 18.3421 24.6583C18.4878 24.4602 18.3494 24.1499 18.111 24.1104C17.9971 24.082 17.8897 24.1379 17.7947 24.1933L17.7835 24.1993C16.8219 23.5286 15.5599 23.2888 14.4243 23.5913C13.3784 23.908 12.4331 24.5414 11.7391 25.3853C12.1078 24.5517 12.6986 23.8105 13.4532 23.2944Z" fill="white"/>
<path d="M18.4491 28.9836C19.2814 28.1775 20.4326 27.7005 21.5931 27.7087C21.6224 27.8488 21.6464 27.9897 21.6679 28.1315C21.007 28.2514 20.4167 28.6317 19.9629 29.1168C19.5998 29.5 19.2999 29.9465 19.0924 30.432C18.9467 30.3964 18.774 30.4037 18.6747 30.5326C18.5819 30.6112 18.5991 30.7384 18.5956 30.8475C17.9546 30.9507 17.3298 31.227 16.87 31.6927C16.3901 32.1624 16.085 32.7897 15.929 33.4377L15.8951 33.4261C15.6854 33.3475 15.4559 33.3728 15.2368 33.3707C15.1706 33.3612 15.1212 33.4012 15.083 33.4497L15.0714 33.4617C14.8531 33.4845 14.6455 33.5554 14.4393 33.625C14.5789 32.8159 15.2286 32.2354 15.85 31.7619C15.7077 31.7275 15.5603 31.7155 15.4164 31.7486C15.8981 31.0697 16.6337 30.4677 17.5047 30.4694C17.5923 30.5575 17.7079 30.6452 17.8407 30.594C18.0538 30.5382 18.0912 30.2172 17.9008 30.1098C17.7251 29.992 17.4785 30.1407 17.4858 30.3491C17.0862 30.3736 16.69 30.484 16.3501 30.6984C15.9007 30.9683 15.547 31.3679 15.2475 31.792C14.5948 32.0691 14.0908 32.5891 13.6182 33.1017C13.7552 32.4099 14.0057 31.737 14.3774 31.1363C14.7891 30.4729 15.3833 29.9177 16.094 29.5886C16.6139 29.3436 17.1833 29.213 17.7552 29.1748C17.8411 29.3239 18.025 29.427 18.1956 29.36C18.3597 29.3144 18.4491 29.1451 18.4491 28.9836Z" fill="white"/>
<path d="M35.1966 20.593C35.5748 20.4955 35.9937 20.6949 36.1553 21.0498C36.3121 21.3751 36.221 21.7931 35.9486 22.0277C35.6762 22.274 35.237 22.3027 34.9354 22.0935C34.7351 21.9654 34.6049 21.7463 34.5714 21.513C34.5096 21.1056 34.7949 20.6854 35.1966 20.593ZM35.268 20.8758C35.0845 20.923 34.9272 21.0721 34.8782 21.256C34.791 21.5332 34.9792 21.8619 35.2632 21.9242C35.4364 21.9556 35.6345 21.9302 35.7621 21.7979C35.9258 21.6543 35.9838 21.4068 35.9009 21.2058C35.8133 20.9574 35.5206 20.8096 35.268 20.8758Z" fill="white"/>
<path d="M17.795 24.1933C17.8899 24.1379 17.9974 24.0821 18.1112 24.1104C18.3497 24.1499 18.4881 24.4602 18.3424 24.6583C18.2109 24.877 17.8513 24.8671 17.7327 24.6406C17.743 24.6136 17.7636 24.5594 17.7739 24.5328L17.8074 24.5672C17.8779 24.6411 17.9621 24.7352 18.0768 24.7034C18.2715 24.6896 18.354 24.4198 18.2161 24.2905C18.1267 24.1946 17.9832 24.2131 17.8783 24.2707C17.8577 24.2513 17.8156 24.2127 17.795 24.1933Z" fill="white"/>
<path d="M17.8781 24.2708C17.9829 24.2132 18.1264 24.1947 18.2158 24.2905C18.3537 24.4199 18.2712 24.6897 18.0766 24.7035C17.9619 24.7353 17.8776 24.6412 17.8072 24.5673C17.7822 24.462 17.7999 24.3494 17.8781 24.2708Z" fill="white"/>
<path d="M28.3584 33.5155C28.5195 33.4141 28.7546 33.5701 28.7223 33.7583C28.7206 33.94 28.4765 34.0594 28.3352 33.9404C28.1805 33.8481 28.1981 33.5911 28.3584 33.5155Z" fill="white"/>
<path d="M28.0137 24.9862C28.0421 25.0854 28.0335 25.1894 28.0331 25.2912C28.0275 25.5886 28.0357 25.8859 28.0322 26.1828L28.0099 26.1833C27.9828 25.7854 27.9678 25.3823 28.0137 24.9862Z" fill="white"/>
<path d="M16.5187 26.3655C16.5819 26.2461 16.6794 26.121 16.8264 26.115C17.0442 26.0776 17.2539 26.2822 17.2299 26.4996C17.2148 26.726 16.9531 26.8919 16.7426 26.8012C16.6038 26.7557 16.5381 26.6169 16.5037 26.4863C15.4673 26.3926 14.3922 26.5189 13.4529 26.986C13.4327 26.9658 13.3919 26.925 13.3717 26.9044C14.3351 26.4046 15.4488 26.2843 16.5187 26.3655ZM16.7551 26.2538C16.5931 26.3294 16.5836 26.5877 16.743 26.6723C16.8857 26.7712 17.1027 26.6637 17.1147 26.4923C17.1431 26.3071 16.9162 26.1464 16.7551 26.2538Z" fill="white"/>
<path d="M16.7552 26.2538C16.9164 26.1464 17.1433 26.3071 17.1149 26.4923C17.1029 26.6637 16.8859 26.7712 16.7432 26.6723C16.5838 26.5877 16.5932 26.3294 16.7552 26.2538Z" fill="white"/>
<path d="M16.9896 27.4157C17.3441 27.3629 17.7029 27.4045 18.0591 27.3839L18.032 27.435C17.6848 27.4196 17.3359 27.4522 16.9896 27.4157Z" fill="white"/>
<path d="M18.2559 27.3687C18.4149 27.3133 18.6065 27.4366 18.582 27.6128C18.5949 27.8178 18.3036 27.926 18.1717 27.7744C18.0372 27.6575 18.0956 27.4276 18.2559 27.3687Z" fill="white"/>
<path d="M16.5844 28.3171C16.6884 28.1688 16.9527 28.1843 17.0335 28.3493C17.134 28.507 17.0133 28.7377 16.8289 28.7523C16.7189 28.7721 16.6321 28.6952 16.5565 28.6282C15.7642 28.7854 15.0075 29.1008 14.3191 29.5215C14.2968 29.5034 14.2517 29.4669 14.2289 29.4484C14.9254 29.0011 15.7079 28.6922 16.5152 28.5156C16.5359 28.4485 16.5427 28.3751 16.5844 28.3171ZM16.6278 28.5487C16.676 28.7235 16.9656 28.6918 16.9793 28.5134C17.0098 28.3884 16.8899 28.3115 16.7881 28.2823C16.6768 28.3192 16.5784 28.4236 16.6278 28.5487Z" fill="white"/>
<path d="M16.6282 28.5487C16.5788 28.4237 16.6772 28.3193 16.7885 28.2823C16.8903 28.3115 17.0102 28.3884 16.9797 28.5135C16.966 28.6918 16.6763 28.7235 16.6282 28.5487Z" fill="white"/>
<path d="M21.7177 29.332C21.7057 29.066 21.6494 28.7979 21.7109 28.5337C21.8234 29.2521 21.8058 29.9856 21.7749 30.7105C21.7831 30.7861 21.7074 30.8209 21.6602 30.8617C21.7543 30.3573 21.7336 29.8425 21.7177 29.332Z" fill="white"/>
<path d="M15.0834 33.4498C15.1216 33.4012 15.171 33.3613 15.2372 33.3707C15.4563 33.3729 15.6858 33.3475 15.8955 33.4262L15.9432 33.4451L15.8895 33.5031C15.6239 33.4489 15.3536 33.4317 15.0834 33.4498Z" fill="white"/>
<path d="M18.0034 28.7937C18.217 28.703 18.4206 28.9802 18.29 29.1615C18.1972 29.3118 17.9566 29.2972 17.8741 29.1451C17.7972 29.0214 17.8646 28.8375 18.0034 28.7937Z" fill="white"/>
<path d="M18.8188 30.5563C18.9593 30.4536 19.1875 30.573 19.1832 30.7466C19.2163 30.9309 18.9868 31.0809 18.8308 30.9816C18.6607 30.906 18.6555 30.6422 18.8188 30.5563Z" fill="white"/>
<path d="M29.7938 30.1042C29.7847 29.9632 29.7955 29.8223 29.8341 29.6865C29.8629 29.8051 29.8676 29.9289 29.8586 30.0505C29.8273 30.2602 29.8457 30.472 29.826 30.6825C29.7714 30.4939 29.8045 30.2967 29.7938 30.1042Z" fill="white"/>
<path d="M17.6958 30.1647C17.8204 30.117 17.9644 30.2309 17.9403 30.3641C17.9296 30.4986 17.7551 30.5708 17.6486 30.4913C17.5291 30.4135 17.5545 30.2004 17.6958 30.1647Z" fill="white"/>
<path d="M27.0277 35.8788C27.1733 35.7795 27.3989 35.9016 27.3955 36.0777C27.4251 36.2664 27.1901 36.4168 27.0307 36.3132C26.8627 36.2299 26.8601 35.9643 27.0277 35.8788Z" fill="white"/>
<path d="M18.2511 43.0953C18.2631 43.0837 18.2872 43.0609 18.2988 43.0493L18.337 43.0549C18.4763 43.0859 18.6198 43.0786 18.7616 43.0777C23.345 43.0781 27.9285 43.0777 32.5116 43.0777C33.013 43.0682 33.5157 43.0962 34.0159 43.0618C34.0249 43.0605 34.0425 43.0583 34.0516 43.0575C34.052 43.0717 34.0529 43.1 34.0533 43.1147C32.7092 43.1375 31.3647 43.1172 30.0207 43.1237C26.2102 43.1237 22.4002 43.1228 18.5901 43.1254C18.4763 43.1267 18.362 43.1224 18.2511 43.0953Z" fill="white"/>
</g>
</g>
<defs>
<filter id="filter0_dddddd" x="-74" y="6" width="204" height="224" filterUnits="userSpaceOnUse" color-interpolation-filters="sRGB">
<feFlood flood-opacity="0" result="BackgroundImageFix"/>
<feColorMatrix in="SourceAlpha" type="matrix" values="0 0 0 0 0 0 0 0 0 0 0 0 0 0 0 0 0 0 127 0"/>
<feOffset dy="2.76726"/>
<feGaussianBlur stdDeviation="1.1069"/>
<feColorMatrix type="matrix" values="0 0 0 0 0.0470588 0 0 0 0 0.545098 0 0 0 0 0.831373 0 0 0 0.120893 0"/>
<feBlend mode="normal" in2="BackgroundImageFix" result="effect1_dropShadow"/>
<feColorMatrix in="SourceAlpha" type="matrix" values="0 0 0 0 0 0 0 0 0 0 0 0 0 0 0 0 0 0 127 0"/>
<feOffset dy="6.6501"/>
<feGaussianBlur stdDeviation="2.66004"/>
<feColorMatrix type="matrix" values="0 0 0 0 0.0470588 0 0 0 0 0.545098 0 0 0 0 0.831373 0 0 0 0.173674 0"/>
<feBlend mode="normal" in2="effect1_dropShadow" result="effect2_dropShadow"/>
<feColorMatrix in="SourceAlpha" type="matrix" values="0 0 0 0 0 0 0 0 0 0 0 0 0 0 0 0 0 0 127 0"/>
<feOffset dy="12.5216"/>
<feGaussianBlur stdDeviation="5.00862"/>
<feColorMatrix type="matrix" values="0 0 0 0 0.0470588 0 0 0 0 0.545098 0 0 0 0 0.831373 0 0 0 0.215 0"/>
<feBlend mode="normal" in2="effect2_dropShadow" result="effect3_dropShadow"/>
<feColorMatrix in="SourceAlpha" type="matrix" values="0 0 0 0 0 0 0 0 0 0 0 0 0 0 0 0 0 0 127 0"/>
<feOffset dy="22.3363"/>
<feGaussianBlur stdDeviation="8.93452"/>
<feColorMatrix type="matrix" values="0 0 0 0 0.0470588 0 0 0 0 0.545098 0 0 0 0 0.831373 0 0 0 0.256326 0"/>
<feBlend mode="normal" in2="effect3_dropShadow" result="effect4_dropShadow"/>
<feColorMatrix in="SourceAlpha" type="matrix" values="0 0 0 0 0 0 0 0 0 0 0 0 0 0 0 0 0 0 127 0"/>
<feOffset dy="41.7776"/>
<feGaussianBlur stdDeviation="16.711"/>
<feColorMatrix type="matrix" values="0 0 0 0 0.0470588 0 0 0 0 0.545098 0 0 0 0 0.831373 0 0 0 0.309107 0"/>
<feBlend mode="normal" in2="effect4_dropShadow" result="effect5_dropShadow"/>
<feColorMatrix in="SourceAlpha" type="matrix" values="0 0 0 0 0 0 0 0 0 0 0 0 0 0 0 0 0 0 127 0"/>
<feOffset dy="100"/>
<feGaussianBlur stdDeviation="40"/>
<feColorMatrix type="matrix" values="0 0 0 0 0.0470588 0 0 0 0 0.545098 0 0 0 0 0.831373 0 0 0 0.43 0"/>
<feBlend mode="normal" in2="effect5_dropShadow" result="effect6_dropShadow"/>
<feBlend mode="normal" in="SourceGraphic" in2="effect6_dropShadow" result="shape"/>
</filter>
<clipPath id="clip0">
<path d="M0 23.5C0 10.5213 10.5213 0 23.5 0H31.5C44.4787 0 55 10.5213 55 23.5V31.5C55 44.4787 44.4787 55 31.5 55H23.5C10.5213 55 0 44.4787 0 31.5V23.5Z" fill="white"/>
</clipPath>
</defs>
</svg>
