<svg width="55" height="55" viewBox="0 0 55 55" fill="none" xmlns="http://www.w3.org/2000/svg">
<g clip-path="url(#clip0)">
<rect width="55" height="55" rx="23.5" fill="#D14156"/>
<rect x="0.25" y="0.25" width="54.5" height="54.5" rx="23.25" stroke="white" stroke-opacity="0.3" stroke-width="0.5"/>
<g filter="url(#filter0_dddddd)">
<path d="M36.3358 20.5928L32.4034 16.6609C31.9816 16.2391 31.4097 16 30.8148 16H21.2495C20.0078 16.0047 19 17.0125 19 18.2542V37.7505C19 38.9922 20.0078 40 21.2495 40H34.7467C35.9889 40 37 38.9922 37 37.7505V22.1861C37 21.5912 36.7577 21.0147 36.3358 20.5928ZM30.9977 18.437L34.5644 22.0033H30.9977V18.437ZM34.75 37.7505H21.2495V18.2542H28.7481V23.1283C28.7481 23.7517 29.2497 24.2528 29.8731 24.2528H34.75V37.7505ZM25 28.75C25 30.407 26.343 31.75 28 31.75C29.657 31.75 31 30.407 31 28.75C31 27.093 29.657 25.75 28 25.75C26.343 25.75 25 27.093 25 28.75ZM29.868 32.5C29.2919 32.74 28.6619 32.875 28 32.875C27.3381 32.875 26.7081 32.74 26.132 32.5H25.9C24.1605 32.5 22.75 33.7089 22.75 35.2V35.5C22.75 35.9144 23.0856 36.25 23.5 36.25H32.5C32.9144 36.25 33.25 35.9144 33.25 35.5V35.2C33.25 33.7089 31.8395 32.5 30.1 32.5H29.868Z" fill="white"/>
</g>
</g>
<defs>
<filter id="filter0_dddddd" x="-64" y="16" width="184" height="204" filterUnits="userSpaceOnUse" color-interpolation-filters="sRGB">
<feFlood flood-opacity="0" result="BackgroundImageFix"/>
<feColorMatrix in="SourceAlpha" type="matrix" values="0 0 0 0 0 0 0 0 0 0 0 0 0 0 0 0 0 0 127 0"/>
<feOffset dy="2.76726"/>
<feGaussianBlur stdDeviation="1.1069"/>
<feColorMatrix type="matrix" values="0 0 0 0 0.709804 0 0 0 0 0.172549 0 0 0 0 0.25098 0 0 0 0.132138 0"/>
<feBlend mode="normal" in2="BackgroundImageFix" result="effect1_dropShadow"/>
<feColorMatrix in="SourceAlpha" type="matrix" values="0 0 0 0 0 0 0 0 0 0 0 0 0 0 0 0 0 0 127 0"/>
<feOffset dy="6.6501"/>
<feGaussianBlur stdDeviation="2.66004"/>
<feColorMatrix type="matrix" values="0 0 0 0 0.709804 0 0 0 0 0.172549 0 0 0 0 0.25098 0 0 0 0.18983 0"/>
<feBlend mode="normal" in2="effect1_dropShadow" result="effect2_dropShadow"/>
<feColorMatrix in="SourceAlpha" type="matrix" values="0 0 0 0 0 0 0 0 0 0 0 0 0 0 0 0 0 0 127 0"/>
<feOffset dy="12.5216"/>
<feGaussianBlur stdDeviation="5.00862"/>
<feColorMatrix type="matrix" values="0 0 0 0 0.709804 0 0 0 0 0.172549 0 0 0 0 0.25098 0 0 0 0.235 0"/>
<feBlend mode="normal" in2="effect2_dropShadow" result="effect3_dropShadow"/>
<feColorMatrix in="SourceAlpha" type="matrix" values="0 0 0 0 0 0 0 0 0 0 0 0 0 0 0 0 0 0 127 0"/>
<feOffset dy="22.3363"/>
<feGaussianBlur stdDeviation="8.93452"/>
<feColorMatrix type="matrix" values="0 0 0 0 0.709804 0 0 0 0 0.172549 0 0 0 0 0.25098 0 0 0 0.28017 0"/>
<feBlend mode="normal" in2="effect3_dropShadow" result="effect4_dropShadow"/>
<feColorMatrix in="SourceAlpha" type="matrix" values="0 0 0 0 0 0 0 0 0 0 0 0 0 0 0 0 0 0 127 0"/>
<feOffset dy="41.7776"/>
<feGaussianBlur stdDeviation="16.711"/>
<feColorMatrix type="matrix" values="0 0 0 0 0.709804 0 0 0 0 0.172549 0 0 0 0 0.25098 0 0 0 0.337862 0"/>
<feBlend mode="normal" in2="effect4_dropShadow" result="effect5_dropShadow"/>
<feColorMatrix in="SourceAlpha" type="matrix" values="0 0 0 0 0 0 0 0 0 0 0 0 0 0 0 0 0 0 127 0"/>
<feOffset dy="100"/>
<feGaussianBlur stdDeviation="40"/>
<feColorMatrix type="matrix" values="0 0 0 0 0.709804 0 0 0 0 0.172549 0 0 0 0 0.25098 0 0 0 0.47 0"/>
<feBlend mode="normal" in2="effect5_dropShadow" result="effect6_dropShadow"/>
<feBlend mode="normal" in="SourceGraphic" in2="effect6_dropShadow" result="shape"/>
</filter>
<clipPath id="clip0">
<path d="M0 23.5C0 10.5213 10.5213 0 23.5 0H31.5C44.4787 0 55 10.5213 55 23.5V31.5C55 44.4787 44.4787 55 31.5 55H23.5C10.5213 55 0 44.4787 0 31.5V23.5Z" fill="white"/>
</clipPath>
</defs>
</svg>
