<svg width="55" height="55" viewBox="0 0 55 55" fill="none" xmlns="http://www.w3.org/2000/svg">
<g clip-path="url(#clip0)">
<rect width="55" height="55" rx="23.5" fill="#F44336"/>
<rect x="0.25" y="0.25" width="54.5" height="54.5" rx="23.25" stroke="white" stroke-opacity="0.3" stroke-width="0.5"/>
<g filter="url(#filter0_dddddd)">
<path fill-rule="evenodd" clip-rule="evenodd" d="M29 22.375V16H19.625C19.0016 16 18.5 16.5016 18.5 17.125V38.875C18.5 39.4984 19.0016 40 19.625 40H35.375C35.9984 40 36.5 39.4984 36.5 38.875V23.5H30.125C29.5063 23.5 29 22.9938 29 22.375ZM36.5 21.7141V22H30.5V16H30.7859C31.0859 16 31.3719 16.1172 31.5828 16.3281L36.1719 20.9219C36.3828 21.1328 36.5 21.4188 36.5 21.7141ZM23.6611 28.2363C23.6611 28.8262 23.5391 29.2773 23.2949 29.5898C23.0508 29.9023 22.6934 30.0586 22.2227 30.0586C21.7578 30.0586 21.4023 29.9053 21.1562 29.5986C20.9102 29.292 20.7842 28.8525 20.7783 28.2803V27.4951C20.7783 26.8994 20.9014 26.4473 21.1475 26.1387C21.3955 25.8301 21.752 25.6758 22.2168 25.6758C22.6816 25.6758 23.0371 25.8291 23.2832 26.1357C23.5293 26.4404 23.6553 26.8789 23.6611 27.4512V28.2363ZM22.8145 27.375C22.8145 27.0215 22.7656 26.7646 22.668 26.6045C22.5723 26.4424 22.4219 26.3613 22.2168 26.3613C22.0176 26.3613 21.8701 26.4385 21.7744 26.5928C21.6807 26.7451 21.6309 26.9844 21.625 27.3105V28.3477C21.625 28.6953 21.6719 28.9541 21.7656 29.124C21.8613 29.292 22.0137 29.376 22.2227 29.376C22.4297 29.376 22.5791 29.2949 22.6709 29.1328C22.7627 28.9707 22.8105 28.7227 22.8145 28.3887V27.375ZM26.292 30H25.4453V26.7363L24.4346 27.0498V26.3613L26.2012 25.7285H26.292V30ZM30.5518 28.2363C30.5518 28.8262 30.4297 29.2773 30.1855 29.5898C29.9414 29.9023 29.584 30.0586 29.1133 30.0586C28.6484 30.0586 28.293 29.9053 28.0469 29.5986C27.8008 29.292 27.6748 28.8525 27.6689 28.2803V27.4951C27.6689 26.8994 27.792 26.4473 28.0381 26.1387C28.2861 25.8301 28.6426 25.6758 29.1074 25.6758C29.5723 25.6758 29.9277 25.8291 30.1738 26.1357C30.4199 26.4404 30.5459 26.8789 30.5518 27.4512V28.2363ZM29.7051 27.375C29.7051 27.0215 29.6562 26.7646 29.5586 26.6045C29.4629 26.4424 29.3125 26.3613 29.1074 26.3613C28.9082 26.3613 28.7607 26.4385 28.665 26.5928C28.5713 26.7451 28.5215 26.9844 28.5156 27.3105V28.3477C28.5156 28.6953 28.5625 28.9541 28.6562 29.124C28.752 29.292 28.9043 29.376 29.1133 29.376C29.3203 29.376 29.4697 29.2949 29.5615 29.1328C29.6533 28.9707 29.7012 28.7227 29.7051 28.3887V27.375ZM33.1826 30H32.3359V26.7363L31.3252 27.0498V26.3613L33.0918 25.7285H33.1826V30ZM22 36H22.8467V31.7285H22.7559L20.9893 32.3613V33.0498L22 32.7363V36ZM26.7402 35.5898C26.9844 35.2773 27.1064 34.8262 27.1064 34.2363V33.4512C27.1006 32.8789 26.9746 32.4404 26.7285 32.1357C26.4824 31.8291 26.127 31.6758 25.6621 31.6758C25.1973 31.6758 24.8408 31.8301 24.5928 32.1387C24.3467 32.4473 24.2236 32.8994 24.2236 33.4951V34.2803C24.2295 34.8525 24.3555 35.292 24.6016 35.5986C24.8477 35.9053 25.2031 36.0586 25.668 36.0586C26.1387 36.0586 26.4961 35.9023 26.7402 35.5898ZM26.1133 32.6045C26.2109 32.7646 26.2598 33.0215 26.2598 33.375V34.3887C26.2559 34.7227 26.208 34.9707 26.1162 35.1328C26.0244 35.2949 25.875 35.376 25.668 35.376C25.459 35.376 25.3066 35.292 25.2109 35.124C25.1172 34.9541 25.0703 34.6953 25.0703 34.3477V33.3105C25.0762 32.9844 25.126 32.7451 25.2197 32.5928C25.3154 32.4385 25.4629 32.3613 25.6621 32.3613C25.8672 32.3613 26.0176 32.4424 26.1133 32.6045ZM28.8906 36H29.7373V31.7285H29.6465L27.8799 32.3613V33.0498L28.8906 32.7363V36ZM32.3359 36H33.1826V31.7285H33.0918L31.3252 32.3613V33.0498L32.3359 32.7363V36Z" fill="white"/>
</g>
</g>
<defs>
<filter id="filter0_dddddd" x="-64.5" y="16" width="184" height="204" filterUnits="userSpaceOnUse" color-interpolation-filters="sRGB">
<feFlood flood-opacity="0" result="BackgroundImageFix"/>
<feColorMatrix in="SourceAlpha" type="matrix" values="0 0 0 0 0 0 0 0 0 0 0 0 0 0 0 0 0 0 127 0"/>
<feOffset dy="2.76726"/>
<feGaussianBlur stdDeviation="1.1069"/>
<feColorMatrix type="matrix" values="0 0 0 0 0.913725 0 0 0 0 0.105882 0 0 0 0 0.0470588 0 0 0 0.129327 0"/>
<feBlend mode="normal" in2="BackgroundImageFix" result="effect1_dropShadow"/>
<feColorMatrix in="SourceAlpha" type="matrix" values="0 0 0 0 0 0 0 0 0 0 0 0 0 0 0 0 0 0 127 0"/>
<feOffset dy="6.6501"/>
<feGaussianBlur stdDeviation="2.66004"/>
<feColorMatrix type="matrix" values="0 0 0 0 0.913725 0 0 0 0 0.105882 0 0 0 0 0.0470588 0 0 0 0.185791 0"/>
<feBlend mode="normal" in2="effect1_dropShadow" result="effect2_dropShadow"/>
<feColorMatrix in="SourceAlpha" type="matrix" values="0 0 0 0 0 0 0 0 0 0 0 0 0 0 0 0 0 0 127 0"/>
<feOffset dy="12.5216"/>
<feGaussianBlur stdDeviation="5.00862"/>
<feColorMatrix type="matrix" values="0 0 0 0 0.913725 0 0 0 0 0.105882 0 0 0 0 0.0470588 0 0 0 0.23 0"/>
<feBlend mode="normal" in2="effect2_dropShadow" result="effect3_dropShadow"/>
<feColorMatrix in="SourceAlpha" type="matrix" values="0 0 0 0 0 0 0 0 0 0 0 0 0 0 0 0 0 0 127 0"/>
<feOffset dy="22.3363"/>
<feGaussianBlur stdDeviation="8.93452"/>
<feColorMatrix type="matrix" values="0 0 0 0 0.913725 0 0 0 0 0.105882 0 0 0 0 0.0470588 0 0 0 0.274209 0"/>
<feBlend mode="normal" in2="effect3_dropShadow" result="effect4_dropShadow"/>
<feColorMatrix in="SourceAlpha" type="matrix" values="0 0 0 0 0 0 0 0 0 0 0 0 0 0 0 0 0 0 127 0"/>
<feOffset dy="41.7776"/>
<feGaussianBlur stdDeviation="16.711"/>
<feColorMatrix type="matrix" values="0 0 0 0 0.913725 0 0 0 0 0.105882 0 0 0 0 0.0470588 0 0 0 0.330673 0"/>
<feBlend mode="normal" in2="effect4_dropShadow" result="effect5_dropShadow"/>
<feColorMatrix in="SourceAlpha" type="matrix" values="0 0 0 0 0 0 0 0 0 0 0 0 0 0 0 0 0 0 127 0"/>
<feOffset dy="100"/>
<feGaussianBlur stdDeviation="40"/>
<feColorMatrix type="matrix" values="0 0 0 0 0.913725 0 0 0 0 0.105882 0 0 0 0 0.0470588 0 0 0 0.46 0"/>
<feBlend mode="normal" in2="effect5_dropShadow" result="effect6_dropShadow"/>
<feBlend mode="normal" in="SourceGraphic" in2="effect6_dropShadow" result="shape"/>
</filter>
<clipPath id="clip0">
<path d="M0 23.5C0 10.5213 10.5213 0 23.5 0H31.5C44.4787 0 55 10.5213 55 23.5V31.5C55 44.4787 44.4787 55 31.5 55H23.5C10.5213 55 0 44.4787 0 31.5V23.5Z" fill="white"/>
</clipPath>
</defs>
</svg>
