<svg width="55" height="55" viewBox="0 0 55 55" fill="none" xmlns="http://www.w3.org/2000/svg">
<g clip-path="url(#clip0)">
<rect width="55" height="55" rx="23.5" fill="#FFD237"/>
<rect x="0.25" y="0.25" width="54.5" height="54.5" rx="23.25" stroke="white" stroke-opacity="0.3" stroke-width="0.5"/>
<g filter="url(#filter0_dddddd)">
<path d="M31.8364 19.9354C33.1889 18.6302 34.4895 17.2701 35.8725 16C35.935 16.0091 36.0615 16.0259 36.124 16.0351C36.2155 17.2976 36.1347 18.5677 36.1622 19.8332C37.3332 19.8408 38.5042 19.8195 39.6752 19.8378C39.9496 19.8012 40.1433 20.1748 39.8627 20.3257C38.216 21.9862 36.5632 23.6421 34.8981 25.2873C33.8964 25.2979 32.8916 25.2781 31.8898 25.2903C31.6763 25.2644 31.5391 25.4535 31.3973 25.5755C30.4306 26.5482 29.47 27.5287 28.4865 28.4832C28.0871 28.9543 27.1997 28.5121 27.3049 27.9129C27.2942 27.6705 27.4924 27.4997 27.6357 27.3335C28.6619 26.3073 29.6942 25.2873 30.7112 24.2535C30.7218 23.2045 30.6685 22.1509 30.731 21.1033C31.0207 20.649 31.4735 20.3288 31.8364 19.9354Z" fill="white"/>
<path d="M25.8747 17.0521C27.4299 16.8264 29.034 16.9103 30.5496 17.3296C31.0634 17.4195 31.2312 18.1499 30.8606 18.4914C30.603 18.7583 30.2111 18.6531 29.8985 18.5784C27.1829 17.909 24.1944 18.4579 21.8936 20.0482C18.6458 22.2103 16.81 26.3485 17.5694 30.2016C18.0268 32.8501 19.6156 35.2683 21.8341 36.7763C23.9413 38.2446 26.634 38.8362 29.1621 38.4078C31.527 38.0327 33.7226 36.7626 35.2626 34.9344C37.0054 32.8867 37.8882 30.1208 37.6077 27.4418C37.5574 26.8258 37.382 26.2296 37.3012 25.6182C37.2494 24.9076 38.3502 24.6469 38.6232 25.301C39.8445 29.3599 38.5027 34.0317 35.3785 36.8861C33.3414 38.8042 30.5801 39.9386 27.7806 39.9874C25.001 40.0652 22.2077 39.0695 20.0928 37.2658C18.7602 36.1252 17.67 34.6935 16.9701 33.0833C15.6832 30.1726 15.668 26.7205 16.9762 23.8159C18.5361 20.2403 22.0049 17.5827 25.8747 17.0521Z" fill="white"/>
<path d="M26.753 23.5475C27.3126 23.4758 27.8965 23.4332 28.45 23.5704C29.0614 23.7564 29.0432 24.807 28.3875 24.9137C27.5809 24.8923 26.7392 24.8557 26.0013 25.2461C24.6122 25.8834 23.7111 27.4646 23.9611 28.9894C24.1777 30.8587 26.0501 32.3453 27.924 32.0861C29.7293 31.9108 31.222 30.1878 31.1214 28.3749C31.1443 28.0288 30.972 27.5713 31.3166 27.3319C31.6688 26.9995 32.3031 27.2084 32.4357 27.6613C32.8794 29.8859 31.4995 32.2645 29.3938 33.0696C27.3263 33.9524 24.722 33.19 23.4656 31.3237C22.1726 29.5444 22.2763 26.905 23.7355 25.2507C24.4933 24.3434 25.5896 23.7427 26.753 23.5475Z" fill="white"/>
</g>
</g>
<defs>
<filter id="filter0_dddddd" x="-64" y="16" width="184" height="204" filterUnits="userSpaceOnUse" color-interpolation-filters="sRGB">
<feFlood flood-opacity="0" result="BackgroundImageFix"/>
<feColorMatrix in="SourceAlpha" type="matrix" values="0 0 0 0 0 0 0 0 0 0 0 0 0 0 0 0 0 0 127 0"/>
<feOffset dy="2.76726"/>
<feGaussianBlur stdDeviation="1.1069"/>
<feColorMatrix type="matrix" values="0 0 0 0 0.956863 0 0 0 0 0.482353 0 0 0 0 0.121569 0 0 0 0.129327 0"/>
<feBlend mode="normal" in2="BackgroundImageFix" result="effect1_dropShadow"/>
<feColorMatrix in="SourceAlpha" type="matrix" values="0 0 0 0 0 0 0 0 0 0 0 0 0 0 0 0 0 0 127 0"/>
<feOffset dy="6.6501"/>
<feGaussianBlur stdDeviation="2.66004"/>
<feColorMatrix type="matrix" values="0 0 0 0 0.956863 0 0 0 0 0.482353 0 0 0 0 0.121569 0 0 0 0.185791 0"/>
<feBlend mode="normal" in2="effect1_dropShadow" result="effect2_dropShadow"/>
<feColorMatrix in="SourceAlpha" type="matrix" values="0 0 0 0 0 0 0 0 0 0 0 0 0 0 0 0 0 0 127 0"/>
<feOffset dy="12.5216"/>
<feGaussianBlur stdDeviation="5.00862"/>
<feColorMatrix type="matrix" values="0 0 0 0 0.956863 0 0 0 0 0.482353 0 0 0 0 0.121569 0 0 0 0.23 0"/>
<feBlend mode="normal" in2="effect2_dropShadow" result="effect3_dropShadow"/>
<feColorMatrix in="SourceAlpha" type="matrix" values="0 0 0 0 0 0 0 0 0 0 0 0 0 0 0 0 0 0 127 0"/>
<feOffset dy="22.3363"/>
<feGaussianBlur stdDeviation="8.93452"/>
<feColorMatrix type="matrix" values="0 0 0 0 0.956863 0 0 0 0 0.482353 0 0 0 0 0.121569 0 0 0 0.274209 0"/>
<feBlend mode="normal" in2="effect3_dropShadow" result="effect4_dropShadow"/>
<feColorMatrix in="SourceAlpha" type="matrix" values="0 0 0 0 0 0 0 0 0 0 0 0 0 0 0 0 0 0 127 0"/>
<feOffset dy="41.7776"/>
<feGaussianBlur stdDeviation="16.711"/>
<feColorMatrix type="matrix" values="0 0 0 0 0.956863 0 0 0 0 0.482353 0 0 0 0 0.121569 0 0 0 0.330673 0"/>
<feBlend mode="normal" in2="effect4_dropShadow" result="effect5_dropShadow"/>
<feColorMatrix in="SourceAlpha" type="matrix" values="0 0 0 0 0 0 0 0 0 0 0 0 0 0 0 0 0 0 127 0"/>
<feOffset dy="100"/>
<feGaussianBlur stdDeviation="40"/>
<feColorMatrix type="matrix" values="0 0 0 0 0.956863 0 0 0 0 0.482353 0 0 0 0 0.121569 0 0 0 0.46 0"/>
<feBlend mode="normal" in2="effect5_dropShadow" result="effect6_dropShadow"/>
<feBlend mode="normal" in="SourceGraphic" in2="effect6_dropShadow" result="shape"/>
</filter>
<clipPath id="clip0">
<path d="M0 23.5C0 10.5213 10.5213 0 23.5 0H31.5C44.4787 0 55 10.5213 55 23.5V31.5C55 44.4787 44.4787 55 31.5 55H23.5C10.5213 55 0 44.4787 0 31.5V23.5Z" fill="white"/>
</clipPath>
</defs>
</svg>
