<svg width="500" height="426" viewBox="0 0 500 426" fill="none" xmlns="http://www.w3.org/2000/svg">
<path d="M325.89 206.28V206.251H288.853V206.28H286.93C277.5 216.511 264.116 222.921 249.283 222.921C232.879 222.921 217.858 215.157 208.199 202.187C208.748 201.129 209.087 199.945 209.087 198.661C209.087 194.473 205.752 191.076 201.638 191.076C197.525 191.076 194.189 194.473 194.189 198.661C194.189 202.85 197.525 206.246 201.638 206.246C202.146 206.246 202.637 206.192 203.116 206.096C213.966 220.675 230.849 229.406 249.283 229.406C264.947 229.406 279.17 223.042 289.619 212.735H317.413C303.551 235.757 278.617 251.119 250.155 251.119C206.611 251.119 171.31 215.174 171.31 170.834C171.31 126.495 206.611 90.5492 250.155 90.5492C278.609 90.5492 303.534 105.899 317.397 128.904H290.609C280.078 118.01 265.446 111.241 249.283 111.241C230.084 111.241 212.554 120.694 201.782 136.376C201.732 136.376 201.687 136.36 201.638 136.36C197.525 136.36 194.189 139.756 194.189 143.945C194.189 148.133 197.525 151.53 201.638 151.53C205.752 151.53 209.087 148.133 209.087 143.945C209.087 142.215 208.498 140.636 207.536 139.36C217.163 125.849 232.503 117.722 249.283 117.722C264.607 117.722 278.384 124.557 287.855 135.384H393.164C377.534 69.7445 319.423 21 250.163 21C168.883 21 103 88.0862 103 170.83C103 253.574 168.883 320.66 250.163 320.66C319.423 320.66 377.534 271.911 393.164 206.276H325.89V206.28ZM198.012 198.661C198.012 196.623 199.637 194.969 201.638 194.969C203.64 194.969 205.265 196.619 205.265 198.661C205.265 200.704 203.64 202.354 201.638 202.354C199.637 202.354 198.012 200.699 198.012 198.661ZM205.265 143.945C205.265 145.983 203.64 147.637 201.638 147.637C199.637 147.637 198.012 145.987 198.012 143.945C198.012 141.903 199.637 140.252 201.638 140.252C203.64 140.252 205.265 141.903 205.265 143.945ZM349.035 241.004C348.057 241.004 347.128 240.838 346.223 240.6C324.314 271.928 289.013 290.77 250.393 290.77C185.447 290.77 132.608 236.966 132.608 170.834C132.608 104.702 185.439 50.8943 250.384 50.8943C289.005 50.8943 324.306 69.7361 346.215 101.064C347.119 100.827 348.053 100.66 349.027 100.66C355.264 100.66 360.319 105.807 360.319 112.158C360.319 118.51 355.264 123.657 349.027 123.657C342.789 123.657 337.735 118.51 337.735 112.158C337.735 109.983 338.365 107.966 339.396 106.232C319.071 77.0836 286.271 59.5505 250.38 59.5505C190.117 59.5505 141.088 109.474 141.088 170.838C141.088 232.202 190.117 282.122 250.38 282.122C286.271 282.122 319.071 264.585 339.396 235.441C338.365 233.703 337.735 231.69 337.735 229.51C337.735 223.159 342.789 218.012 349.027 218.012C355.264 218.012 360.319 223.159 360.319 229.51C360.319 235.862 355.264 241.009 349.027 241.009L349.035 241.004Z" fill="#8E8E8E"/>
<path d="M396.902 159.652H274.144C269.973 150.392 260.814 143.945 250.152 143.945C235.569 143.945 223.749 155.981 223.749 170.83C223.749 185.679 235.569 197.715 250.152 197.715C260.81 197.715 269.973 191.272 274.14 182.012H396.898C397.172 178.315 397.303 174.593 397.303 170.83C397.303 167.067 397.176 163.349 396.898 159.648L396.902 159.652ZM250.152 182.012C244.086 182.012 239.17 177.006 239.17 170.83C239.17 164.654 244.086 159.648 250.152 159.648C256.217 159.648 261.133 164.654 261.133 170.83C261.133 177.006 256.217 182.012 250.152 182.012Z" fill="#0F64A3"/>
<path d="M343.534 112.158C343.534 115.251 345.994 117.755 349.031 117.755C352.068 117.755 354.528 115.251 354.528 112.158C354.528 109.066 352.068 106.561 349.031 106.561C345.994 106.561 343.534 109.066 343.534 112.158Z" fill="#0F64A3"/>
<path d="M349.031 223.909C345.994 223.909 343.534 226.414 343.534 229.506C343.534 232.598 345.994 235.103 349.031 235.103C352.068 235.103 354.528 232.598 354.528 229.506C354.528 226.414 352.068 223.909 349.031 223.909Z" fill="#0F64A3"/>
<path d="M96 354.247H108.315L128.641 388.967H129.103L128.706 373.26V354.247H138.64V403.396H126.987L106.662 369.417H106.199L106.465 383.641V403.396H96.0041V354.247H96Z" fill="#8E8E8E"/>
<path d="M157.672 401.033C154.029 399.057 151.205 396.177 149.195 392.402C147.186 388.626 146.183 384.087 146.183 378.782C146.183 373.476 147.186 368.896 149.195 365.162C151.205 361.432 154.029 358.577 157.672 356.602C161.314 354.622 165.563 353.634 170.417 353.634C175.271 353.634 179.577 354.622 183.195 356.602C186.813 358.581 189.629 361.444 191.639 365.195C193.648 368.95 194.651 373.476 194.651 378.782C194.651 384.087 193.648 388.68 191.639 392.435C189.629 396.19 186.805 399.053 183.162 401.028C179.52 403.008 175.271 403.996 170.417 403.996C165.563 403.996 161.314 403.008 157.672 401.028V401.033ZM180.383 390.955C182.835 388.238 184.059 384.179 184.059 378.786C184.059 373.393 182.823 369.346 180.35 366.65C177.878 363.953 174.567 362.603 170.417 362.603C166.267 362.603 162.968 363.953 160.52 366.65C158.073 369.346 156.845 373.393 156.845 378.786C156.845 384.179 158.069 388.292 160.52 390.989C162.972 393.685 166.271 395.035 170.417 395.035C174.563 395.035 177.932 393.677 180.383 390.955Z" fill="#8E8E8E"/>
<path d="M216.367 354.247H226.698V394.094H248.148V403.396H216.367V354.247Z" fill="#8E8E8E"/>
<path d="M260.829 401.033C257.186 399.057 254.362 396.177 252.352 392.402C250.343 388.626 249.34 384.087 249.34 378.782C249.34 373.476 250.343 368.896 252.352 365.162C254.362 361.432 257.186 358.577 260.829 356.602C264.471 354.622 268.72 353.634 273.574 353.634C278.428 353.634 282.734 354.622 286.352 356.602C289.97 358.581 292.786 361.444 294.795 365.195C296.805 368.95 297.808 373.476 297.808 378.782C297.808 384.087 296.805 388.68 294.795 392.435C292.786 396.19 289.962 399.053 286.319 401.028C282.676 403.008 278.428 403.996 273.574 403.996C268.72 403.996 264.471 403.008 260.829 401.028V401.033ZM283.54 390.955C285.992 388.238 287.215 384.179 287.215 378.786C287.215 373.393 285.979 369.346 283.507 366.65C281.035 363.953 277.724 362.603 273.574 362.603C269.424 362.603 266.125 363.953 263.677 366.65C261.226 369.346 260.002 373.393 260.002 378.786C260.002 384.179 261.226 388.292 263.677 390.989C266.129 393.685 269.428 395.035 273.574 395.035C277.72 395.035 281.088 393.677 283.54 390.955Z" fill="#8E8E8E"/>
<path d="M314.425 400.833C310.848 398.72 308.113 395.777 306.214 392.001C304.315 388.226 303.366 383.82 303.366 378.786C303.366 373.485 304.381 368.954 306.411 365.199C308.441 361.449 311.29 358.581 314.953 356.606C318.616 354.626 322.876 353.638 327.731 353.638C332.012 353.638 335.765 354.359 338.986 355.797C342.207 357.235 344.777 359.236 346.701 361.799C348.625 364.362 349.758 367.35 350.11 370.767H339.518C338.945 368.204 337.619 366.204 335.544 364.766C333.469 363.328 330.866 362.607 327.731 362.607C323.58 362.607 320.249 363.945 317.732 366.616C315.215 369.292 313.958 373.347 313.958 378.786C313.958 384.225 315.17 388.326 317.601 391.089C320.028 393.852 323.314 395.235 327.465 395.235C331.218 395.235 334.238 394.294 336.534 392.406C338.83 390.518 340.152 387.934 340.509 384.654H327.268V377.169H350.97V381.887C350.97 386.338 349.988 390.226 348.023 393.552C346.059 396.878 343.3 399.449 339.747 401.27C336.195 403.091 332.032 404 327.268 404C322.504 404 317.998 402.946 314.425 400.833Z" fill="#8E8E8E"/>
<path d="M368.021 401.033C364.378 399.057 361.554 396.177 359.545 392.402C357.535 388.626 356.532 384.087 356.532 378.782C356.532 373.476 357.535 368.896 359.545 365.162C361.554 361.432 364.378 358.577 368.021 356.602C371.664 354.622 375.912 353.634 380.766 353.634C385.62 353.634 389.926 354.622 393.544 356.602C397.162 358.581 399.978 361.444 401.988 365.195C403.997 368.95 405 373.476 405 378.782C405 384.087 403.997 388.68 401.988 392.435C399.978 396.19 397.154 399.053 393.511 401.028C389.869 403.008 385.62 403.996 380.766 403.996C375.912 403.996 371.664 403.008 368.021 401.028V401.033ZM390.732 390.955C393.184 388.238 394.408 384.179 394.408 378.786C394.408 373.393 393.172 369.346 390.7 366.65C388.227 363.953 384.916 362.603 380.766 362.603C376.616 362.603 373.317 363.953 370.87 366.65C368.418 369.346 367.194 373.393 367.194 378.786C367.194 384.179 368.418 388.292 370.87 390.989C373.321 393.685 376.62 395.035 380.766 395.035C384.912 395.035 388.281 393.677 390.732 390.955Z" fill="#8E8E8E"/>
</svg>
