<svg width="88" height="30" viewBox="0 0 88 30" fill="none" xmlns="http://www.w3.org/2000/svg">
<path d="M57.3158 17.5897C58.5973 17.5897 59.6361 16.5509 59.6361 15.2694C59.6361 13.988 58.5973 12.9492 57.3158 12.9492C56.0344 12.9492 54.9956 13.988 54.9956 15.2694C54.9956 16.5509 56.0344 17.5897 57.3158 17.5897Z" fill="#D93E34"/>
<path d="M45.6567 22.3809H48.8381V8.10083H45.6567V22.3809ZM36.7188 8.10566H33.5374V22.3809H44.3534V19.1996H36.7188V8.10566ZM41.3641 13.5264V16.4711L44.3317 14.9987L41.3641 13.5264ZM62.4406 10.2097C61.7861 9.56437 61.0163 9.04774 60.1711 8.68664C59.2935 8.31535 58.3502 8.12401 57.3973 8.12401C56.4444 8.12401 55.5012 8.31535 54.6236 8.68664C53.7782 9.04743 53.0083 9.5641 52.3541 10.2097C51.7023 10.8571 51.1818 11.6245 50.8213 12.4695C50.45 13.3505 50.2588 14.2969 50.2588 15.253C50.2588 16.209 50.45 17.1554 50.8213 18.0364C51.1818 18.8814 51.7023 19.6488 52.3541 20.2962C53.0083 20.9418 53.7782 21.4585 54.6236 21.8193C55.5012 22.1905 56.4444 22.3818 57.3973 22.3818C58.3502 22.3818 59.2935 22.1905 60.1711 21.8193C61.0163 21.4582 61.7861 20.9415 62.4406 20.2962C63.0922 19.6487 63.6127 18.8813 63.9733 18.0364C64.3445 17.1554 64.5357 16.209 64.5357 15.253C64.5357 14.2969 64.3445 13.3506 63.9733 12.4695C63.613 11.6247 63.0929 10.8574 62.4418 10.2097H62.4406ZM61.0443 16.7779C60.8448 17.2489 60.5579 17.678 60.1989 18.0424C59.8309 18.4108 59.394 18.7029 58.9131 18.9023C58.4322 19.1016 57.9167 19.2042 57.3961 19.2042C56.8755 19.2042 56.36 19.1016 55.8791 18.9023C55.3982 18.7029 54.9613 18.4108 54.5934 18.0424C54.2342 17.6781 53.9473 17.249 53.7479 16.7779C53.5405 16.2928 53.4348 15.7703 53.4375 15.2427C53.4343 14.7186 53.54 14.1996 53.7479 13.7184C53.9492 13.2511 54.2359 12.8255 54.5934 12.4635C54.9614 12.0953 55.3983 11.8033 55.8792 11.604C56.3601 11.4048 56.8756 11.3022 57.3961 11.3022C57.9167 11.3022 58.4321 11.4048 58.913 11.604C59.3939 11.8033 59.8309 12.0953 60.1989 12.4635C60.5563 12.8256 60.843 13.2512 61.0443 13.7184C61.2522 14.1996 61.3579 14.7186 61.3548 15.2427C61.3578 15.7702 61.2526 16.2927 61.0456 16.7779H61.0443ZM87.9643 11.3064V8.12501H81.9131V8.10083H78.7329V22.3761H87.9655V19.1947H81.9143V16.8334H87.9655V13.6568H81.9143V11.31L87.9643 11.3064ZM74.0224 16.2706L69.4846 8.12501H66.0906V22.3773H69.272V14.2318L73.8026 22.3773H77.205V8.12501H74.0224V16.2706Z" fill="white"/>
<path d="M20.8107 2.42411C22.2214 3.20919 23.9341 3.38191 24.0899 5.01852C23.9497 5.1898 23.7799 5.3346 23.5887 5.44608C24.3071 5.49223 24.9906 5.77268 25.5345 6.24446C25.2097 6.0186 24.8398 5.8658 24.4503 5.79657C24.0608 5.72735 23.661 5.74335 23.2782 5.84346C23.1454 6.39166 23.1434 6.96344 23.2724 7.51256C23.4015 8.06167 23.6579 8.5727 24.021 9.00433C24.1634 9.09342 24.3274 9.14198 24.4953 9.14475C24.6633 9.14751 24.8288 9.10439 24.974 9.02003C26.0079 8.41612 24.6829 7.2542 24.2976 6.21305C24.5881 6.1761 24.8831 6.20171 25.1629 6.28816C25.4427 6.37462 25.7008 6.51992 25.9198 6.7143C25.8983 6.17968 25.695 5.66838 25.3436 5.26491C26.9693 3.56187 24.2167 2.47967 24.3846 1.13415C24.1881 1.46736 24.1106 1.85747 24.1648 2.24052C23.8278 0.560434 22.5149 0.948142 21.5547 0C21.5544 0.337503 21.6463 0.668682 21.8204 0.957813C21.2187 1.09071 20.5893 1.00507 20.0449 0.716242C19.9501 1.0455 19.975 1.3977 20.1151 1.71035C20.2553 2.023 20.5017 2.27588 20.8107 2.42411Z" fill="#D93E34"/>
<path d="M7.37617 8.54661C7.43255 8.54661 7.48767 8.52989 7.53454 8.49856C7.58142 8.46724 7.61794 8.42273 7.63952 8.37064C7.66109 8.31856 7.66674 8.26125 7.65574 8.20595C7.64474 8.15066 7.61759 8.09987 7.57772 8.06001C7.53786 8.02014 7.48707 7.99299 7.43178 7.98199C7.37648 7.97099 7.31917 7.97664 7.26709 7.99821C7.215 8.01978 7.17049 8.05631 7.13916 8.10319C7.10784 8.15006 7.09112 8.20518 7.09112 8.26156C7.09144 8.33706 7.12157 8.40939 7.17496 8.46277C7.22834 8.51616 7.30067 8.54629 7.37617 8.54661ZM6.29517 10.5999C6.29517 10.5433 6.27839 10.488 6.24694 10.4409C6.21548 10.3938 6.17077 10.3571 6.11846 10.3354C6.06615 10.3138 6.0086 10.3081 5.95307 10.3191C5.89754 10.3302 5.84653 10.3575 5.8065 10.3975C5.76646 10.4375 5.73921 10.4885 5.72817 10.5441C5.71712 10.5996 5.72278 10.6571 5.74444 10.7095C5.76611 10.7618 5.80281 10.8065 5.84988 10.8379C5.89696 10.8694 5.9523 10.8862 6.00891 10.8862C6.08483 10.8862 6.15765 10.856 6.21133 10.8023C6.26501 10.7486 6.29517 10.6758 6.29517 10.5999ZM6.05361 13.1243C6.08732 13.0982 6.11258 13.0628 6.12624 13.0225C6.13989 12.9821 6.14133 12.9386 6.13037 12.8975C6.1194 12.8563 6.09653 12.8193 6.06461 12.7911C6.03269 12.7629 5.99313 12.7448 5.95093 12.739H5.92316C5.88909 12.7391 5.85554 12.7473 5.82528 12.763C5.79501 12.7786 5.7689 12.8012 5.74909 12.8289C5.72927 12.8566 5.71634 12.8886 5.71132 12.9223C5.70631 12.956 5.70937 12.9904 5.72026 13.0227C5.73116 13.055 5.74956 13.0842 5.77397 13.108C5.79837 13.1317 5.82807 13.1494 5.86063 13.1594C5.89318 13.1694 5.92767 13.1716 5.96122 13.1657C5.99477 13.1598 6.02643 13.146 6.05361 13.1255V13.1243ZM7.04886 13.4105C7.08585 13.3297 7.14755 13.2628 7.22505 13.2194C7.30255 13.176 7.39185 13.1583 7.48004 13.1689C7.53419 13.1761 7.5864 13.1938 7.63366 13.2212C7.68092 13.2485 7.7223 13.285 7.75542 13.3284C7.75542 13.3284 7.76268 13.3405 7.76752 13.3477C8.77447 12.4058 10.0957 11.872 11.4743 11.85C9.91503 4.93401 2.38787 4.10302 0 9.35705C0.849567 8.31402 2.00154 7.55998 3.29735 7.19868C3.94727 7.06041 4.61859 7.05636 5.27013 7.1868C5.92167 7.31723 6.53968 7.57938 7.08629 7.95719C7.15487 7.8917 7.24373 7.85156 7.33821 7.8434C7.43268 7.83524 7.52713 7.85955 7.60592 7.91231C7.68472 7.96507 7.74315 8.04312 7.77159 8.13358C7.80003 8.22404 7.79677 8.32151 7.76234 8.40986C7.7279 8.49822 7.66437 8.57217 7.58222 8.61954C7.50007 8.6669 7.40421 8.68484 7.31049 8.67037C7.21677 8.6559 7.13079 8.60989 7.06675 8.53996C7.00271 8.47002 6.96444 8.38034 6.95826 8.28572C6.4451 7.92047 5.86197 7.66529 5.24547 7.53621C4.62897 7.40713 3.99244 7.40694 3.37587 7.53566C2.21643 7.86053 1.1797 8.52267 0.397368 9.43797C1.72442 8.61295 3.30989 8.30834 4.8482 8.58284C3.79724 8.81582 2.81845 9.30016 1.99572 9.99436C1.173 10.6886 0.530883 11.5719 0.124402 12.5687C0.778797 11.7757 1.62816 11.1666 2.58911 10.8011C3.55006 10.4356 4.58955 10.3263 5.6055 10.4839C5.6333 10.3832 5.69804 10.2967 5.78681 10.2415C5.87558 10.1864 5.98186 10.1667 6.08448 10.1865C6.18709 10.2062 6.27851 10.2639 6.3405 10.348C6.4025 10.4321 6.43052 10.5365 6.41898 10.6404C6.40744 10.7442 6.35718 10.8399 6.27823 10.9084C6.19928 10.9769 6.09743 11.013 5.99299 11.0098C5.88854 11.0065 5.78918 10.964 5.71468 10.8907C5.64018 10.8174 5.59602 10.7188 5.59101 10.6144C4.54324 10.4449 3.46898 10.5697 2.48799 10.9749C1.50699 11.3801 0.657784 12.0498 0.0350169 12.9093C0.855764 12.3249 1.77755 11.8973 2.75384 11.6483C2.17062 11.9921 1.67531 12.4667 1.30701 13.0348C0.93872 13.6029 0.707525 14.2488 0.631686 14.9215C1.33415 13.8124 2.33773 12.9261 3.52518 12.3662C4.71264 11.8062 6.03492 11.5958 7.33753 11.7594C7.373 11.6709 7.43769 11.5972 7.52083 11.5505C7.60397 11.5038 7.70057 11.487 7.79461 11.5028C7.88865 11.5185 7.97447 11.566 8.03781 11.6373C8.10115 11.7086 8.13821 11.7994 8.14284 11.8946C8.14747 11.9899 8.11939 12.0838 8.06326 12.1609C8.00713 12.238 7.92633 12.2936 7.83427 12.3184C7.7422 12.3432 7.64442 12.3358 7.55714 12.2974C7.46986 12.259 7.39832 12.1919 7.35443 12.1073C3.29855 11.908 1.4361 14.0168 0.611155 15.6667C0.618979 15.8217 0.635098 15.9761 0.65946 16.1293C0.839653 15.6737 1.11904 15.2638 1.47732 14.9296C1.83561 14.5953 2.26381 14.345 2.73087 14.1968C3.60353 13.6142 4.57976 13.2042 5.60672 12.989C5.60337 12.9629 5.60337 12.9365 5.60672 12.9105C5.61483 12.8508 5.63993 12.7947 5.67904 12.7489C5.71814 12.7031 5.76959 12.6695 5.82727 12.6521C5.88494 12.6347 5.9464 12.6343 6.00431 12.6508C6.06221 12.6674 6.11412 12.7003 6.15386 12.7456C6.19361 12.7908 6.21949 12.8466 6.22843 12.9061C6.23737 12.9657 6.22901 13.0266 6.20431 13.0815C6.17961 13.1365 6.13963 13.1831 6.08914 13.216C6.03865 13.2488 5.97976 13.2665 5.91953 13.2668H5.87727C5.83048 13.2604 5.78574 13.2435 5.74642 13.2173C5.70709 13.1912 5.67419 13.1565 5.65019 13.1158C4.6801 13.3178 3.7553 13.6961 2.92172 14.2318C2.19659 15.3022 1.85594 16.5868 1.95545 17.8758C2.17598 16.6659 2.79949 15.5662 3.7245 14.7556C4.64952 13.9451 5.82161 13.4714 7.05006 13.4117L7.04886 13.4105ZM8.0151 11.9213C8.0151 11.8646 7.99829 11.8092 7.96678 11.7621C7.93527 11.715 7.8905 11.6783 7.83812 11.6567C7.78574 11.6351 7.72812 11.6295 7.67256 11.6406C7.617 11.6518 7.56599 11.6791 7.52601 11.7193C7.48602 11.7594 7.45887 11.8106 7.44796 11.8662C7.43705 11.9218 7.4429 11.9794 7.46475 12.0317C7.4866 12.0839 7.52347 12.1286 7.5707 12.1599C7.61793 12.1912 7.6734 12.2078 7.73007 12.2075C7.80536 12.2066 7.87724 12.176 7.93014 12.1224C7.98304 12.0688 8.01269 11.9966 8.01269 11.9213H8.0151ZM18.0473 21.55C17.9805 21.5414 17.9128 21.5561 17.8557 21.5918C17.7986 21.6275 17.7556 21.6819 17.7341 21.7457C17.7125 21.8095 17.7138 21.8788 17.7376 21.9417C17.7615 22.0047 17.8064 22.0575 17.8648 22.0911C17.9232 22.1246 17.9914 22.1369 18.0578 22.1258C18.1242 22.1147 18.1847 22.081 18.229 22.0303C18.2734 21.9796 18.2987 21.9151 18.3008 21.8478C18.3029 21.7805 18.2816 21.7145 18.2405 21.6612C18.217 21.6305 18.1875 21.6049 18.1539 21.5858C18.1203 21.5668 18.0832 21.5546 18.0449 21.55H18.0473ZM8.14314 15.6184C8.14337 15.6747 8.16031 15.7297 8.19177 15.7765C8.22324 15.8232 8.26783 15.8595 8.31993 15.8809C8.37204 15.9023 8.42932 15.9078 8.48453 15.8966C8.53975 15.8855 8.59042 15.8583 8.63017 15.8183C8.66991 15.7784 8.69695 15.7276 8.70785 15.6724C8.71875 15.6171 8.71304 15.5599 8.69143 15.5079C8.66982 15.4558 8.63328 15.4114 8.58643 15.3801C8.53958 15.3488 8.48452 15.3322 8.42819 15.3322C8.35248 15.3325 8.27997 15.3628 8.22655 15.4164C8.17313 15.4701 8.14314 15.5427 8.14314 15.6184ZM6.87613 15.2488C6.89756 15.2774 6.92576 15.3003 6.95818 15.3153C6.99061 15.3304 7.02624 15.3371 7.06192 15.335C7.09761 15.3329 7.1322 15.322 7.16263 15.3032C7.19305 15.2845 7.21836 15.2584 7.23627 15.2275C7.25418 15.1966 7.26414 15.1617 7.26526 15.126C7.26638 15.0902 7.25862 15.0548 7.24269 15.0228C7.22675 14.9908 7.20313 14.9633 7.17394 14.9426C7.14475 14.922 7.11089 14.9089 7.07542 14.9046H7.04764C6.9954 14.9047 6.94498 14.9237 6.90568 14.9581C6.86638 14.9926 6.84086 15.04 6.83385 15.0918C6.83202 15.1079 6.83202 15.1241 6.83385 15.1401C6.83579 15.1617 6.84109 15.1829 6.84956 15.2029C6.85649 15.2193 6.86542 15.2347 6.87613 15.2488ZM19.6948 18.8276C19.6647 18.8115 19.632 18.8008 19.5981 18.7962H19.5595C19.4855 18.7962 19.4144 18.8243 19.3604 18.8749C19.3064 18.9255 19.2738 18.9947 19.269 19.0685C19.2642 19.1423 19.2877 19.2152 19.3347 19.2723C19.3817 19.3294 19.4487 19.3664 19.5221 19.3759C19.5986 19.3859 19.6759 19.3652 19.7372 19.3184C19.7985 19.2716 19.8389 19.2024 19.8494 19.1259C19.8558 19.0746 19.8483 19.0224 19.8276 18.975C19.801 18.9106 19.7521 18.8578 19.6899 18.8264L19.6948 18.8276ZM8.02961 15.715C8.0106 15.6382 8.01405 15.5575 8.03958 15.4826C8.0651 15.4077 8.11163 15.3417 8.1736 15.2924C8.23557 15.2432 8.31038 15.2128 8.38914 15.2048C8.46789 15.1969 8.54726 15.2117 8.61782 15.2476L8.6009 15.2331C8.86826 14.5865 9.27792 14.0084 9.79943 13.5419C10.3209 13.0754 10.9409 12.7324 11.6132 12.5385C11.5866 12.3702 11.5565 12.2051 11.5226 12.0432C10.1496 12.0531 8.83297 12.5912 7.84601 13.5458C7.85138 13.6033 7.84471 13.6613 7.8264 13.7161C7.80809 13.7709 7.77856 13.8213 7.73969 13.864C7.70081 13.9068 7.65347 13.9409 7.60065 13.9643C7.54783 13.9877 7.49071 13.9999 7.43294 13.9999C7.41444 14.0011 7.39587 14.0011 7.37737 13.9999C7.32323 13.9928 7.27104 13.9751 7.22378 13.9477C7.17652 13.9203 7.13512 13.8839 7.10199 13.8405C7.08403 13.8168 7.06865 13.7913 7.0561 13.7644C5.84127 13.8468 4.69319 14.3503 3.80958 15.188C2.92597 16.0258 2.36213 17.1454 2.21515 18.3541C2.72413 17.7063 3.37712 17.1861 4.1223 16.8347C4.3931 16.3664 4.77106 15.969 5.2252 15.675C5.67933 15.3811 6.19668 15.199 6.73481 15.1437C6.73265 15.1229 6.73265 15.1018 6.73481 15.0809C6.74293 15.0212 6.76808 14.9651 6.80724 14.9192C6.8464 14.8734 6.89792 14.8398 6.95566 14.8224C7.0134 14.8051 7.07491 14.8047 7.13284 14.8214C7.19078 14.8381 7.2427 14.8711 7.28238 14.9165C7.32207 14.9619 7.34785 15.0177 7.35666 15.0773C7.36546 15.137 7.35691 15.1979 7.33203 15.2528C7.30715 15.3077 7.26699 15.3543 7.21635 15.387C7.16571 15.4197 7.10673 15.4372 7.04644 15.4372H7.00536C6.96447 15.4319 6.92505 15.4184 6.88938 15.3977C6.85372 15.3769 6.82253 15.3493 6.79762 15.3165C6.78809 15.3035 6.77961 15.2897 6.77226 15.2754C6.27329 15.3155 5.79076 15.4725 5.36375 15.7338C4.93674 15.995 4.57724 16.3531 4.31434 16.7791C4.48326 16.7392 4.65959 16.7434 4.82645 16.7912C4.42046 17.0273 4.06545 17.3417 3.78201 17.7162C3.49856 18.0906 3.29236 18.5177 3.17537 18.9725C3.71471 18.74 4.31525 18.6899 4.88565 18.83C5.01616 18.0472 5.38948 17.3252 5.95281 16.7662C6.51615 16.2072 7.24098 15.8395 8.02478 15.715H8.02961ZM7.61773 30H26.0974C23.2539 29.1393 20.3041 28.6795 17.3335 28.6339H17.1426C17.1897 28.0316 17.2703 27.4324 17.3842 26.8391C17.2425 26.368 17.9402 25.184 19.4774 23.2869C18.8913 23.6332 18.3386 24.0331 17.8263 24.4814C18.848 23.2026 20.1355 22.1612 21.5995 21.4293C25.6844 18.2656 26.618 14.6095 24.4005 10.461C24.1404 9.9262 23.8294 9.41778 23.4716 8.94278C24.1335 11.1797 24.892 14.8527 23.3786 17.0352C22.2778 19.0803 20.5648 20.7299 18.4797 21.7529C18.4877 21.8034 18.4877 21.8547 18.4797 21.9051C18.4641 22.0219 18.4064 22.1289 18.3174 22.2061C18.2284 22.2833 18.1143 22.3253 17.9966 22.3243C17.9753 22.3256 17.9539 22.3256 17.9326 22.3243C17.8587 22.3154 17.7879 22.2895 17.7257 22.2488C17.6635 22.208 17.6115 22.1535 17.5739 22.0894C17.5362 22.0252 17.5138 21.9533 17.5085 21.8791C17.5032 21.805 17.5151 21.7306 17.5432 21.6617C17.5714 21.5929 17.615 21.5315 17.6708 21.4823C17.7266 21.4331 17.7929 21.3974 17.8648 21.3781C17.9366 21.3588 18.0119 21.3563 18.0848 21.3708C18.1577 21.3853 18.2263 21.4165 18.2852 21.4619C20.5243 20.4003 22.3029 18.5634 23.2917 16.2912C23.4789 14.628 22.3351 13.03 22.4293 10.0975C22.2363 11.1599 21.862 12.1813 21.3229 13.117C21.6046 14.1282 21.6328 15.1933 21.4048 16.218C21.1769 17.2427 20.6999 18.1954 20.016 18.9919C20.0307 19.0618 20.0297 19.1342 20.013 19.2037C19.9963 19.2732 19.9644 19.3382 19.9195 19.3939C19.8747 19.4496 19.8181 19.4946 19.7537 19.5258C19.6894 19.5569 19.6189 19.5734 19.5474 19.574C19.5261 19.5754 19.5047 19.5754 19.4834 19.574C19.3617 19.5514 19.2533 19.483 19.1805 19.3828C19.1078 19.2826 19.0764 19.1583 19.0926 19.0355C19.1089 18.9128 19.1717 18.801 19.268 18.7232C19.3643 18.6454 19.4868 18.6075 19.6102 18.6174C19.685 18.6279 19.7562 18.6561 19.818 18.6996C20.4127 17.9973 20.834 17.1651 21.048 16.2701C21.262 15.3751 21.2627 14.4423 21.0499 13.547C20.407 14.4736 19.5163 15.2006 18.4797 15.645C20.8362 10.676 16.5774 9.83536 21.8411 3.64526C18.8577 5.09465 16.4892 8.82924 14.7354 14.849C14.5664 15.1474 14.4625 15.2802 14.4262 15.2464C14.5464 14.8096 14.64 14.3659 14.7065 13.9178C13.3307 15.401 11.3016 16.1619 10.5636 17.6186C10.7257 16.8542 11.1288 16.1621 11.7135 15.6438C11.7881 14.6748 11.7594 13.7006 11.6277 12.7378C11.5271 12.7579 11.4292 12.7828 11.3342 12.8126C10.2264 13.2311 9.32957 14.0715 8.84006 15.1498C8.80624 15.2186 8.77966 15.2706 8.76275 15.3116L8.7398 15.3648C8.802 15.4389 8.8362 15.5325 8.83643 15.6293C8.83647 15.7196 8.80709 15.8074 8.75274 15.8795C8.6984 15.9516 8.62206 16.0041 8.53525 16.0289C8.44844 16.0538 8.35591 16.0496 8.27165 16.0172C8.18739 15.9848 8.11599 15.9257 8.06825 15.8491C7.30351 15.9639 6.59477 16.3179 6.04363 16.8604C5.4925 17.4028 5.1273 18.1058 5.00039 18.8687C6.36765 19.2213 7.68416 20.3181 9.6191 20.161C9.57261 20.6715 9.64325 21.1858 9.82564 21.6648C9.85327 20.8803 10.1619 20.1318 10.6953 19.5559C10.4813 20.6584 10.5368 21.7962 10.8571 22.8726C10.8877 22.1468 11.169 21.454 11.6531 20.9123C11.5033 21.7449 11.4149 22.5875 11.3886 23.433C11.8079 22.977 12.1203 22.4332 12.3029 21.8411C13.1033 23.687 14.4644 25.234 16.1933 26.263C16.4191 27.0373 16.5302 27.8406 16.523 28.6472H16.488C13.4807 28.6773 10.4928 29.1324 7.61291 29.9988L7.61773 30ZM7.67813 13.4431C7.6565 13.4047 7.62626 13.3719 7.5898 13.3472C7.55333 13.3224 7.51164 13.3065 7.46797 13.3006H7.42931C7.35387 13.2956 7.27956 13.3208 7.22271 13.3707C7.16585 13.4205 7.13112 13.4909 7.12615 13.5663C7.12119 13.6418 7.14639 13.7161 7.19622 13.7729C7.24606 13.8298 7.31644 13.8645 7.39188 13.8695C7.43891 13.8759 7.4868 13.8704 7.53117 13.8536C7.57554 13.8367 7.61496 13.809 7.64584 13.7729C7.67672 13.7369 7.69807 13.6937 7.70793 13.6472C7.71779 13.6008 7.71586 13.5526 7.70229 13.5071C7.69539 13.4843 7.68565 13.4624 7.6733 13.4419L7.67813 13.4431Z" fill="white"/>
</svg>
